# File produced by Open Asset Import Library (http://www.assimp.sf.net)
# (assimp v3.1.13472455)

mtllib BarrelMesh.mtl

# vertex positions
v 20.057350 -5.809000 -0.969905
v 20.202396 -2.494640 -0.718676
v 17.110516 -2.494640 0.109790
v 17.110516 -5.809000 -0.180304
v 20.231441 0.831885 -0.668369
v 17.110516 0.831885 0.167880
v 20.144342 4.154353 -0.819229
v 17.110516 4.154353 -0.006319
v 17.110516 -2.494640 -12.257746
v 20.202412 -2.494640 -11.429271
v 20.057364 -5.809000 -11.178041
v 17.110516 -5.809000 -11.967653
v 17.110516 0.831885 -12.315836
v 20.231457 0.831885 -11.479578
v 17.110516 4.154353 -12.141638
v 20.144358 4.154353 -11.328718
v 22.465820 -2.494640 -9.165852
v 22.214592 -5.809000 -9.020805
v 22.516129 0.831885 -9.194897
v 22.365269 4.154353 -9.107798
v 23.294283 -2.494640 -6.073969
v 23.004190 -5.809000 -6.073969
v 23.352373 0.831885 -6.073969
v 23.178177 4.154353 -6.073969
v 22.214584 -5.809000 -3.127136
v 22.465813 -2.494640 -2.982089
v 22.516121 0.831885 -2.953044
v 22.365261 4.154353 -3.040143
v 14.163667 -5.809000 -11.178043
v 14.018620 -2.494640 -11.429272
v 13.989574 0.831885 -11.479578
v 14.076675 4.154353 -11.328718
v 14.018635 -2.494640 -0.718676
v 14.163682 -5.809000 -0.969905
v 13.989590 0.831885 -0.668369
v 14.076689 4.154353 -0.819229
v 11.755219 -2.494640 -2.982089
v 12.006447 -5.809000 -3.127136
v 11.704910 0.831885 -2.953044
v 11.855771 4.154353 -3.040143
v 10.926748 -2.494640 -6.073969
v 11.216841 -5.809000 -6.073969
v 10.868657 0.831885 -6.073969
v 11.042855 4.154353 -6.073969
v 12.006439 -5.809000 -9.020805
v 11.755209 -2.494640 -9.165852
v 11.704903 0.831885 -9.194897
v 11.855762 4.154353 -9.107797
v 17.110516 8.425392 -1.821374
v 17.110516 8.425392 -0.992268
v 19.651367 8.425392 -1.673087
v 19.236874 8.425392 -2.391121
v 19.236874 8.425392 -9.756863
v 19.651379 8.425392 -10.474865
v 17.110516 8.425392 -11.155687
v 17.110516 8.425392 -10.326582
v 20.793428 8.425392 -8.200282
v 21.511410 8.425392 -8.614824
v 21.363102 8.425392 -6.073988
v 22.192225 8.425392 -6.073971
v 21.511406 8.425392 -3.533120
v 20.793428 8.425392 -3.947674
v 14.569651 8.425392 -10.474865
v 14.984266 8.425392 -9.756863
v 14.984266 8.425392 -2.391121
v 14.569664 8.425392 -1.673087
v 13.427710 8.425392 -3.947674
v 12.709629 8.425392 -3.533120
v 12.857929 8.425392 -6.073988
v 12.028807 8.425392 -6.073971
v 12.709620 8.425392 -8.614824
v 13.427710 8.425392 -8.200282
v 19.655975 8.778625 -10.482826
v 19.826424 8.761718 -10.778040
v 17.110516 8.761718 -11.505770
v 17.110516 8.778625 -11.164877
v 21.519371 8.778625 -8.619424
v 21.814589 8.761719 -8.789865
v 22.201416 8.778625 -6.073971
v 22.542307 8.761718 -6.073971
v 19.729074 -8.751277 -10.609422
v 19.634960 -8.773993 -10.446428
v 17.110516 -8.773995 -11.122852
v 17.110516 -8.751277 -11.311073
v 21.645975 -8.751277 -8.692517
v 21.482969 -8.773993 -8.598409
v 22.347610 -8.751277 -6.073971
v 22.159389 -8.773995 -6.073971
v 21.519369 8.778625 -3.528522
v 21.814579 8.761719 -3.358078
v 21.645964 -8.751277 -3.455426
v 21.482965 -8.773995 -3.549539
v 14.394610 8.761718 -10.778042
v 14.565056 8.778625 -10.482828
v 14.586072 -8.773995 -10.446428
v 14.491958 -8.751277 -10.609423
v 19.655968 8.778625 -1.665125
v 19.826408 8.761718 -1.369906
v 19.729059 -8.751277 -1.538522
v 19.634951 -8.773993 -1.701524
v 17.110516 8.778625 -0.983078
v 17.110516 8.761718 -0.642187
v 17.110516 -8.751277 -0.836882
v 17.110516 -8.773993 -1.025103
v 14.565066 8.778625 -1.665125
v 14.394622 8.761718 -1.369906
v 14.491973 -8.751277 -1.538523
v 14.586079 -8.773993 -1.701525
v 12.701664 8.778625 -3.528520
v 12.406449 8.761718 -3.358078
v 12.019613 8.778625 -6.073971
v 11.678724 8.761718 -6.073969
v 12.575068 -8.751277 -3.455425
v 12.738064 -8.773993 -3.549539
v 11.873421 -8.751277 -6.073971
v 12.061642 -8.773993 -6.073971
v 12.701660 8.778625 -8.619424
v 12.406443 8.761718 -8.789867
v 12.575049 -8.751277 -8.692517
v 12.738060 -8.773993 -8.598409
v 17.110516 -8.420340 -1.054522
v 19.620243 -8.420340 -1.727001
v 17.110516 7.456565 -0.411955
v 19.941525 7.456565 -1.170520
v 19.620253 -8.420340 -10.420950
v 17.110516 -8.420340 -11.093433
v 19.941540 7.456565 -10.977427
v 17.110516 7.456565 -11.736001
v 21.457493 -8.420340 -8.583697
v 22.013977 7.456565 -8.904981
v 22.129969 -8.420340 -6.073972
v 22.772539 7.456565 -6.073971
v 21.457493 -8.420340 -3.564247
v 22.013968 7.456565 -3.242962
v 14.600778 -8.420340 -10.420950
v 14.279492 7.456565 -10.977427
v 14.600790 -8.420340 -1.727001
v 14.279507 7.456565 -1.170521
v 12.763541 -8.420340 -3.564247
v 12.207062 7.456565 -3.242961
v 12.091061 -8.420340 -6.073971
v 11.448492 7.456565 -6.073969
v 12.763535 -8.420340 -8.583697
v 12.207054 7.456565 -8.904981
v 21.008430 -8.420340 -3.823511
v 21.611448 -8.420340 -6.073972
v 21.008436 -8.420340 -8.324434
v 19.360989 -8.420340 -9.971889
v 17.110516 -8.420340 -10.574910
v 19.360975 -8.420340 -2.176057
v 17.110516 -8.420340 -1.573046
v 13.212594 -8.420340 -8.324434
v 12.609584 -8.420340 -6.073971
v 13.212598 -8.420340 -3.823511
v 14.860050 -8.420340 -2.176057
v 14.860042 -8.420340 -9.971889

# UV coordinates
vt 0.968565 0.088406
vt 0.968565 0.181650
vt 0.890848 0.181650
vt 0.890848 0.088406
vt 0.968565 0.276407
vt 0.890848 0.276407
vt 0.968565 0.370612
vt 0.890848 0.370612
vt 0.407306 0.181650
vt 0.325741 0.181650
vt 0.325741 0.088406
vt 0.407306 0.088406
vt 0.407306 0.276407
vt 0.325741 0.276407
vt 0.407306 0.370612
vt 0.325741 0.370612
vt 0.244900 0.181650
vt 0.244900 0.088406
vt 0.244900 0.276407
vt 0.244900 0.370612
vt 0.164888 0.181650
vt 0.164888 0.088406
vt 0.164888 0.276407
vt 0.164888 0.370612
vt 0.086047 0.088406
vt 0.086047 0.181650
vt 0.006465 0.181650
vt 0.006465 0.088406
vt 0.086047 0.276407
vt 0.006465 0.276407
vt 0.086047 0.370612
vt 0.006465 0.370612
vt 0.489040 0.088406
vt 0.489040 0.181650
vt 0.489040 0.276407
vt 0.489040 0.370612
vt 0.812542 0.181650
vt 0.812542 0.088406
vt 0.812542 0.276407
vt 0.812542 0.370612
vt 0.732670 0.181650
vt 0.732670 0.088406
vt 0.732670 0.276407
vt 0.732670 0.370612
vt 0.652027 0.181650
vt 0.652027 0.088406
vt 0.652027 0.276407
vt 0.652027 0.370612
vt 0.570689 0.088406
vt 0.570689 0.181650
vt 0.570689 0.276407
vt 0.570689 0.370612
vt 0.508109 0.795817
vt 0.485885 0.801748
vt 0.485899 0.730676
vt 0.508109 0.736647
vt 0.699329 0.685384
vt 0.715605 0.669132
vt 0.751136 0.730695
vt 0.728913 0.736627
vt 0.648080 0.655823
vt 0.654038 0.633573
vt 0.588922 0.655825
vt 0.582948 0.633613
vt 0.521439 0.669166
vt 0.537685 0.685408
vt 0.751125 0.801766
vt 0.728914 0.795793
vt 0.537693 0.847057
vt 0.521416 0.863311
vt 0.588941 0.876618
vt 0.582983 0.898871
vt 0.648100 0.876620
vt 0.654072 0.898832
vt 0.715582 0.863281
vt 0.699336 0.847036
vt 0.983930 0.308941
vt 0.992401 0.308941
vt 0.992401 0.385152
vt 0.983930 0.385152
vt 0.983930 0.234390
vt 0.992401 0.234390
vt 0.983930 0.156519
vt 0.992401 0.156519
vt 0.574376 0.951570
vt 0.574376 0.956560
vt 0.502370 0.956560
vt 0.502370 0.951570
vt 0.677093 0.951570
vt 0.677093 0.956560
vt 0.751618 0.951570
vt 0.751618 0.956560
vt 0.983930 0.086529
vt 0.992401 0.086529
vt 0.827533 0.951570
vt 0.827533 0.956560
vt 0.992401 0.462523
vt 0.983930 0.462523
vt 0.426403 0.956560
vt 0.426403 0.951570
vt 0.983930 0.007790
vt 0.992401 0.007790
vt 0.898237 0.951570
vt 0.898237 0.956560
vt 0.992401 0.884179
vt 0.983930 0.884179
vt 0.983930 0.821293
vt 0.992401 0.821293
vt 0.017810 0.956560
vt 0.017810 0.951570
vt 0.084475 0.951570
vt 0.084475 0.956560
vt 0.983930 0.745583
vt 0.992401 0.745583
vt 0.158932 0.951570
vt 0.158932 0.956560
vt 0.983930 0.667778
vt 0.992401 0.667778
vt 0.983930 0.613673
vt 0.992401 0.613673
vt 0.234868 0.951570
vt 0.234868 0.956560
vt 0.306597 0.951570
vt 0.306597 0.956560
vt 0.983930 0.535879
vt 0.992401 0.535879
vt 0.352038 0.951570
vt 0.352038 0.956560
vt 0.974307 0.821293
vt 0.974307 0.884179
vt 0.084475 0.966174
vt 0.017810 0.966174
vt 0.890848 0.497426
vt 0.890848 0.462069
vt 0.968565 0.462069
vt 0.968565 0.497426
vt 0.968565 0.007790
vt 0.890848 0.007790
vt 0.974307 0.308941
vt 0.974307 0.385152
vt 0.574376 0.966174
vt 0.502370 0.966174
vt 0.325741 0.497426
vt 0.325741 0.462069
vt 0.407306 0.462069
vt 0.407306 0.497426
vt 0.325741 0.007790
vt 0.407306 0.007790
vt 0.974307 0.234390
vt 0.677093 0.966174
vt 0.244900 0.497426
vt 0.244900 0.462069
vt 0.244900 0.007790
vt 0.974307 0.156519
vt 0.751618 0.966174
vt 0.164888 0.497426
vt 0.164888 0.462069
vt 0.164888 0.007790
vt 0.974307 0.007790
vt 0.974307 0.086529
vt 0.898237 0.966174
vt 0.827533 0.966174
vt 0.006465 0.497426
vt 0.006465 0.462069
vt 0.086047 0.462069
vt 0.086047 0.497426
vt 0.086047 0.007790
vt 0.006465 0.007790
vt 0.974307 0.462523
vt 0.426403 0.966174
vt 0.489040 0.462069
vt 0.489040 0.497426
vt 0.489040 0.007790
vt 0.974307 0.745583
vt 0.158932 0.966174
vt 0.812542 0.497426
vt 0.812542 0.462069
vt 0.812542 0.007790
vt 0.974307 0.667778
vt 0.234868 0.966174
vt 0.732670 0.497426
vt 0.732670 0.462069
vt 0.732670 0.007790
vt 0.974307 0.613673
vt 0.306597 0.966174
vt 0.652027 0.497426
vt 0.652027 0.462069
vt 0.652027 0.007790
vt 0.974307 0.535879
vt 0.352038 0.966174
vt 0.570689 0.462069
vt 0.570689 0.497426
vt 0.570689 0.007790
vt 0.153484 0.868747
vt 0.090487 0.832376
vt 0.104291 0.818571
vt 0.158537 0.849890
vt 0.226227 0.868747
vt 0.221174 0.849890
vt 0.289224 0.832376
vt 0.275420 0.818572
vt 0.325595 0.769378
vt 0.306739 0.764326
vt 0.054116 0.769379
vt 0.072973 0.764326
vt 0.054116 0.696636
vt 0.072973 0.701689
vt 0.226227 0.597267
vt 0.289224 0.633639
vt 0.275420 0.647443
vt 0.221174 0.616124
vt 0.153484 0.597268
vt 0.158537 0.616124
vt 0.090487 0.633639
vt 0.104291 0.647443
vt 0.325595 0.696636
vt 0.306738 0.701688

# vertex normals
vn 0.494694 -0.145298 0.856835
vn 0.499335 -0.051560 0.864874
vn 0.000000 -0.051560 0.998670
vn 0.000000 -0.145298 0.989388
vn 0.499926 0.017195 0.865897
vn 0.000000 0.017195 0.999852
vn 0.498154 0.085851 0.862828
vn 0.000000 0.085851 0.996308
vn 0.000000 -0.051560 -0.998670
vn 0.499336 -0.051560 -0.864873
vn 0.494695 -0.145298 -0.856835
vn 0.000000 -0.145298 -0.989388
vn 0.000000 0.017195 -0.999852
vn 0.499927 0.017195 -0.865897
vn 0.000000 0.085851 -0.996308
vn 0.498155 0.085851 -0.862827
vn 0.864874 -0.051560 -0.499333
vn 0.856836 -0.145297 -0.494693
vn 0.865898 0.017195 -0.499925
vn 0.862829 0.085852 -0.498152
vn 0.998670 -0.051560 0.000001
vn 0.989388 -0.145297 0.000001
vn 0.999852 0.017195 0.000001
vn 0.996308 0.085851 0.000002
vn 0.856835 -0.145298 0.494695
vn 0.864873 -0.051560 0.499336
vn 0.865897 0.017195 0.499927
vn 0.862828 0.085851 0.498155
vn -0.494695 -0.145298 -0.856835
vn -0.499336 -0.051560 -0.864873
vn -0.499927 0.017195 -0.865897
vn -0.498155 0.085851 -0.862827
vn -0.499334 -0.051560 0.864874
vn -0.494694 -0.145298 0.856835
vn -0.499926 0.017195 0.865897
vn -0.498154 0.085851 0.862828
vn -0.864873 -0.051560 0.499336
vn -0.856835 -0.145298 0.494695
vn -0.865897 0.017195 0.499927
vn -0.862827 0.085851 0.498155
vn -0.998670 -0.051560 0.000001
vn -0.989388 -0.145297 0.000002
vn -0.999852 0.017195 0.000001
vn -0.996308 0.085851 0.000001
vn -0.856836 -0.145297 -0.494693
vn -0.864874 -0.051560 -0.499333
vn -0.865898 0.017195 -0.499925
vn -0.862829 0.085851 -0.498152
vn 0.000000 1.000000 0.000000
vn 0.024768 0.998772 -0.042901
vn 0.000000 0.998772 -0.049539
vn 0.042900 0.998772 -0.024768
vn 0.049537 0.998772 0.000000
vn 0.059913 -0.992795 -0.103773
vn 0.059912 -0.992795 -0.103774
vn 0.000000 -0.992794 -0.119833
vn 0.103770 -0.992795 -0.059911
vn 0.119828 -0.992795 0.000000
vn 0.119828 -0.992795 0.000001
vn 0.042901 0.998772 0.024769
vn 0.103776 -0.992794 0.059915
vn 0.103776 -0.992794 0.059914
vn -0.024770 0.998772 -0.042903
vn -0.059914 -0.992795 -0.103774
vn -0.059915 -0.992795 -0.103773
vn 0.024769 0.998772 0.042902
vn 0.059913 -0.992795 0.103770
vn 0.000000 0.998772 0.049539
vn 0.000000 -0.992795 0.119822
vn -0.024770 0.998772 0.042902
vn -0.059911 -0.992795 0.103771
vn -0.059912 -0.992795 0.103770
vn -0.042903 0.998772 0.024770
vn -0.049540 0.998772 0.000001
vn -0.103770 -0.992795 0.059912
vn -0.103770 -0.992795 0.059911
vn -0.119821 -0.992795 0.000000
vn -0.042903 0.998772 -0.024770
vn -0.103770 -0.992795 -0.059910
vn -0.103769 -0.992795 -0.059911
vn 0.000000 0.026013 -0.999662
vn -0.499831 0.026015 -0.865732
vn -0.499830 0.026015 -0.865733
vn 0.000000 -0.082900 -0.996558
vn -0.498280 -0.082898 -0.863044
vn 0.000000 0.173720 0.984795
vn 0.000000 0.135634 0.990759
vn 0.495379 0.135634 0.858023
vn 0.492397 0.173721 0.852858
vn 0.487997 -0.217797 0.845236
vn 0.000000 -0.217797 0.975994
vn -0.499831 0.026014 0.865732
vn -0.499832 0.026014 0.865732
vn 0.000000 0.026011 0.999662
vn -0.498279 -0.082895 0.863045
vn 0.000000 -0.082898 0.996558
vn 0.492398 0.173720 -0.852857
vn 0.495380 0.135634 -0.858022
vn 0.000000 0.135634 -0.990759
vn 0.000000 0.173721 -0.984795
vn 0.487998 -0.217797 -0.845235
vn 0.000000 -0.217797 -0.975994
vn -0.865734 0.026018 0.499828
vn -0.865733 0.026018 0.499830
vn -0.863045 -0.082894 0.498279
vn -0.863047 -0.082894 0.498276
vn 0.852858 0.173719 -0.492396
vn 0.858023 0.135634 -0.495378
vn 0.845236 -0.217797 -0.487996
vn -0.999661 0.026020 -0.000001
vn -0.999661 0.026020 -0.000001
vn -0.996558 -0.082898 -0.000002
vn -0.996558 -0.082898 -0.000001
vn 0.984795 0.173720 0.000002
vn 0.990759 0.135634 0.000002
vn 0.975994 -0.217797 0.000002
vn -0.865732 0.026020 -0.499831
vn -0.865732 0.026020 -0.499832
vn -0.863045 -0.082898 -0.498279
vn 0.858022 0.135634 0.495380
vn 0.852857 0.173721 0.492398
vn 0.845235 -0.217797 0.487998
vn 0.499831 0.026013 0.865732
vn 0.499832 0.026013 0.865732
vn 0.498280 -0.082895 0.863044
vn 0.498279 -0.082895 0.863045
vn -0.495380 0.135634 -0.858022
vn -0.492398 0.173720 -0.852857
vn -0.487998 -0.217797 -0.845235
vn 0.499830 0.026019 -0.865733
vn 0.499830 0.026019 -0.865732
vn 0.498280 -0.082898 -0.863044
vn 0.498278 -0.082898 -0.863045
vn -0.492397 0.173720 0.852858
vn -0.495379 0.135634 0.858023
vn -0.487997 -0.217797 0.845236
vn 0.865732 0.026024 -0.499831
vn 0.863044 -0.082899 -0.498279
vn 0.863044 -0.082899 -0.498280
vn -0.852857 0.173721 0.492398
vn -0.858022 0.135634 0.495380
vn -0.845235 -0.217797 0.487998
vn 0.999661 0.026020 -0.000001
vn 0.996558 -0.082899 -0.000001
vn -0.984795 0.173721 0.000001
vn -0.990759 0.135634 0.000001
vn -0.975994 -0.217796 0.000002
vn 0.865733 0.026016 0.499830
vn 0.865734 0.026016 0.499827
vn 0.863046 -0.082895 0.498277
vn 0.863045 -0.082895 0.498279
vn -0.858023 0.135634 -0.495378
vn -0.852858 0.173721 -0.492396
vn -0.845237 -0.217796 -0.487996
vn 0.000000 -1.000000 0.000000
vn 0.000000 -1.000000 -0.000001
vn 0.000000 -1.000000 0.000001

# Mesh
g polySurface2 Barrel_low
usemtl initialShadingGroup
f 1/1/1 2/2/2 3/3/3 4/4/4
f 2/2/2 5/5/5 6/6/6 3/3/3
f 5/5/5 7/7/7 8/8/8 6/6/6
f 10/10/10 11/11/11 12/12/12 9/9/9
f 14/14/14 10/10/10 9/9/9 13/13/13
f 16/16/16 14/14/14 13/13/13 15/15/15
f 17/17/17 18/18/18 11/11/11 10/10/10
f 19/19/19 17/17/17 10/10/10 14/14/14
f 20/20/20 19/19/19 14/14/14 16/16/16
f 21/21/21 22/22/22 18/18/18 17/17/17
f 23/23/23 21/21/21 17/17/17 19/19/19
f 24/24/24 23/23/23 19/19/19 20/20/20
f 25/25/25 26/26/26 2/27/2 1/28/1
f 26/26/26 27/29/27 5/30/5 2/27/2
f 27/29/27 28/31/28 7/32/7 5/30/5
f 22/22/22 21/21/21 26/26/26 25/25/25
f 21/21/21 23/23/23 27/29/27 26/26/26
f 23/23/23 24/24/24 28/31/28 27/29/27
f 9/9/9 12/12/12 29/33/29 30/34/30
f 13/13/13 9/9/9 30/34/30 31/35/31
f 15/15/15 13/13/13 31/35/31 32/36/32
f 4/4/4 3/3/3 33/37/33 34/38/34
f 3/3/3 6/6/6 35/39/35 33/37/33
f 6/6/6 8/8/8 36/40/36 35/39/35
f 34/38/34 33/37/33 37/41/37 38/42/38
f 33/37/33 35/39/35 39/43/39 37/41/37
f 35/39/35 36/40/36 40/44/40 39/43/39
f 38/42/38 37/41/37 41/45/41 42/46/42
f 37/41/37 39/43/39 43/47/43 41/45/41
f 39/43/39 40/44/40 44/48/44 43/47/43
f 30/34/30 29/33/29 45/49/45 46/50/46
f 31/35/31 30/34/30 46/50/46 47/51/47
f 32/36/32 31/35/31 47/51/47 48/52/48
f 46/50/46 45/49/45 42/46/42 41/45/41
f 47/51/47 46/50/46 41/45/41 43/47/43
f 48/52/48 47/51/47 43/47/43 44/48/44
f 51/55/49 52/56/49 49/53/49 50/54/49
f 53/57/49 54/58/49 55/59/49 56/60/49
f 57/61/49 58/62/49 54/58/49 53/57/49
f 60/64/49 58/62/49 57/61/49 59/63/49
f 61/65/49 62/66/49 52/56/49 51/55/49
f 61/65/49 60/64/49 59/63/49 62/66/49
f 56/60/49 55/59/49 63/67/49 64/68/49
f 50/54/49 49/53/49 65/69/49 66/70/49
f 66/70/49 65/69/49 67/71/49 68/72/49
f 67/71/49 69/73/49 70/74/49 68/72/49
f 64/68/49 63/67/49 71/75/49 72/76/49
f 69/73/49 72/76/49 71/75/49 70/74/49
f 56/60/49 64/68/49 72/76/49 69/73/49
f 73/77/50 74/78/50 75/79/51 76/80/51
f 77/81/52 78/82/52 74/78/50 73/77/50
f 79/83/53 80/84/53 78/82/52 77/81/52
f 81/85/54 82/86/55 83/87/56 84/88/56
f 85/89/57 86/90/57 82/86/55 81/85/54
f 87/91/58 88/92/59 86/90/57 85/89/57
f 80/84/53 79/83/53 89/93/60 90/94/60
f 88/92/59 87/91/58 91/95/61 92/96/62
f 76/80/51 75/79/51 93/97/63 94/98/63
f 84/88/56 83/87/56 95/99/64 96/100/65
f 90/94/60 89/93/60 97/101/66 98/102/66
f 92/96/62 91/95/61 99/103/67 100/104/67
f 98/105/66 97/106/66 101/107/68 102/108/68
f 100/109/67 99/110/67 103/111/69 104/112/69
f 102/108/68 101/107/68 105/113/70 106/114/70
f 104/112/69 103/111/69 107/115/71 108/116/72
f 106/114/70 105/113/70 109/117/73 110/118/73
f 110/118/73 109/117/73 111/119/74 112/120/74
f 108/116/72 107/115/71 113/121/75 114/122/76
f 114/122/76 113/121/75 115/123/77 116/124/77
f 117/125/78 118/126/78 112/120/74 111/119/74
f 119/127/79 120/128/80 116/124/77 115/123/77
f 94/98/63 93/97/63 118/126/78 117/125/78
f 96/100/65 95/99/64 120/128/80 119/127/79
f 97/106/82 51/130/83 50/129/81 101/107/81
f 122/132/85 100/109/85 104/112/84 121/131/84
f 124/135/88 98/136/89 102/133/86 123/134/87
f 99/137/90 1/1/1 4/4/4 103/138/91
f 54/139/92 73/77/93 76/80/94 55/140/94
f 82/86/95 125/141/95 126/142/96 83/87/96
f 74/143/97 127/144/98 128/145/99 75/146/100
f 11/11/11 81/147/101 84/148/102 12/12/12
f 58/149/103 77/81/104 73/77/93 54/139/92
f 86/90/105 129/150/106 125/141/95 82/86/95
f 78/151/107 130/152/108 127/144/98 74/143/97
f 18/18/18 85/153/109 81/147/101 11/11/11
f 60/154/110 79/83/111 77/81/104 58/149/103
f 88/92/112 131/155/113 129/150/106 86/90/105
f 80/156/114 132/157/115 130/152/108 78/151/107
f 22/22/22 87/158/116 85/153/109 18/18/18
f 89/93/117 61/160/118 51/159/83 97/101/82
f 133/162/119 92/96/119 100/104/85 122/161/85
f 134/165/120 90/166/121 98/163/89 124/164/88
f 91/167/122 25/25/25 1/28/1 99/168/90
f 79/83/111 60/154/110 61/160/118 89/93/117
f 131/155/113 88/92/112 92/96/119 133/162/119
f 132/157/115 80/156/114 90/166/121 134/165/120
f 87/158/116 22/22/22 25/25/25 91/167/122
f 55/140/94 76/80/94 94/98/123 63/169/124
f 83/87/96 126/142/96 135/170/125 95/99/126
f 75/146/100 128/145/99 136/171/127 93/172/128
f 12/12/12 84/148/102 96/173/129 29/33/29
f 101/107/81 50/129/81 66/174/130 105/113/131
f 121/131/84 104/112/84 108/116/132 137/175/133
f 123/134/87 102/133/86 106/176/134 138/177/135
f 103/138/91 4/4/4 34/38/34 107/178/136
f 105/113/131 66/174/130 68/179/137 109/117/137
f 137/175/133 108/116/132 114/122/138 139/180/139
f 138/177/135 106/176/134 110/181/140 140/182/141
f 107/178/136 34/38/34 38/42/38 113/183/142
f 109/117/137 68/179/137 70/184/143 111/119/143
f 139/180/139 114/122/138 116/124/144 141/185/144
f 140/182/141 110/181/140 112/186/145 142/187/146
f 113/183/142 38/42/38 42/46/42 115/188/147
f 63/169/124 94/98/123 117/125/148 71/189/149
f 95/99/126 135/170/125 143/190/150 120/128/151
f 93/172/128 136/171/127 144/191/152 118/192/153
f 29/33/29 96/173/129 119/193/154 45/49/45
f 71/189/149 117/125/148 111/119/143 70/184/143
f 120/128/151 143/190/150 141/185/144 116/124/144
f 118/192/153 144/191/152 142/187/146 112/186/145
f 45/49/45 119/193/154 115/188/147 42/46/42
f 146/197/155 131/194/155 133/195/155 145/196/155
f 131/194/155 146/197/155 147/199/155 129/198/155
f 129/198/155 147/199/155 148/201/155 125/200/155
f 125/200/155 148/201/155 149/203/155 126/202/155
f 145/196/155 133/195/155 122/204/155 150/205/155
f 150/205/155 122/204/155 121/206/156 151/207/155
f 143/209/155 152/210/156 153/211/155 141/208/155
f 154/213/155 139/212/155 141/208/155 153/211/155
f 155/215/155 137/214/156 139/212/155 154/213/155
f 151/207/155 121/206/156 137/214/156 155/215/155
f 135/216/157 156/217/155 152/210/156 143/209/155
f 126/202/155 149/203/155 156/217/155 135/216/157
f 156/217/155 149/203/155 153/211/155 152/210/156
f 53/57/49 56/60/49 69/73/49 67/71/49
f 57/61/49 53/57/49 67/71/49 65/69/49
f 59/63/49 57/61/49 65/69/49 49/53/49
f 62/66/49 59/63/49 49/53/49 52/56/49
f 148/201/155 147/199/155 155/215/155 154/213/155
f 147/199/155 146/197/155 151/207/155 155/215/155
f 149/203/155 148/201/155 154/213/155 153/211/155
f 146/197/155 145/196/155 150/205/155 151/207/155
f 136/171/127 32/36/32 48/52/48 144/191/152
f 128/145/99 15/15/15 32/36/32 136/171/127
f 144/191/152 48/52/48 44/48/44 142/187/146
f 40/44/40 140/182/141 142/187/146 44/48/44
f 36/40/36 138/177/135 140/182/141 40/44/40
f 8/8/8 123/134/87 138/177/135 36/40/36
f 7/7/7 124/135/88 123/134/87 8/8/8
f 28/31/28 134/165/120 124/164/88 7/32/7
f 24/24/24 132/157/115 134/165/120 28/31/28
f 132/157/115 24/24/24 20/20/20 130/152/108
f 130/152/108 20/20/20 16/16/16 127/144/98
f 127/144/98 16/16/16 15/15/15 128/145/99
