# This file uses centimeters as units for non-parametric coordinates.

mtllib Rock_Three_Fixed.mtl
g default
v -0.047736 0.072665 0.092639
v -0.104792 0.069929 -0.058115
v -0.095770 -0.087332 -0.047537
v -0.028404 -0.083666 0.087794
v 0.036004 0.066591 -0.095111
v 0.037293 -0.083501 -0.079611
v 0.089441 0.070422 0.043998
v 0.077855 -0.068352 0.041804
v -0.117372 -0.056814 -0.061637
v -0.040675 -0.053765 0.105717
v 0.093762 -0.042470 0.052601
v 0.045652 -0.051098 -0.100243
v -0.110649 0.043977 -0.083294
v -0.054722 0.041682 0.105691
v 0.102601 0.037544 0.053499
v 0.041161 0.034193 -0.106581
v -0.096963 0.088177 -0.029938
v -0.120089 0.050901 -0.029153
v -0.119375 -0.053850 -0.016972
v -0.088157 -0.089279 -0.017415
v 0.051185 -0.090308 -0.052758
v 0.077183 -0.055472 -0.072238
v 0.079866 0.041106 -0.081411
v 0.057170 0.077680 -0.073662
v -0.064641 0.087409 0.063384
v -0.086696 0.047376 0.073199
v -0.079336 -0.056226 0.076825
v -0.048972 -0.091789 0.061508
v 0.074221 -0.080669 0.014119
v 0.102480 -0.052637 0.010024
v 0.112597 0.044834 0.003921
v 0.085001 0.089498 0.005053
v 0.007057 0.075075 -0.095273
v 0.002506 0.039656 -0.115833
v 0.005618 -0.059457 -0.111055
v 0.006582 -0.094988 -0.080371
v 0.019982 -0.104877 -0.047467
v 0.048419 -0.094892 0.023797
v 0.059989 -0.076734 0.056290
v 0.072680 -0.045119 0.079532
v 0.075487 0.044499 0.086616
v 0.064218 0.080686 0.067151
v 0.060958 0.102880 0.020281
v 0.022951 0.098559 -0.065153
v -0.076661 0.081046 -0.076548
v -0.084448 0.047178 -0.102415
v -0.091497 -0.064913 -0.091959
v -0.071638 -0.097698 -0.061649
v -0.057646 -0.108984 -0.027010
v -0.015806 -0.105509 0.050342
v -0.001711 -0.086322 0.084341
v -0.001509 -0.051289 0.109660
v -0.020203 0.044443 0.118633
v -0.017644 0.083711 0.097388
v -0.024371 0.106866 0.053619
v -0.061193 0.103270 -0.040179
vt 0.334829 0.324126
vt 0.280770 0.345371
vt 0.278611 0.279127
vt 0.344547 0.271635
vt 0.050115 0.364988
vt 0.000271 0.298606
vt 0.044987 0.283399
vt 0.084485 0.322923
vt 0.079607 0.680127
vt 0.149850 0.695288
vt 0.147714 0.770102
vt 0.088067 0.736806
vt 0.400352 0.278297
vt 0.369926 0.355113
vt 0.298785 0.409847
vt 0.284298 0.059249
vt 0.298271 0.005584
vt 0.364947 0.041058
vt 0.337256 0.068246
vt 0.349581 0.123339
vt 0.282061 0.128493
vt 0.405222 0.109166
vt 0.170074 0.500827
vt 0.161203 0.555793
vt 0.098325 0.557447
vt 0.121210 0.511287
vt 0.097288 0.073908
vt 0.074152 0.129479
vt 0.017159 0.105653
vt 0.077505 0.034335
vt 0.123693 0.286815
vt 0.130107 0.349831
vt 0.137509 0.134331
vt 0.146160 0.065647
vt 0.145593 0.009338
vt 0.330876 0.516862
vt 0.344522 0.576674
vt 0.284619 0.568551
vt 0.283588 0.500745
vt 0.343764 0.709586
vt 0.279000 0.707052
vt 0.277504 0.767238
vt 0.326661 0.761829
vt 0.124812 0.409597
vt 0.398665 0.731472
vt 0.356213 0.793730
vt 0.406511 0.559288
vt 0.364524 0.483270
vt 0.303433 0.453295
vt 0.166852 0.453490
vt 0.100993 0.481801
vt 0.049273 0.537548
vt 0.017149 0.690591
vt 0.043715 0.763466
vt 0.126269 0.811020
vt 0.288126 0.828557
vt 0.761209 0.959023
vt 0.679641 0.959023
vt 0.679641 0.853844
vt 0.761209 0.853844
vt 0.964739 0.853844
vt 0.964739 0.959023
vt 0.475198 0.348011
vt 0.475198 0.451443
vt 0.388827 0.451443
vt 0.388827 0.348011
vt 0.542841 0.348011
vt 0.542841 0.451443
vt 0.684988 0.348011
vt 0.684988 0.451443
vt 0.754723 0.451443
vt 0.754723 0.348011
vt 0.827321 0.348011
vt 0.827321 0.451443
vt 0.990898 0.348011
vt 0.990897 0.451443
vt 0.311046 0.959023
vt 0.227514 0.959023
vt 0.227514 0.853844
vt 0.311046 0.853844
vt 0.408890 0.959023
vt 0.408890 0.853844
vt 0.596127 0.853844
vt 0.596127 0.959023
vn -0.440874 0.593708 0.673157
vn -0.601757 0.735346 0.311697
vn -0.880451 0.128212 0.456473
vn -0.506907 0.052904 0.860376
vn -0.224294 0.734691 -0.640251
vn -0.306888 0.115552 -0.944705
vn -0.886162 0.092181 -0.454114
vn -0.708089 0.626470 -0.325799
vn 0.915465 0.061127 0.397729
vn 0.977818 0.109596 -0.178494
vn 0.684674 0.709191 -0.168135
vn 0.759153 0.563148 0.326420
vn -0.506907 0.052904 0.860376
vn 0.156157 0.106132 0.982014
vn 0.126096 0.716382 0.686219
vn -0.440874 0.593708 0.673157
vn 0.126096 0.716382 0.686219
vn -0.036645 0.987203 0.155200
vn -0.601757 0.735346 0.311697
vn -0.440874 0.593708 0.673157
vn -0.521702 -0.778700 0.348503
vn 0.019233 -0.982133 0.187203
vn 0.246462 -0.751742 0.611671
vn -0.235528 -0.702509 0.671571
vn -0.438796 -0.213626 0.872824
vn -0.848668 -0.215510 0.483030
vn -0.521702 -0.778700 0.348503
vn -0.235528 -0.702509 0.671571
vn 0.246462 -0.751742 0.611671
vn 0.222234 -0.197348 0.954812
vn -0.438796 -0.213626 0.872824
vn -0.235528 -0.702509 0.671571
vn 0.636996 -0.770193 -0.032228
vn 0.955941 -0.255063 -0.145329
vn 0.895850 -0.197693 0.397957
vn 0.668525 -0.669755 0.323269
vn -0.672005 -0.728824 -0.131243
vn -0.920566 -0.168623 -0.352314
vn -0.333838 -0.261927 -0.905509
vn -0.212570 -0.831874 -0.512640
vn -0.438796 -0.213626 0.872824
vn -0.506907 0.052904 0.860376
vn -0.880451 0.128212 0.456473
vn -0.848668 -0.215510 0.483030
vn 0.222234 -0.197348 0.954812
vn 0.156157 0.106132 0.982014
vn -0.506907 0.052904 0.860376
vn -0.438796 -0.213626 0.872824
vn 0.955941 -0.255063 -0.145329
vn 0.977818 0.109596 -0.178494
vn 0.915465 0.061127 0.397729
vn 0.895850 -0.197693 0.397957
vn -0.920566 -0.168623 -0.352314
vn -0.886162 0.092181 -0.454114
vn -0.306888 0.115552 -0.944705
vn -0.333838 -0.261927 -0.905509
vn -0.970042 0.141121 0.197745
vn -0.660298 0.741758 0.117476
vn -0.708089 0.626470 -0.325799
vn -0.886162 0.092181 -0.454114
vn -0.970042 0.141121 0.197745
vn -0.886162 0.092181 -0.454114
vn -0.920566 -0.168623 -0.352314
vn -0.958727 -0.166616 0.230394
vn -0.614400 -0.758674 0.216626
vn -0.958727 -0.166616 0.230394
vn -0.920566 -0.168623 -0.352314
vn -0.672005 -0.728824 -0.131243
vn -0.212570 -0.831874 -0.512640
vn -0.113521 -0.993535 -0.000495
vn -0.614400 -0.758674 0.216626
vn -0.672005 -0.728824 -0.131243
vn 0.402981 -0.685543 -0.606331
vn 0.452247 -0.191765 -0.871033
vn 0.856828 -0.247725 -0.452193
vn 0.577219 -0.786223 -0.220619
vn 0.452247 -0.191765 -0.871033
vn 0.425317 0.052542 -0.903518
vn 0.862249 0.106369 -0.495189
vn 0.856828 -0.247725 -0.452193
vn 0.601479 0.673965 -0.428945
vn 0.862249 0.106369 -0.495189
vn 0.425317 0.052542 -0.903518
vn 0.327522 0.522438 -0.787266
vn -0.708089 0.626470 -0.325799
vn -0.660298 0.741758 0.117476
vn -0.141107 0.979926 -0.140835
vn -0.224294 0.734691 -0.640251
vn -0.880451 0.128212 0.456473
vn -0.601757 0.735346 0.311697
vn -0.660298 0.741758 0.117476
vn -0.970042 0.141121 0.197745
vn -0.880451 0.128212 0.456473
vn -0.970042 0.141121 0.197745
vn -0.958727 -0.166616 0.230394
vn -0.848668 -0.215510 0.483030
vn -0.521702 -0.778700 0.348503
vn -0.848668 -0.215510 0.483030
vn -0.958727 -0.166616 0.230394
vn -0.614400 -0.758674 0.216626
vn -0.113521 -0.993535 -0.000495
vn 0.019233 -0.982133 0.187203
vn -0.521702 -0.778700 0.348503
vn -0.614400 -0.758674 0.216626
vn 0.856828 -0.247725 -0.452193
vn 0.955941 -0.255063 -0.145329
vn 0.636996 -0.770193 -0.032228
vn 0.577219 -0.786223 -0.220619
vn 0.856828 -0.247725 -0.452193
vn 0.862249 0.106369 -0.495189
vn 0.977818 0.109596 -0.178494
vn 0.955941 -0.255063 -0.145329
vn 0.684674 0.709191 -0.168135
vn 0.977818 0.109596 -0.178494
vn 0.862249 0.106369 -0.495189
vn 0.601479 0.673965 -0.428945
vn -0.660298 0.741758 0.117476
vn -0.601757 0.735346 0.311697
vn -0.036645 0.987203 0.155200
vn -0.141107 0.979926 -0.140835
vn 0.425317 0.052542 -0.903518
vn -0.065101 0.093558 -0.993483
vn -0.026333 0.697639 -0.715965
vn 0.327522 0.522438 -0.787266
vn -0.065101 0.093558 -0.993483
vn 0.425317 0.052542 -0.903518
vn 0.452247 -0.191765 -0.871033
vn -0.053947 -0.246486 -0.967644
vn 0.001718 -0.813504 -0.581557
vn -0.053947 -0.246486 -0.967644
vn 0.452247 -0.191765 -0.871033
vn 0.402981 -0.685543 -0.606331
vn 0.402981 -0.685543 -0.606331
vn 0.577219 -0.786223 -0.220619
vn 0.159558 -0.983081 -0.089962
vn 0.001718 -0.813504 -0.581557
vn 0.577219 -0.786223 -0.220619
vn 0.636996 -0.770193 -0.032228
vn 0.262102 -0.957922 0.116992
vn 0.159558 -0.983081 -0.089962
vn 0.415469 -0.737167 0.532888
vn 0.262102 -0.957922 0.116992
vn 0.636996 -0.770193 -0.032228
vn 0.668525 -0.669755 0.323269
vn 0.668525 -0.669755 0.323269
vn 0.895850 -0.197693 0.397957
vn 0.482035 -0.197897 0.853510
vn 0.415469 -0.737167 0.532888
vn 0.895850 -0.197693 0.397957
vn 0.915465 0.061127 0.397729
vn 0.470473 0.118883 0.874370
vn 0.482035 -0.197897 0.853510
vn 0.350226 0.717026 0.602674
vn 0.470473 0.118883 0.874370
vn 0.915465 0.061127 0.397729
vn 0.759153 0.563148 0.326420
vn 0.684674 0.709191 -0.168135
vn 0.201974 0.977779 0.056165
vn 0.350226 0.717026 0.602674
vn 0.759153 0.563148 0.326420
vn 0.201974 0.977779 0.056165
vn 0.684674 0.709191 -0.168135
vn 0.601479 0.673965 -0.428945
vn 0.092048 0.966696 -0.238802
vn -0.026333 0.697639 -0.715965
vn 0.092048 0.966696 -0.238802
vn 0.601479 0.673965 -0.428945
vn 0.327522 0.522438 -0.787266
vn -0.306888 0.115552 -0.944705
vn -0.224294 0.734691 -0.640251
vn -0.026333 0.697639 -0.715965
vn -0.065101 0.093558 -0.993483
vn -0.306888 0.115552 -0.944705
vn -0.065101 0.093558 -0.993483
vn -0.053947 -0.246486 -0.967644
vn -0.333838 -0.261927 -0.905509
vn 0.001718 -0.813504 -0.581557
vn -0.212570 -0.831874 -0.512640
vn -0.333838 -0.261927 -0.905509
vn -0.053947 -0.246486 -0.967644
vn 0.159558 -0.983081 -0.089962
vn -0.113521 -0.993535 -0.000495
vn -0.212570 -0.831874 -0.512640
vn 0.001718 -0.813504 -0.581557
vn 0.159558 -0.983081 -0.089962
vn 0.262102 -0.957922 0.116992
vn 0.019233 -0.982133 0.187203
vn -0.113521 -0.993535 -0.000495
vn 0.246462 -0.751742 0.611671
vn 0.019233 -0.982133 0.187203
vn 0.262102 -0.957922 0.116992
vn 0.415469 -0.737167 0.532888
vn 0.482035 -0.197897 0.853510
vn 0.222234 -0.197348 0.954812
vn 0.246462 -0.751742 0.611671
vn 0.415469 -0.737167 0.532888
vn 0.482035 -0.197897 0.853510
vn 0.470473 0.118883 0.874370
vn 0.156157 0.106132 0.982014
vn 0.222234 -0.197348 0.954812
vn 0.126096 0.716382 0.686219
vn 0.156157 0.106132 0.982014
vn 0.470473 0.118883 0.874370
vn 0.350226 0.717026 0.602674
vn -0.036645 0.987203 0.155200
vn 0.126096 0.716382 0.686219
vn 0.350226 0.717026 0.602674
vn 0.201974 0.977779 0.056165
vn -0.036645 0.987203 0.155200
vn 0.201974 0.977779 0.056165
vn 0.092048 0.966696 -0.238802
vn -0.141107 0.979926 -0.140835
vn -0.026333 0.697639 -0.715965
vn -0.224294 0.734691 -0.640251
vn -0.141107 0.979926 -0.140835
vn 0.092048 0.966696 -0.238802
s off
g Rock_Three
usemtl initialShadingGroup
f 1/1/1 25/2/2 26/3/3 14/4/4
f 45/5/5 46/6/6 13/7/7 2/8/8
f 15/9/9 31/10/10 32/11/11 7/12/12
f 14/4/13 53/13/14 54/14/15 1/1/16
f 54/14/17 55/15/18 25/2/19 1/1/20
f 28/16/21 50/17/22 51/18/23 4/19/24
f 10/20/25 27/21/26 28/16/27 4/19/28
f 51/18/29 52/22/30 10/20/31 4/19/32
f 29/23/33 30/24/34 11/25/35 8/26/36
f 3/27/37 9/28/38 47/29/39 48/30/40
f 10/20/41 14/4/42 26/3/43 27/21/44
f 52/22/45 53/13/46 14/4/47 10/20/48
f 30/24/49 31/10/50 15/9/51 11/25/52
f 9/28/53 13/7/54 46/6/55 47/29/56
f 18/31/57 17/32/58 2/8/59 13/7/60
f 18/31/61 13/7/62 9/28/63 19/33/64
f 20/34/65 19/33/66 9/28/67 3/27/68
f 48/30/69 49/35/70 20/34/71 3/27/72
f 6/36/73 12/37/74 22/38/75 21/39/76
f 12/37/77 16/40/78 23/41/79 22/38/80
f 24/42/81 23/41/82 16/40/83 5/43/84
f 2/8/85 17/32/86 56/44/87 45/5/88
f 26/3/89 25/2/90 17/32/91 18/31/92
f 26/3/93 18/31/94 19/33/95 27/21/96
f 28/16/97 27/21/98 19/33/99 20/34/100
f 49/35/101 50/17/102 28/16/103 20/34/104
f 22/38/105 30/24/106 29/23/107 21/39/108
f 22/38/109 23/41/110 31/10/111 30/24/112
f 32/11/113 31/10/114 23/41/115 24/42/116
f 17/32/117 25/2/118 55/15/119 56/44/120
f 16/40/121 34/45/122 33/46/123 5/43/124
f 34/45/125 16/40/126 12/37/127 35/47/128
f 36/48/129 35/47/130 12/37/131 6/36/132
f 6/36/133 21/39/134 37/49/135 36/48/136
f 21/39/137 29/23/138 38/50/139 37/49/140
f 39/51/141 38/50/142 29/23/143 8/26/144
f 8/26/145 11/25/146 40/52/147 39/51/148
f 11/25/149 15/9/150 41/53/151 40/52/152
f 42/54/153 41/53/154 15/9/155 7/12/156
f 32/11/157 43/55/158 42/54/159 7/12/160
f 43/55/161 32/11/162 24/42/163 44/56/164
f 33/46/165 44/56/166 24/42/167 5/43/168
f 46/57/169 45/58/170 33/59/171 34/60/172
f 46/57/173 34/60/174 35/61/175 47/62/176
f 36/63/177 48/64/178 47/65/179 35/66/180
f 37/67/181 49/68/182 48/64/183 36/63/184
f 37/67/185 38/69/186 50/70/187 49/68/188
f 51/71/189 50/70/190 38/69/191 39/72/192
f 40/73/193 52/74/194 51/71/195 39/72/196
f 40/73/197 41/75/198 53/76/199 52/74/200
f 54/77/201 53/78/202 41/79/203 42/80/204
f 55/81/205 54/77/206 42/80/207 43/82/208
f 55/81/209 43/82/210 44/83/211 56/84/212
f 33/59/213 45/58/214 56/84/215 44/83/216
