# File produced by Open Asset Import Library (http://www.assimp.sf.net)
# (assimp v3.1.95221606)

mtllib LatticeTestMesh.mtl

# vertex positions
v 0.000000 0.000267 -0.500000
v 0.000000 0.000267 0.500000
v 0.000000 1.000267 0.500000
v 0.000000 1.000267 -0.500000

# UV coordinates
vt 0.000000 0.000000
vt 1.000000 0.000000
vt 1.000000 1.000000
vt 0.000000 1.000000

# vertex normals
vn -1.000000 0.000000 0.000000

# Mesh
g GrassTest:GrassPlate
usemtl initialShadingGroup
f 4/4/1 1/1/1 2/2/1
f 2/2/1 3/3/1 4/4/1
