# File produced by Open Asset Import Library (http://www.assimp.sf.net)
# (assimp v3.1.95221606)

mtllib FlameBall.mtl

# vertex positions
v 0.250000 -0.951057 -0.181636
v 0.095491 -0.951057 -0.293893
v 0.181636 -0.809017 -0.559017
v 0.475528 -0.809017 -0.345492
v -0.095492 -0.951057 -0.293893
v -0.181636 -0.809017 -0.559017
v -0.250000 -0.951057 -0.181636
v -0.475528 -0.809017 -0.345491
v -0.309017 -0.951057 0.000000
v -0.587785 -0.809017 0.000000
v -0.250000 -0.951057 0.181636
v -0.475528 -0.809017 0.345492
v -0.095491 -0.951057 0.293893
v -0.181636 -0.809017 0.559017
v 0.095492 -0.951057 0.293893
v 0.181636 -0.809017 0.559017
v 0.250000 -0.951057 0.181636
v 0.475528 -0.809017 0.345491
v 0.309017 -0.951057 0.000000
v 0.587785 -0.809017 0.000000
v 0.250000 -0.587785 -0.769421
v 0.654509 -0.587785 -0.475528
v -0.250000 -0.587785 -0.769421
v -0.654509 -0.587785 -0.475528
v -0.809017 -0.587785 0.000000
v -0.654509 -0.587785 0.475528
v -0.250000 -0.587785 0.769421
v 0.250000 -0.587785 0.769421
v 0.654509 -0.587785 0.475528
v 0.809017 -0.587785 0.000000
v 0.293893 -0.309017 -0.904509
v 0.769421 -0.309017 -0.559017
v -0.293893 -0.309017 -0.904509
v -0.769421 -0.309017 -0.559017
v -0.951057 -0.309017 0.000000
v -0.769421 -0.309017 0.559017
v -0.293893 -0.309017 0.904509
v 0.293893 -0.309017 0.904509
v 0.769421 -0.309017 0.559017
v 0.951057 -0.309017 0.000000
v 0.309017 0.000000 -0.951057
v 0.809017 0.000000 -0.587785
v -0.309017 0.000000 -0.951057
v -0.809017 0.000000 -0.587785
v -1.000000 0.000000 0.000000
v -0.809017 0.000000 0.587785
v -0.309017 0.000000 0.951057
v 0.309017 0.000000 0.951057
v 0.809017 0.000000 0.587785
v 1.000000 0.000000 0.000000
v 0.293893 0.309017 -0.904509
v 0.769421 0.309017 -0.559017
v -0.293893 0.309017 -0.904509
v -0.769421 0.309017 -0.559017
v -0.951057 0.309017 0.000000
v -0.769421 0.309017 0.559017
v -0.293893 0.309017 0.904509
v 0.293893 0.309017 0.904509
v 0.769421 0.309017 0.559017
v 0.951057 0.309017 0.000000
v 0.250000 0.587785 -0.769421
v 0.654509 0.587785 -0.475528
v -0.250000 0.587785 -0.769421
v -0.654509 0.587785 -0.475528
v -0.809017 0.587785 0.000000
v -0.654509 0.587785 0.475528
v -0.250000 0.587785 0.769421
v 0.250000 0.587785 0.769421
v 0.654509 0.587785 0.475528
v 0.809017 0.587785 0.000000
v 0.181636 0.809017 -0.559017
v 0.475528 0.809017 -0.345492
v -0.181636 0.809017 -0.559017
v -0.475528 0.809017 -0.345491
v -0.587785 0.809017 0.000000
v -0.475528 0.809017 0.345492
v -0.181636 0.809017 0.559017
v 0.181636 0.809017 0.559017
v 0.475528 0.809017 0.345491
v 0.587785 0.809017 0.000000
v 0.095491 0.951057 -0.293893
v 0.250000 0.951057 -0.181636
v -0.095492 0.951057 -0.293893
v -0.250000 0.951057 -0.181636
v -0.309017 0.951057 0.000000
v -0.250000 0.951057 0.181636
v -0.095491 0.951057 0.293893
v 0.095492 0.951057 0.293893
v 0.250000 0.951057 0.181636
v 0.309017 0.951057 0.000000
v 0.000000 -1.000000 0.000000
v 0.000000 1.000000 0.000000

# UV coordinates
vt 0.000000 0.100000
vt 0.100000 0.100000
vt 0.100000 0.200000
vt 0.000000 0.200000
vt 0.200000 0.100000
vt 0.200000 0.200000
vt 0.300000 0.100000
vt 0.300000 0.200000
vt 0.400000 0.100000
vt 0.400000 0.200000
vt 0.500000 0.100000
vt 0.500000 0.200000
vt 0.600000 0.100000
vt 0.600000 0.200000
vt 0.700000 0.100000
vt 0.700000 0.200000
vt 0.800000 0.100000
vt 0.800000 0.200000
vt 0.900000 0.100000
vt 0.900000 0.200000
vt 1.000000 0.100000
vt 1.000000 0.200000
vt 0.100000 0.300000
vt 0.000000 0.300000
vt 0.200000 0.300000
vt 0.300000 0.300000
vt 0.400000 0.300000
vt 0.500000 0.300000
vt 0.600000 0.300000
vt 0.700000 0.300000
vt 0.800000 0.300000
vt 0.900000 0.300000
vt 1.000000 0.300000
vt 0.100000 0.400000
vt 0.000000 0.400000
vt 0.200000 0.400000
vt 0.300000 0.400000
vt 0.400000 0.400000
vt 0.500000 0.400000
vt 0.600000 0.400000
vt 0.700000 0.400000
vt 0.800000 0.400000
vt 0.900000 0.400000
vt 1.000000 0.400000
vt 0.100000 0.500000
vt 0.000000 0.500000
vt 0.200000 0.500000
vt 0.300000 0.500000
vt 0.400000 0.500000
vt 0.500000 0.500000
vt 0.600000 0.500000
vt 0.700000 0.500000
vt 0.800000 0.500000
vt 0.900000 0.500000
vt 1.000000 0.500000
vt 0.100000 0.600000
vt 0.000000 0.600000
vt 0.200000 0.600000
vt 0.300000 0.600000
vt 0.400000 0.600000
vt 0.500000 0.600000
vt 0.600000 0.600000
vt 0.700000 0.600000
vt 0.800000 0.600000
vt 0.900000 0.600000
vt 1.000000 0.600000
vt 0.100000 0.700000
vt 0.000000 0.700000
vt 0.200000 0.700000
vt 0.300000 0.700000
vt 0.400000 0.700000
vt 0.500000 0.700000
vt 0.600000 0.700000
vt 0.700000 0.700000
vt 0.800000 0.700000
vt 0.900000 0.700000
vt 1.000000 0.700000
vt 0.100000 0.800000
vt 0.000000 0.800000
vt 0.200000 0.800000
vt 0.300000 0.800000
vt 0.400000 0.800000
vt 0.500000 0.800000
vt 0.600000 0.800000
vt 0.700000 0.800000
vt 0.800000 0.800000
vt 0.900000 0.800000
vt 1.000000 0.800000
vt 0.100000 0.900000
vt 0.000000 0.900000
vt 0.200000 0.900000
vt 0.300000 0.900000
vt 0.400000 0.900000
vt 0.500000 0.900000
vt 0.600000 0.900000
vt 0.700000 0.900000
vt 0.800000 0.900000
vt 0.900000 0.900000
vt 1.000000 0.900000
vt 0.050000 0.000000
vt 0.150000 0.000000
vt 0.250000 0.000000
vt 0.350000 0.000000
vt 0.450000 0.000000
vt 0.550000 0.000000
vt 0.650000 0.000000
vt 0.750000 0.000000
vt 0.850000 0.000000
vt 0.950000 0.000000
vt 0.050000 1.000000
vt 0.150000 1.000000
vt 0.250000 1.000000
vt 0.350000 1.000000
vt 0.450000 1.000000
vt 0.550000 1.000000
vt 0.650000 1.000000
vt 0.750000 1.000000
vt 0.850000 1.000000
vt 0.950000 1.000000

# vertex normals
vn 0.323957 -0.916326 -0.235368
vn 0.123740 -0.916326 -0.380834
vn 0.195836 -0.773548 -0.602721
vn 0.512705 -0.773548 -0.372502
vn -0.123740 -0.916326 -0.380834
vn -0.195836 -0.773548 -0.602721
vn -0.323957 -0.916326 -0.235368
vn -0.512705 -0.773548 -0.372502
vn -0.400432 -0.916326 0.000000
vn -0.633738 -0.773548 0.000000
vn -0.323957 -0.916326 0.235368
vn -0.512705 -0.773548 0.372502
vn -0.123740 -0.916326 0.380834
vn -0.195836 -0.773548 0.602721
vn 0.123740 -0.916326 0.380834
vn 0.195836 -0.773548 0.602721
vn 0.323957 -0.916326 0.235368
vn 0.512705 -0.773548 0.372502
vn 0.400432 -0.916326 -0.000000
vn 0.633738 -0.773548 -0.000000
vn 0.256443 -0.557962 -0.789250
vn 0.671376 -0.557962 -0.487783
vn -0.256443 -0.557962 -0.789250
vn -0.671376 -0.557962 -0.487783
vn -0.829866 -0.557962 0.000000
vn -0.671376 -0.557962 0.487783
vn -0.256443 -0.557962 0.789250
vn 0.256443 -0.557962 0.789250
vn 0.671376 -0.557962 0.487783
vn 0.829866 -0.557962 0.000000
vn 0.295556 -0.291930 -0.909628
vn 0.773776 -0.291930 -0.562181
vn -0.295556 -0.291930 -0.909628
vn -0.773776 -0.291930 -0.562181
vn -0.956440 -0.291930 0.000000
vn -0.773776 -0.291930 0.562181
vn -0.295556 -0.291930 0.909628
vn 0.295556 -0.291930 0.909628
vn 0.773776 -0.291930 0.562181
vn 0.956440 -0.291930 0.000000
vn 0.309017 0.000000 -0.951057
vn 0.809017 0.000000 -0.587785
vn -0.309017 0.000000 -0.951057
vn -0.809017 0.000000 -0.587785
vn -1.000000 0.000000 0.000000
vn -0.809017 0.000000 0.587785
vn -0.309017 0.000000 0.951057
vn 0.309017 -0.000000 0.951056
vn 0.809017 0.000000 0.587785
vn 1.000000 0.000000 0.000000
vn 0.295556 0.291930 -0.909628
vn 0.773776 0.291930 -0.562181
vn -0.295556 0.291930 -0.909628
vn -0.773776 0.291930 -0.562181
vn -0.956440 0.291930 0.000000
vn -0.773776 0.291930 0.562181
vn -0.295556 0.291930 0.909628
vn 0.295556 0.291930 0.909628
vn 0.773776 0.291930 0.562181
vn 0.956440 0.291930 0.000000
vn 0.256443 0.557962 -0.789250
vn 0.671376 0.557962 -0.487783
vn -0.256443 0.557962 -0.789250
vn -0.671376 0.557962 -0.487783
vn -0.829866 0.557962 0.000000
vn -0.671376 0.557962 0.487783
vn -0.256443 0.557962 0.789250
vn 0.256443 0.557962 0.789250
vn 0.671376 0.557962 0.487783
vn 0.829866 0.557962 0.000000
vn 0.195836 0.773548 -0.602721
vn 0.512705 0.773548 -0.372502
vn -0.195836 0.773548 -0.602721
vn -0.512705 0.773548 -0.372502
vn -0.633738 0.773548 0.000000
vn -0.512705 0.773548 0.372502
vn -0.195836 0.773548 0.602721
vn 0.195836 0.773548 0.602721
vn 0.512705 0.773548 0.372502
vn 0.633738 0.773548 0.000000
vn 0.123740 0.916326 -0.380834
vn 0.323957 0.916326 -0.235368
vn -0.123740 0.916326 -0.380834
vn -0.323957 0.916326 -0.235368
vn -0.400432 0.916326 0.000000
vn -0.323957 0.916326 0.235368
vn -0.123740 0.916326 0.380834
vn 0.123740 0.916326 0.380834
vn 0.323957 0.916326 0.235368
vn 0.400432 0.916326 0.000000
vn 0.000000 -1.000000 -0.000000
vn 0.000000 1.000000 -0.000000

# Mesh
g FlameBall_low
usemtl initialShadingGroup
f 4/4/4 1/1/1 2/2/2
f 2/2/2 3/3/3 4/4/4
f 3/3/3 2/2/2 5/5/5
f 5/5/5 6/6/6 3/3/3
f 6/6/6 5/5/5 7/7/7
f 7/7/7 8/8/8 6/6/6
f 8/8/8 7/7/7 9/9/9
f 9/9/9 10/10/10 8/8/8
f 10/10/10 9/9/9 11/11/11
f 11/11/11 12/12/12 10/10/10
f 12/12/12 11/11/11 13/13/13
f 13/13/13 14/14/14 12/12/12
f 14/14/14 13/13/13 15/15/15
f 15/15/15 16/16/16 14/14/14
f 16/16/16 15/15/15 17/17/17
f 17/17/17 18/18/18 16/16/16
f 18/18/18 17/17/17 19/19/19
f 19/19/19 20/20/20 18/18/18
f 20/20/20 19/19/19 1/21/1
f 1/21/1 4/22/4 20/20/20
f 22/24/22 4/4/4 3/3/3
f 3/3/3 21/23/21 22/24/22
f 21/23/21 3/3/3 6/6/6
f 6/6/6 23/25/23 21/23/21
f 23/25/23 6/6/6 8/8/8
f 8/8/8 24/26/24 23/25/23
f 24/26/24 8/8/8 10/10/10
f 10/10/10 25/27/25 24/26/24
f 25/27/25 10/10/10 12/12/12
f 12/12/12 26/28/26 25/27/25
f 26/28/26 12/12/12 14/14/14
f 14/14/14 27/29/27 26/28/26
f 27/29/27 14/14/14 16/16/16
f 16/16/16 28/30/28 27/29/27
f 28/30/28 16/16/16 18/18/18
f 18/18/18 29/31/29 28/30/28
f 29/31/29 18/18/18 20/20/20
f 20/20/20 30/32/30 29/31/29
f 30/32/30 20/20/20 4/22/4
f 4/22/4 22/33/22 30/32/30
f 32/35/32 22/24/22 21/23/21
f 21/23/21 31/34/31 32/35/32
f 31/34/31 21/23/21 23/25/23
f 23/25/23 33/36/33 31/34/31
f 33/36/33 23/25/23 24/26/24
f 24/26/24 34/37/34 33/36/33
f 34/37/34 24/26/24 25/27/25
f 25/27/25 35/38/35 34/37/34
f 35/38/35 25/27/25 26/28/26
f 26/28/26 36/39/36 35/38/35
f 36/39/36 26/28/26 27/29/27
f 27/29/27 37/40/37 36/39/36
f 37/40/37 27/29/27 28/30/28
f 28/30/28 38/41/38 37/40/37
f 38/41/38 28/30/28 29/31/29
f 29/31/29 39/42/39 38/41/38
f 39/42/39 29/31/29 30/32/30
f 30/32/30 40/43/40 39/42/39
f 40/43/40 30/32/30 22/33/22
f 22/33/22 32/44/32 40/43/40
f 42/46/42 32/35/32 31/34/31
f 31/34/31 41/45/41 42/46/42
f 41/45/41 31/34/31 33/36/33
f 33/36/33 43/47/43 41/45/41
f 43/47/43 33/36/33 34/37/34
f 34/37/34 44/48/44 43/47/43
f 44/48/44 34/37/34 35/38/35
f 35/38/35 45/49/45 44/48/44
f 45/49/45 35/38/35 36/39/36
f 36/39/36 46/50/46 45/49/45
f 46/50/46 36/39/36 37/40/37
f 37/40/37 47/51/47 46/50/46
f 47/51/47 37/40/37 38/41/38
f 38/41/38 48/52/48 47/51/47
f 48/52/48 38/41/38 39/42/39
f 39/42/39 49/53/49 48/52/48
f 49/53/49 39/42/39 40/43/40
f 40/43/40 50/54/50 49/53/49
f 50/54/50 40/43/40 32/44/32
f 32/44/32 42/55/42 50/54/50
f 52/57/52 42/46/42 41/45/41
f 41/45/41 51/56/51 52/57/52
f 51/56/51 41/45/41 43/47/43
f 43/47/43 53/58/53 51/56/51
f 53/58/53 43/47/43 44/48/44
f 44/48/44 54/59/54 53/58/53
f 54/59/54 44/48/44 45/49/45
f 45/49/45 55/60/55 54/59/54
f 55/60/55 45/49/45 46/50/46
f 46/50/46 56/61/56 55/60/55
f 56/61/56 46/50/46 47/51/47
f 47/51/47 57/62/57 56/61/56
f 57/62/57 47/51/47 48/52/48
f 48/52/48 58/63/58 57/62/57
f 58/63/58 48/52/48 49/53/49
f 49/53/49 59/64/59 58/63/58
f 59/64/59 49/53/49 50/54/50
f 50/54/50 60/65/60 59/64/59
f 60/65/60 50/54/50 42/55/42
f 42/55/42 52/66/52 60/65/60
f 62/68/62 52/57/52 51/56/51
f 51/56/51 61/67/61 62/68/62
f 61/67/61 51/56/51 53/58/53
f 53/58/53 63/69/63 61/67/61
f 63/69/63 53/58/53 54/59/54
f 54/59/54 64/70/64 63/69/63
f 64/70/64 54/59/54 55/60/55
f 55/60/55 65/71/65 64/70/64
f 65/71/65 55/60/55 56/61/56
f 56/61/56 66/72/66 65/71/65
f 66/72/66 56/61/56 57/62/57
f 57/62/57 67/73/67 66/72/66
f 67/73/67 57/62/57 58/63/58
f 58/63/58 68/74/68 67/73/67
f 68/74/68 58/63/58 59/64/59
f 59/64/59 69/75/69 68/74/68
f 69/75/69 59/64/59 60/65/60
f 60/65/60 70/76/70 69/75/69
f 70/76/70 60/65/60 52/66/52
f 52/66/52 62/77/62 70/76/70
f 72/79/72 62/68/62 61/67/61
f 61/67/61 71/78/71 72/79/72
f 71/78/71 61/67/61 63/69/63
f 63/69/63 73/80/73 71/78/71
f 73/80/73 63/69/63 64/70/64
f 64/70/64 74/81/74 73/80/73
f 74/81/74 64/70/64 65/71/65
f 65/71/65 75/82/75 74/81/74
f 75/82/75 65/71/65 66/72/66
f 66/72/66 76/83/76 75/82/75
f 76/83/76 66/72/66 67/73/67
f 67/73/67 77/84/77 76/83/76
f 77/84/77 67/73/67 68/74/68
f 68/74/68 78/85/78 77/84/77
f 78/85/78 68/74/68 69/75/69
f 69/75/69 79/86/79 78/85/78
f 79/86/79 69/75/69 70/76/70
f 70/76/70 80/87/80 79/86/79
f 80/87/80 70/76/70 62/77/62
f 62/77/62 72/88/72 80/87/80
f 82/90/82 72/79/72 71/78/71
f 71/78/71 81/89/81 82/90/82
f 81/89/81 71/78/71 73/80/73
f 73/80/73 83/91/83 81/89/81
f 83/91/83 73/80/73 74/81/74
f 74/81/74 84/92/84 83/91/83
f 84/92/84 74/81/74 75/82/75
f 75/82/75 85/93/85 84/92/84
f 85/93/85 75/82/75 76/83/76
f 76/83/76 86/94/86 85/93/85
f 86/94/86 76/83/76 77/84/77
f 77/84/77 87/95/87 86/94/86
f 87/95/87 77/84/77 78/85/78
f 78/85/78 88/96/88 87/95/87
f 88/96/88 78/85/78 79/86/79
f 79/86/79 89/97/89 88/96/88
f 89/97/89 79/86/79 80/87/80
f 80/87/80 90/98/90 89/97/89
f 90/98/90 80/87/80 72/88/72
f 72/88/72 82/99/82 90/98/90
f 2/2/2 1/1/1 91/100/91
f 5/5/5 2/2/2 91/101/91
f 7/7/7 5/5/5 91/102/91
f 9/9/9 7/7/7 91/103/91
f 11/11/11 9/9/9 91/104/91
f 13/13/13 11/11/11 91/105/91
f 15/15/15 13/13/13 91/106/91
f 17/17/17 15/15/15 91/107/91
f 19/19/19 17/17/17 91/108/91
f 1/21/1 19/19/19 91/109/91
f 82/90/82 81/89/81 92/110/92
f 81/89/81 83/91/83 92/111/92
f 83/91/83 84/92/84 92/112/92
f 84/92/84 85/93/85 92/113/92
f 85/93/85 86/94/86 92/114/92
f 86/94/86 87/95/87 92/115/92
f 87/95/87 88/96/88 92/116/92
f 88/96/88 89/97/89 92/117/92
f 89/97/89 90/98/90 92/118/92
f 90/98/90 82/99/82 92/119/92
