# This file uses centimeters as units for non-parametric coordinates.

mtllib Fence_V1.mtl
g default
v 0.131831 2.375150 2.576096
v 0.151189 2.441344 2.576096
v 0.131831 2.375150 -2.576096
v 0.151189 2.441344 -2.576096
v 0.246028 2.441344 2.576096
v 0.265386 2.375150 2.576096
v 0.265386 2.375150 -2.576096
v 0.246028 2.441344 -2.576096
v 0.151189 2.000000 2.576096
v 0.131831 2.066195 2.576096
v 0.131831 2.066195 -2.576096
v 0.151189 2.000000 -2.576096
v 0.265386 2.066195 2.576096
v 0.246028 2.000000 2.576096
v 0.246028 2.000000 -2.576096
v 0.265386 2.066195 -2.576096
vt 0.100917 0.989430
vt 0.101096 0.016437
vt 0.119007 0.016440
vt 0.118828 0.989434
vt 0.016701 0.016421
vt 0.221134 0.989452
vt 0.203223 0.989449
vt 0.203402 0.016455
vt 0.278130 0.773462
vt 0.278252 0.865893
vt 0.278234 0.773183
vt 0.278121 0.865626
vt 0.238176 0.865901
vt 0.238289 0.773458
vt 0.238280 0.865623
vt 0.238158 0.773191
vt 0.244065 0.753712
vt 0.221312 0.016459
vt 0.243988 0.885763
vt 0.016522 0.989415
vt 0.190199 0.989447
vt 0.272447 0.885757
vt 0.272357 0.753714
vt 0.190377 0.016453
vt 0.132031 0.016442
vt 0.029547 0.989417
vt 0.029726 0.016424
vt 0.088072 0.016434
vt 0.272422 0.753321
vt 0.131852 0.989436
vt 0.272345 0.885373
vt 0.243963 0.753327
vt 0.087893 0.989428
vt 0.244053 0.885370
vn 0.000000 1.000000 0.000000
vn 0.000000 1.000000 0.000000
vn 0.000000 1.000000 0.000000
vn 0.000000 1.000000 0.000000
vn 0.000000 -1.000000 0.000000
vn 0.000000 -1.000000 0.000000
vn 0.000000 -1.000000 0.000000
vn 0.000000 -1.000000 0.000000
vn 1.000000 0.000000 0.000000
vn 1.000000 0.000000 0.000000
vn 1.000000 0.000000 0.000000
vn 1.000000 0.000000 0.000000
vn -1.000000 0.000000 0.000000
vn -1.000000 0.000000 0.000000
vn -1.000000 0.000000 0.000000
vn -1.000000 0.000000 0.000000
vn 0.000000 0.000000 -1.000000
vn 0.000000 0.000000 -1.000000
vn 0.000000 0.000000 -1.000000
vn 0.000000 0.000000 -1.000000
vn 0.000000 0.000000 1.000000
vn 0.000000 0.000000 1.000000
vn 0.000000 0.000000 1.000000
vn 0.000000 0.000000 1.000000
vn -0.959799 0.280688 0.000000
vn -0.959799 0.280688 0.000000
vn -0.959799 0.280688 0.000000
vn -0.959799 0.280688 0.000000
vn 0.959799 0.280687 0.000000
vn 0.959799 0.280687 0.000000
vn 0.959799 0.280687 0.000000
vn 0.959799 0.280687 0.000000
vn -0.959800 -0.280686 0.000000
vn -0.959800 -0.280686 0.000000
vn -0.959800 -0.280686 0.000000
vn -0.959800 -0.280686 0.000000
vn 0.959800 -0.280686 0.000000
vn 0.959800 -0.280686 0.000000
vn 0.959800 -0.280686 0.000000
vn 0.959800 -0.280686 0.000000
vn 0.000000 0.000000 -1.000000
vn 0.000000 0.000000 -1.000000
vn 0.000000 0.000000 -1.000000
vn 0.000000 0.000000 -1.000000
vn 0.000000 0.000000 1.000000
vn 0.000000 0.000000 1.000000
vn 0.000000 0.000000 1.000000
vn 0.000000 0.000000 1.000000
s off
g Top_Piece Fence
usemtl initialShadingGroup
f 4/1/1 2/2/2 5/3/3 8/4/4
f 9/18/5 12/6/6 15/7/7 14/8/8
f 13/24/9 16/21/10 7/30/11 6/25/12
f 11/26/13 10/27/14 1/28/15 3/33/16
s 1
f 11/13/17 16/10/18 15/22/19 12/19/20
s 2
f 1/15/21 6/12/22 5/31/23 2/34/24
s off
f 1/28/25 2/2/26 4/1/27 3/33/28
f 5/3/29 6/25/30 7/30/31 8/4/32
f 9/5/33 10/27/34 11/26/35 12/20/36
f 13/24/37 14/8/38 15/7/39 16/21/40
s 1
f 3/16/41 7/11/42 16/10/18 11/13/17
f 3/16/41 4/32/43 8/29/44 7/11/42
s 2
f 10/14/45 9/17/46 14/23/47 13/9/48
f 10/14/45 13/9/48 6/12/22 1/15/21
g default
v 0.131831 1.789505 2.576096
v 0.151189 1.855700 2.576096
v 0.131831 1.789505 -2.576096
v 0.151189 1.855700 -2.576096
v 0.246028 1.855700 2.576096
v 0.265386 1.789505 2.576096
v 0.265386 1.789505 -2.576096
v 0.246028 1.855700 -2.576096
v 0.151189 1.414356 2.576096
v 0.131831 1.480551 2.576096
v 0.131831 1.480551 -2.576096
v 0.151189 1.414356 -2.576096
v 0.265386 1.480551 2.576096
v 0.246028 1.414356 2.576096
v 0.246028 1.414356 -2.576096
v 0.265386 1.480551 -2.576096
vt 0.101084 0.989658
vt 0.100913 0.016222
vt 0.118832 0.016218
vt 0.119003 0.989655
vt 0.016479 0.016236
vt 0.221355 0.989637
vt 0.203436 0.989640
vt 0.203265 0.016204
vt 0.278058 0.773607
vt 0.278029 0.865396
vt 0.278025 0.773686
vt 0.278065 0.865474
vt 0.238385 0.865398
vt 0.238345 0.773610
vt 0.238352 0.865478
vt 0.238381 0.773688
vt 0.244099 0.753926
vt 0.221184 0.016200
vt 0.244132 0.885047
vt 0.016651 0.989673
vt 0.190406 0.989643
vt 0.272284 0.885045
vt 0.272300 0.753924
vt 0.190235 0.016206
vt 0.131862 0.016216
vt 0.029681 0.989671
vt 0.029510 0.016234
vt 0.087883 0.016224
vt 0.272278 0.754037
vt 0.132033 0.989653
vt 0.272311 0.885158
vt 0.244126 0.754038
vt 0.088054 0.989661
vt 0.244110 0.885160
vn 0.000000 1.000000 0.000000
vn 0.000000 1.000000 0.000000
vn 0.000000 1.000000 0.000000
vn 0.000000 1.000000 0.000000
vn 0.000000 -1.000000 0.000000
vn 0.000000 -1.000000 0.000000
vn 0.000000 -1.000000 0.000000
vn 0.000000 -1.000000 0.000000
vn 1.000000 0.000000 0.000000
vn 1.000000 0.000000 0.000000
vn 1.000000 0.000000 0.000000
vn 1.000000 0.000000 0.000000
vn -1.000000 0.000000 0.000000
vn -1.000000 0.000000 0.000000
vn -1.000000 0.000000 0.000000
vn -1.000000 0.000000 0.000000
vn 0.000000 0.000000 -1.000000
vn 0.000000 0.000000 -1.000000
vn 0.000000 0.000000 -1.000000
vn 0.000000 0.000000 -1.000000
vn 0.000000 0.000000 1.000000
vn 0.000000 0.000000 1.000000
vn 0.000000 0.000000 1.000000
vn 0.000000 0.000000 1.000000
vn -0.959800 0.280686 0.000000
vn -0.959800 0.280686 0.000000
vn -0.959800 0.280686 0.000000
vn -0.959800 0.280686 0.000000
vn 0.959800 0.280685 0.000000
vn 0.959800 0.280685 0.000000
vn 0.959800 0.280685 0.000000
vn 0.959800 0.280685 0.000000
vn -0.959800 -0.280685 0.000000
vn -0.959800 -0.280685 0.000000
vn -0.959800 -0.280685 0.000000
vn -0.959800 -0.280685 0.000000
vn 0.959800 -0.280685 0.000000
vn 0.959800 -0.280685 0.000000
vn 0.959800 -0.280685 0.000000
vn 0.959800 -0.280685 0.000000
vn 0.000000 0.000000 -1.000000
vn 0.000000 0.000000 -1.000000
vn 0.000000 0.000000 -1.000000
vn 0.000000 0.000000 -1.000000
vn 0.000000 0.000000 1.000000
vn 0.000000 0.000000 1.000000
vn 0.000000 0.000000 1.000000
vn 0.000000 0.000000 1.000000
s off
g Fence Lower_Piece
usemtl initialShadingGroup
f 20/35/49 18/36/50 21/37/51 24/38/52
f 25/52/53 28/40/54 31/41/55 30/42/56
f 29/58/57 32/55/58 23/64/59 22/59/60
f 27/60/61 26/61/62 17/62/63 19/67/64
s 1
f 19/50/65 20/66/66 24/63/67 23/45/68
s 2
f 26/48/69 25/51/70 30/57/71 29/43/72
s off
f 17/62/73 18/36/74 20/35/75 19/67/76
f 21/37/77 22/59/78 23/64/79 24/38/80
f 25/39/81 26/61/82 27/60/83 28/54/84
f 29/58/85 30/42/86 31/41/87 32/55/88
s 1
f 27/47/89 32/44/90 31/56/91 28/53/92
f 19/50/65 23/45/68 32/44/90 27/47/89
s 2
f 17/49/93 22/46/94 21/65/95 18/68/96
f 26/48/69 29/43/72 22/46/94 17/49/93
g default
v 0.067171 0.000000 1.868169
v -0.067171 0.000000 1.868169
v -0.104621 0.000000 1.895379
v -0.131831 0.000000 1.932829
v -0.131831 0.000000 2.067171
v -0.104621 0.000000 2.104621
v -0.067171 0.000000 2.131831
v 0.067171 0.000000 2.131830
v 0.104621 0.000000 2.104621
v 0.131830 0.000000 2.067171
v 0.131830 0.000000 1.932829
v 0.104621 0.000000 1.895379
v 0.067171 2.490513 1.868169
v -0.067171 2.490513 1.868169
v -0.104621 2.490513 1.895379
v -0.131831 2.490513 1.932829
v -0.131831 2.490513 2.067171
v -0.104621 2.490513 2.104621
v -0.067171 2.490513 2.131831
v 0.067171 2.490513 2.131830
v 0.104621 2.490513 2.104621
v 0.131830 2.490513 2.067171
v 0.131830 2.490513 1.932829
v 0.104621 2.490513 1.895379
v -0.079098 2.590513 1.959697
v -0.079098 2.590513 2.040303
v 0.079098 2.590513 2.040303
v 0.079099 2.590513 1.959697
v -0.062773 2.590513 2.062773
v 0.062773 2.590513 2.062773
v -0.040302 2.590513 2.079099
v 0.040303 2.590513 2.079099
v -0.062773 2.590513 1.937227
v 0.062773 2.590513 1.937227
v -0.040303 2.590513 1.920902
v 0.040303 2.590513 1.920902
vt 0.257629 0.734691
vt 0.299161 0.734682
vt 0.424913 0.014527
vt 0.458241 0.014526
vt 0.469725 0.014526
vt 0.245902 0.725587
vt 0.256023 0.014531
vt 0.237096 0.713556
vt 0.237332 0.671886
vt 0.289351 0.014530
vt 0.300835 0.014530
vt 0.246425 0.660304
vt 0.312319 0.014529
vt 0.258394 0.651595
vt 0.299905 0.651575
vt 0.345648 0.014529
vt 0.357132 0.014528
vt 0.311640 0.660665
vt 0.368616 0.014528
vt 0.320460 0.672689
vt 0.320235 0.714380
vt 0.401944 0.014527
vt 0.413428 0.014527
vt 0.311138 0.725969
vt 0.260111 0.701193
vt 0.261781 0.683040
vt 0.297455 0.685079
vt 0.295786 0.703235
vt 0.265642 0.678138
vt 0.293909 0.679909
vt 0.270861 0.674686
vt 0.288945 0.676048
vt 0.263655 0.706364
vt 0.291924 0.708138
vt 0.268618 0.710226
vt 0.286705 0.711590
vt 0.244538 0.014531
vt 0.244552 0.632391
vt 0.469738 0.632386
vt 0.413442 0.632387
vt 0.424926 0.632387
vt 0.401958 0.632387
vt 0.368629 0.632388
vt 0.357145 0.632388
vt 0.345661 0.632389
vt 0.312333 0.632389
vt 0.300849 0.632390
vt 0.289364 0.632390
vt 0.256036 0.632390
vt 0.458254 0.632386
vn -0.157155 0.013412 -0.987483
vn 0.157155 0.013412 -0.987483
vn 0.156435 0.000000 -0.987688
vn -0.156435 0.000000 -0.987688
vn -0.707107 0.000000 -0.707107
vn -0.707009 0.016658 -0.707009
vn -0.987688 0.000000 -0.156435
vn -0.987483 0.013412 -0.157155
vn -0.987483 0.013412 0.157155
vn -0.987688 0.000000 0.156435
vn -0.707107 0.000000 0.707107
vn -0.707009 0.016658 0.707009
vn -0.156434 0.000000 0.987688
vn -0.157154 0.013412 0.987483
vn 0.157155 0.013412 0.987483
vn 0.156435 0.000000 0.987688
vn 0.707107 0.000000 0.707107
vn 0.707009 0.016658 0.707009
vn 0.987688 0.000000 0.156434
vn 0.987483 0.013412 0.157154
vn 0.987483 0.013412 -0.157154
vn 0.987688 0.000000 -0.156434
vn 0.707109 0.000000 -0.707105
vn 0.707011 0.016658 -0.707007
vn -0.574709 0.814451 -0.079870
vn -0.574709 0.814451 0.079871
vn 0.574708 0.814451 0.079870
vn 0.574711 0.814450 -0.079870
vn -0.445820 0.776202 0.445820
vn 0.445822 0.776202 0.445818
vn -0.112010 0.581255 0.805975
vn 0.112012 0.581254 0.805975
vn -0.445820 0.776202 -0.445820
vn 0.445822 0.776202 -0.445818
vn -0.112011 0.581256 -0.805974
vn 0.112011 0.581257 -0.805974
s 1
g Fence Foot_Left
usemtl initialShadingGroup
f 46/118/97 45/109/98 33/71/99 34/72/100
f 34/72/100 35/73/101 47/107/102 46/118/97
f 35/105/101 36/75/103 48/117/104 47/106/102
f 49/116/105 48/117/104 36/75/103 37/78/106
f 37/78/106 38/79/107 50/115/108 49/116/105
f 38/79/107 39/81/109 51/114/110 50/115/108
f 52/113/111 51/114/110 39/81/109 40/84/112
f 40/84/112 41/85/113 53/112/114 52/113/111
f 41/85/113 42/87/115 54/111/116 53/112/114
f 55/110/117 54/111/116 42/87/115 43/90/118
f 43/90/118 44/91/119 56/108/120 55/110/117
f 44/91/119 33/71/99 45/109/98 56/108/120
f 57/93/121 58/94/122 59/95/123 60/96/124
f 58/94/122 61/97/125 62/98/126 59/95/123
f 61/97/125 63/99/127 64/100/128 62/98/126
f 65/101/129 57/93/121 60/96/124 66/102/130
f 67/103/131 65/101/129 66/102/130 68/104/132
f 48/76/104 49/77/105 58/94/122 57/93/121
f 54/88/116 55/89/117 60/96/124 59/95/123
f 49/77/105 50/80/108 61/97/125 58/94/122
f 53/86/114 54/88/116 59/95/123 62/98/126
f 50/80/108 51/82/110 63/99/127 61/97/125
f 51/82/110 52/83/111 64/100/128 63/99/127
f 52/83/111 53/86/114 62/98/126 64/100/128
f 47/74/102 48/76/104 57/93/121 65/101/129
f 55/89/117 56/92/120 66/102/130 60/96/124
f 46/69/97 47/74/102 65/101/129 67/103/131
f 56/92/120 45/70/98 68/104/132 66/102/130
f 45/70/98 46/69/97 67/103/131 68/104/132
g default
v 0.067171 -0.000000 -2.131831
v -0.067171 -0.000000 -2.131831
v -0.104621 -0.000000 -2.104621
v -0.131831 -0.000000 -2.067171
v -0.131831 -0.000000 -1.932829
v -0.104621 -0.000000 -1.895379
v -0.067171 -0.000000 -1.868170
v 0.067171 -0.000000 -1.868170
v 0.104621 -0.000000 -1.895379
v 0.131830 -0.000000 -1.932829
v 0.131831 -0.000000 -2.067171
v 0.104621 -0.000000 -2.104621
v 0.067171 2.490513 -2.131831
v -0.067171 2.490513 -2.131831
v -0.104621 2.490513 -2.104621
v -0.131831 2.490513 -2.067171
v -0.131831 2.490513 -1.932829
v -0.104621 2.490513 -1.895379
v -0.067171 2.490513 -1.868170
v 0.067171 2.490513 -1.868170
v 0.104621 2.490513 -1.895379
v 0.131830 2.490513 -1.932829
v 0.131831 2.490513 -2.067171
v 0.104621 2.490513 -2.104621
v -0.079098 2.590513 -2.040303
v -0.079099 2.590513 -1.959697
v 0.079098 2.590513 -1.959697
v 0.079098 2.590513 -2.040303
v -0.062772 2.590513 -1.937227
v 0.062773 2.590513 -1.937227
v -0.040302 2.590513 -1.920901
v 0.040303 2.590513 -1.920901
v -0.062773 2.590513 -2.062773
v 0.062773 2.590513 -2.062773
v -0.040303 2.590513 -2.079098
v 0.040302 2.590513 -2.079098
vt 0.257701 0.734545
vt 0.299088 0.734538
vt 0.424787 0.015135
vt 0.458050 0.015135
vt 0.469512 0.015135
vt 0.246014 0.725473
vt 0.256229 0.015134
vt 0.237240 0.713483
vt 0.237477 0.671958
vt 0.289492 0.015134
vt 0.300953 0.015134
vt 0.246539 0.660416
vt 0.312415 0.015134
vt 0.258467 0.651738
vt 0.299834 0.651721
vt 0.345678 0.015134
vt 0.357139 0.015134
vt 0.311527 0.660779
vt 0.368601 0.015134
vt 0.320316 0.672763
vt 0.320090 0.714308
vt 0.401864 0.015134
vt 0.413326 0.015134
vt 0.311024 0.725857
vt 0.260175 0.701164
vt 0.261840 0.683075
vt 0.297390 0.685107
vt 0.295727 0.703200
vt 0.265689 0.678190
vt 0.293857 0.679955
vt 0.270889 0.674749
vt 0.288911 0.676107
vt 0.263707 0.706317
vt 0.291878 0.708086
vt 0.268652 0.710166
vt 0.286676 0.711527
vt 0.244767 0.015134
vt 0.244765 0.631782
vt 0.469510 0.631783
vt 0.413324 0.631783
vt 0.424785 0.631783
vt 0.401862 0.631783
vt 0.368599 0.631782
vt 0.357137 0.631782
vt 0.345676 0.631782
vt 0.312413 0.631782
vt 0.300951 0.631782
vt 0.289490 0.631782
vt 0.256227 0.631782
vt 0.458048 0.631783
vn -0.157155 0.013412 -0.987483
vn 0.157155 0.013412 -0.987483
vn 0.156435 0.000000 -0.987688
vn -0.156435 0.000000 -0.987688
vn -0.707107 0.000000 -0.707107
vn -0.707009 0.016658 -0.707009
vn -0.987688 0.000000 -0.156435
vn -0.987483 0.013412 -0.157155
vn -0.987483 0.013412 0.157155
vn -0.987688 0.000000 0.156435
vn -0.707106 0.000000 0.707108
vn -0.707008 0.016658 0.707010
vn -0.156434 0.000000 0.987688
vn -0.157154 0.013412 0.987483
vn 0.157154 0.013412 0.987483
vn 0.156434 0.000000 0.987688
vn 0.707108 0.000000 0.707106
vn 0.707010 0.016658 0.707007
vn 0.987688 0.000000 0.156435
vn 0.987483 0.013412 0.157155
vn 0.987483 0.013412 -0.157154
vn 0.987688 0.000000 -0.156434
vn 0.707107 0.000000 -0.707107
vn 0.707009 0.016658 -0.707009
vn -0.574709 0.814451 -0.079871
vn -0.574711 0.814449 0.079871
vn 0.574708 0.814452 0.079869
vn 0.574708 0.814451 -0.079870
vn -0.445817 0.776204 0.445820
vn 0.445824 0.776201 0.445817
vn -0.112010 0.581254 0.805976
vn 0.112012 0.581254 0.805976
vn -0.445820 0.776202 -0.445821
vn 0.445822 0.776200 -0.445820
vn -0.112012 0.581257 -0.805974
vn 0.112009 0.581256 -0.805975
s 1
g Fence Foot_Right
usemtl initialShadingGroup
f 82/168/133 81/159/134 69/121/135 70/122/136
f 70/122/136 71/123/137 83/157/138 82/168/133
f 71/155/137 72/125/139 84/167/140 83/156/138
f 85/166/141 84/167/140 72/125/139 73/128/142
f 73/128/142 74/129/143 86/165/144 85/166/141
f 74/129/143 75/131/145 87/164/146 86/165/144
f 88/163/147 87/164/146 75/131/145 76/134/148
f 76/134/148 77/135/149 89/162/150 88/163/147
f 77/135/149 78/137/151 90/161/152 89/162/150
f 91/160/153 90/161/152 78/137/151 79/140/154
f 79/140/154 80/141/155 92/158/156 91/160/153
f 80/141/155 69/121/135 81/159/134 92/158/156
f 93/143/157 94/144/158 95/145/159 96/146/160
f 94/144/158 97/147/161 98/148/162 95/145/159
f 97/147/161 99/149/163 100/150/164 98/148/162
f 101/151/165 93/143/157 96/146/160 102/152/166
f 103/153/167 101/151/165 102/152/166 104/154/168
f 84/126/140 85/127/141 94/144/158 93/143/157
f 90/138/152 91/139/153 96/146/160 95/145/159
f 85/127/141 86/130/144 97/147/161 94/144/158
f 89/136/150 90/138/152 95/145/159 98/148/162
f 86/130/144 87/132/146 99/149/163 97/147/161
f 87/132/146 88/133/147 100/150/164 99/149/163
f 88/133/147 89/136/150 98/148/162 100/150/164
f 83/124/138 84/126/140 93/143/157 101/151/165
f 91/139/153 92/142/156 102/152/166 96/146/160
f 82/119/133 83/124/138 101/151/165 103/153/167
f 92/142/156 81/120/134 104/154/168 102/152/166
f 81/120/134 82/119/133 103/153/167 104/154/168
g default
v 0.131831 1.160068 2.576096
v 0.151189 1.226263 2.576096
v 0.131831 1.160068 -2.576096
v 0.151189 1.226263 -2.576096
v 0.246028 1.226263 2.576096
v 0.265386 1.160068 2.576096
v 0.265386 1.160068 -2.576096
v 0.246028 1.226263 -2.576096
v 0.151189 0.784919 2.576096
v 0.131831 0.851114 2.576096
v 0.131831 0.851114 -2.576096
v 0.151189 0.784919 -2.576096
v 0.265386 0.851114 2.576096
v 0.246028 0.784919 2.576096
v 0.246028 0.784919 -2.576096
v 0.265386 0.851114 -2.576096
vt 0.101027 0.989841
vt 0.100956 0.016035
vt 0.118882 0.016034
vt 0.118953 0.989840
vt 0.016491 0.016041
vt 0.221344 0.989832
vt 0.203418 0.989834
vt 0.203347 0.016028
vt 0.278113 0.773512
vt 0.277801 0.864877
vt 0.277804 0.774208
vt 0.278097 0.865579
vt 0.238606 0.864876
vt 0.238313 0.773505
vt 0.238297 0.865573
vt 0.238609 0.774207
vt 0.244085 0.753780
vt 0.221273 0.016026
vt 0.244286 0.884302
vt 0.016562 0.989847
vt 0.190383 0.989835
vt 0.272119 0.884303
vt 0.272347 0.753785
vt 0.190312 0.016029
vt 0.131917 0.016033
vt 0.029597 0.989846
vt 0.029526 0.016040
vt 0.087921 0.016036
vt 0.272124 0.754782
vt 0.131988 0.989839
vt 0.272325 0.885305
vt 0.244291 0.754781
vt 0.087992 0.989842
vt 0.244063 0.885300
vn 0.000000 1.000000 0.000000
vn 0.000000 1.000000 0.000000
vn 0.000000 1.000000 0.000000
vn 0.000000 1.000000 0.000000
vn 0.000000 -1.000000 0.000000
vn 0.000000 -1.000000 0.000000
vn 0.000000 -1.000000 0.000000
vn 0.000000 -1.000000 0.000000
vn 1.000000 0.000000 0.000000
vn 1.000000 0.000000 0.000000
vn 1.000000 0.000000 0.000000
vn 1.000000 0.000000 0.000000
vn -1.000000 0.000000 0.000000
vn -1.000000 0.000000 0.000000
vn -1.000000 0.000000 0.000000
vn -1.000000 0.000000 0.000000
vn 0.000000 0.000000 -1.000000
vn 0.000000 0.000000 -1.000000
vn 0.000000 0.000000 -1.000000
vn 0.000000 0.000000 -1.000000
vn 0.000000 0.000000 1.000000
vn 0.000000 0.000000 1.000000
vn 0.000000 0.000000 1.000000
vn 0.000000 0.000000 1.000000
vn -0.959800 0.280685 0.000000
vn -0.959800 0.280685 0.000000
vn -0.959800 0.280685 0.000000
vn -0.959800 0.280685 0.000000
vn 0.959800 0.280685 0.000000
vn 0.959800 0.280685 0.000000
vn 0.959800 0.280685 0.000000
vn 0.959800 0.280685 0.000000
vn -0.959800 -0.280685 0.000000
vn -0.959800 -0.280685 0.000000
vn -0.959800 -0.280685 0.000000
vn -0.959800 -0.280685 0.000000
vn 0.959800 -0.280685 0.000000
vn 0.959800 -0.280685 0.000000
vn 0.959800 -0.280685 0.000000
vn 0.959800 -0.280685 0.000000
vn 0.000000 0.000000 -1.000000
vn 0.000000 0.000000 -1.000000
vn 0.000000 0.000000 -1.000000
vn 0.000000 0.000000 -1.000000
vn 0.000000 0.000000 1.000000
vn 0.000000 0.000000 1.000000
vn 0.000000 0.000000 1.000000
vn 0.000000 0.000000 1.000000
s off
g Fence Lower_Piece1
usemtl initialShadingGroup
f 108/169/169 106/170/170 109/171/171 112/172/172
f 113/186/173 116/174/174 119/175/175 118/176/176
f 117/192/177 120/189/178 111/198/179 110/193/180
f 115/194/181 114/195/182 105/196/183 107/201/184
s 1
f 107/184/185 108/200/186 112/197/187 111/179/188
s 2
f 114/182/189 113/185/190 118/191/191 117/177/192
s off
f 105/196/193 106/170/194 108/169/195 107/201/196
f 109/171/197 110/193/198 111/198/199 112/172/200
f 113/173/201 114/195/202 115/194/203 116/188/204
f 117/192/205 118/176/206 119/175/207 120/189/208
s 1
f 115/181/209 120/178/210 119/190/211 116/187/212
f 107/184/185 111/179/188 120/178/210 115/181/209
s 2
f 105/183/213 110/180/214 109/199/215 106/202/216
f 114/182/189 117/177/192 110/180/214 105/183/213
