# This file uses centimeters as units for non-parametric coordinates.

mtllib Tent_OldTriangle_V2.mtl
g default
v -2.178852 -0.014916 -0.464711
v -2.178852 0.202701 -0.247094
v -2.396469 0.202701 -0.464711
v 3.767193 0.202701 -0.535771
v 3.549576 0.202701 -0.322782
v 3.549576 -0.014916 -0.524854
v -2.396469 0.492929 -0.464711
v -2.178852 0.492929 -0.247094
v -2.178852 0.710546 -0.464711
v 3.549576 0.710546 -0.524854
v 3.549576 0.492929 -0.322782
v 3.767193 0.492929 -0.535771
v -2.396469 0.492929 -2.148606
v -2.178852 0.710546 -2.148606
v -2.178852 0.492929 -2.366224
v 3.549576 0.492929 -2.290535
v 3.549576 0.710546 -2.088463
v 3.767193 0.492929 -2.077546
v -2.396469 0.202701 -2.148606
v -2.178852 0.202701 -2.366224
v -2.178852 -0.014916 -2.148606
v 3.549576 -0.014916 -2.088463
v 3.549576 0.202701 -2.290535
v 3.767193 0.202701 -2.077546
v -0.794719 0.710546 -0.686901
v -1.968642 0.710546 -0.686901
v -0.794719 0.710546 -1.926416
v -1.968642 0.710546 -1.926416
v -0.905666 0.290541 -0.769531
v -1.857695 0.290541 -0.769531
v -0.905666 0.290541 -1.843786
v -1.857695 0.290541 -1.843786
vt 0.763511 0.378405
vt 0.777255 0.382106
vt 0.767091 0.457836
vt 0.329415 0.080147
vt 0.775999 0.371629
vt 0.653153 0.138882
vt 0.665976 0.134166
vt 0.788383 0.366839
vt 0.837794 0.393523
vt 0.659432 0.125779
vt 0.592471 0.097019
vt 0.602344 0.086790
vt 0.667920 0.115645
vt 0.832108 0.044176
vt 0.839181 0.376858
vt 0.940436 0.377509
vt 0.316534 0.055323
vt 0.848619 0.045545
vt 0.608654 0.075104
vt 0.936073 0.046311
vt 0.957468 0.378662
vt 0.330934 0.066113
vt 0.593979 0.070176
vt 0.592318 0.083358
vt 0.864517 0.350585
vt 0.868090 0.309042
vt 0.915309 0.311981
vt 0.912890 0.353741
vt 0.853245 0.295787
vt 0.851333 0.366345
vt 0.927657 0.295994
vt 0.928364 0.366766
vt 0.952600 0.045187
vt 0.937211 0.029666
vt 0.331107 0.052844
vt 0.941625 0.394459
vt 0.847651 0.028570
vt 0.822136 0.377788
vt 0.677688 0.127810
vt 0.790557 0.382412
vt 0.317929 0.068903
vt 0.780467 0.459544
vt 0.752913 0.455891
vn -0.173811 -0.770257 0.613591
vn -0.920724 -0.380985 0.084367
vn -0.920724 -0.380985 -0.084367
vn -0.173811 -0.770257 -0.613590
vn -0.014142 -0.376430 0.926337
vn 0.176400 -0.764420 0.620117
vn 0.036232 -0.378724 0.924800
vn -0.014142 0.376430 0.926337
vn -0.920724 0.380984 0.084367
vn 0.919676 -0.382086 0.090587
vn 0.176400 -0.764420 -0.620117
vn 0.919676 -0.382086 -0.090587
vn 0.919676 0.382085 0.090587
vn 0.036232 0.378724 0.924800
vn -0.138973 0.860228 0.490606
vn -0.138973 0.860228 -0.490606
vn -0.920724 0.380984 -0.084367
vn 0.047953 0.984521 0.168576
vn 0.919676 0.382085 -0.090587
vn 0.047953 0.984521 -0.168576
vn -0.014142 0.376430 -0.926337
vn -0.014142 -0.376430 -0.926337
vn 0.036232 0.378724 -0.924800
vn 0.036232 -0.378725 -0.924800
vn 0.356783 0.877461 -0.320576
vn -0.356783 0.877460 -0.320576
vn -0.356783 0.877460 0.320576
vn 0.356783 0.877460 0.320576
vn -0.057122 0.996919 -0.053749
vn 0.265344 0.931265 -0.249676
vn -0.057122 0.996919 0.053749
vn 0.265344 0.931265 0.249676
s 1
g Sleeping_Bag Tent_Triangle
usemtl initialShadingGroup
f 1/1/1 3/2/2 19/3/3 21/43/4
f 2/5/5 1/1/1 6/6/6 5/7/7
f 3/2/2 2/5/5 8/8/8 7/40/9
f 4/10/10 6/6/6 22/11/11 24/12/12
f 5/7/7 4/10/10 12/13/13 11/39/14
f 7/9/9 9/15/15 14/16/16 13/36/17
f 9/15/15 8/38/8 11/14/14 10/18/18
f 10/18/18 12/37/13 18/34/19 17/20/20
f 13/17/17 15/35/21 20/22/22 19/41/3
f 15/21/21 14/16/16 17/20/20 16/33/23
f 16/23/23 18/19/19 24/12/12 23/24/24
f 21/4/4 20/22/22 23/24/24 22/11/11
f 2/5/5 5/7/7 11/39/14 8/8/8
f 30/25/25 29/26/26 31/27/27 32/28/28
f 15/35/21 16/23/23 23/24/24 20/22/22
f 4/10/10 24/12/12 18/19/19 12/13/13
f 19/3/3 3/2/2 7/40/9 13/42/17
f 1/1/1 2/5/5 3/2/2
f 4/10/10 5/7/7 6/6/6
f 7/9/9 8/38/8 9/15/15
f 10/18/18 11/14/14 12/37/13
f 13/36/17 14/16/16 15/21/21
f 16/33/23 17/20/20 18/34/19
f 19/41/3 20/22/22 21/4/4
f 22/11/11 23/24/24 24/12/12
f 9/15/15 10/18/18 25/29/29 26/30/30
f 10/18/18 17/20/20 27/31/31 25/29/29
f 17/20/20 14/16/16 28/32/32 27/31/31
f 14/16/16 9/15/15 26/30/30 28/32/32
f 26/30/30 25/29/29 29/26/26 30/25/25
f 25/29/29 27/31/31 31/27/27 29/26/26
f 27/31/31 28/32/32 32/28/28 31/27/27
f 28/32/32 26/30/30 30/25/25 32/28/28
g default
v -4.345509 0.000001 3.791075
v -3.504476 0.000001 3.778109
v -0.140337 0.000001 3.712666
v 3.223799 0.000001 3.778109
v 4.064834 0.000001 3.791075
v -4.345509 0.402000 3.137637
v -3.504476 0.402000 3.126905
v -0.140337 0.402000 3.072742
v 3.223799 0.402000 3.126905
v 4.064834 0.402000 3.137637
v -4.345509 4.285884 0.575748
v -3.504476 4.285884 0.573779
v -0.140337 4.285884 0.563840
v 3.223799 4.285884 0.573779
v 4.064834 4.285884 0.575748
v -4.345509 4.440040 0.000000
v -3.504476 4.440040 0.000000
v -0.140337 4.440040 0.000000
v 3.223799 4.440040 0.000000
v 4.064834 4.440040 0.000000
v -4.345509 4.285884 -0.575749
v -3.504476 4.285884 -0.573780
v -0.140337 4.285884 -0.563841
v 3.223799 4.285884 -0.573780
v 4.064834 4.285884 -0.575749
v -4.345509 0.402000 -3.137637
v -3.504476 0.402000 -3.126905
v -0.140337 0.402000 -3.072742
v 3.223799 0.402000 -3.126905
v 4.064834 0.402000 -3.137637
v -4.345509 0.000001 -3.791075
v -3.504476 0.000001 -3.778109
v -0.140337 0.000001 -3.712666
v 3.223799 0.000001 -3.778109
v 4.064834 0.000001 -3.791075
v 4.345496 0.020480 1.974553
v 4.345499 0.350228 1.634646
v 4.345505 3.919516 0.181752
v 4.345510 4.207368 -0.000000
v 4.345505 3.919516 -0.181752
v 4.345498 0.350228 -1.634646
v 4.345496 0.020480 -1.974552
vt 0.981730 0.992383
vt 0.344048 0.947208
vt 0.384615 0.946957
vt 0.953228 0.946114
vt 0.346085 0.768372
vt 0.385994 0.768126
vt 0.344647 0.589550
vt 0.384670 0.587793
vt 0.343625 0.548919
vt 0.383860 0.541658
vt 0.631012 0.947657
vt 0.678013 0.764805
vt 0.631644 0.769843
vt 0.630412 0.593586
vt 0.629434 0.550437
vt 0.662516 0.947582
vt 0.012320 0.992806
vt 0.662641 0.769571
vt 0.012879 0.591463
vt 0.658649 0.544497
vt 0.043926 0.948184
vt 0.677966 0.683241
vt 0.043124 0.769965
vt 0.044269 0.593310
vt 0.045262 0.550068
vt 0.290862 0.947249
vt 0.952971 0.501614
vt 0.289284 0.768072
vt 0.290531 0.587384
vt 0.291327 0.541153
vt 0.331516 0.947449
vt 0.331910 0.992148
vt 0.329277 0.768280
vt 0.330640 0.589120
vt 0.331647 0.548407
vt 0.409930 0.477924
vt 0.433758 0.474488
vt 0.630048 0.519808
vt 0.649651 0.524902
vt 0.044635 0.519372
vt 0.241298 0.473866
vt 0.265175 0.477297
vt 0.016003 0.544111
vt 0.025000 0.524481
vt 0.291188 0.991948
vt 0.981419 0.455312
vt 0.044013 0.992845
vt 0.661863 0.591756
vt 0.011991 0.769709
vt 0.012336 0.948154
vt 0.662608 0.992138
vt 0.667070 0.724029
vt 0.630982 0.992223
vt 0.384346 0.991564
vt 0.343713 0.991818
vn 0.007391 0.851302 0.524624
vn 0.008988 0.849337 0.527774
vn 0.007927 0.596550 0.802537
vn 0.006536 0.599823 0.800106
vn 0.000000 0.848870 0.528601
vn -0.000000 0.594973 0.803746
vn -0.008988 0.849337 0.527774
vn -0.007927 0.596549 0.802537
vn 0.296704 0.809273 0.506995
vn 0.541961 0.499639 0.675750
vn 0.007006 0.609630 0.792655
vn 0.005775 0.612802 0.790216
vn -0.000000 0.609052 0.793130
vn -0.007006 0.609630 0.792655
vn 0.560656 0.489736 0.667700
vn 0.000383 1.000000 0.000000
vn 0.000314 1.000000 0.000000
vn 0.000000 1.000000 0.000000
vn -0.000383 1.000000 0.000000
vn 0.238570 0.971125 -0.000000
vn 0.007006 0.609630 -0.792655
vn 0.005774 0.612802 -0.790215
vn 0.000000 0.609052 -0.793130
vn -0.007006 0.609630 -0.792655
vn 0.560656 0.489736 -0.667700
vn 0.007927 0.596549 -0.802537
vn 0.006536 0.599823 -0.800106
vn 0.000000 0.594973 -0.803746
vn -0.007927 0.596550 -0.802537
vn 0.541961 0.499639 -0.675750
vn 0.008988 0.849337 -0.527774
vn 0.007391 0.851302 -0.524624
vn 0.000000 0.848870 -0.528601
vn -0.008988 0.849337 -0.527774
vn 0.296705 0.809273 -0.506995
vn -1.000000 0.000000 0.000000
vn -1.000000 0.000000 0.000000
vn -1.000000 0.000000 0.000000
vn -1.000000 0.000000 0.000000
vn -1.000000 0.000000 0.000000
vn -1.000000 0.000000 0.000000
vn -1.000000 0.000000 0.000000
vn -1.000000 -0.000001 0.000000
vn -1.000000 -0.000001 0.000000
vn -1.000000 -0.000001 0.000000
vn -1.000000 -0.000001 0.000000
vn 0.962587 0.218167 0.160716
vn 0.958449 0.141654 0.247608
vn 0.957711 0.136453 0.253318
vn 0.786957 0.532915 0.310965
vn 0.828009 0.560714 -0.000000
vn 0.786958 0.532914 -0.310965
vn 0.957711 0.136453 -0.253318
vn 0.958449 0.141654 -0.247607
vn 0.962587 0.218167 -0.160716
s 1
g Tent_Triangle Tarp
usemtl initialShadingGroup
f 33/98/33 34/45/34 39/46/35 38/97/36
f 39/46/35 34/45/34 35/48/37 40/49/38
f 40/49/38 35/48/37 36/50/39 41/51/40
f 36/50/39 37/52/41 42/53/42 41/51/40
f 44/54/43 43/96/44 38/97/36 39/46/35
f 45/56/45 44/54/43 39/46/35 40/49/38
f 41/51/40 46/57/46 45/56/45 40/49/38
f 42/53/42 47/58/47 46/57/46 41/51/40
f 43/96/44 44/54/43 49/59/48 48/94/49
f 49/59/48 44/54/43 45/56/45 50/61/50
f 50/61/50 45/56/45 46/57/46 51/91/51
f 46/57/46 47/58/47 52/63/52 51/91/51
f 48/60/49 49/93/48 54/64/53 53/90/54
f 54/64/53 49/93/48 50/92/50 55/66/55
f 55/66/55 50/92/50 51/62/51 56/67/56
f 51/62/51 52/86/52 57/68/57 56/67/56
f 59/69/58 58/88/59 53/90/54 54/64/53
f 60/71/60 59/69/58 54/64/53 55/66/55
f 56/67/56 61/72/61 60/71/60 55/66/55
f 57/68/57 62/73/62 61/72/61 56/67/56
f 58/88/59 59/69/58 64/74/63 63/75/64
f 65/76/65 64/74/63 59/69/58 60/71/60
f 66/77/66 65/76/65 60/71/60 61/72/61
f 61/72/61 62/73/62 67/78/67 66/77/66
s off
f 38/47/68 43/55/69 53/65/70 58/70/71
f 48/95/72 53/65/73 43/55/74
f 33/44/75 38/47/76 58/70/77 63/89/78
s 1
f 42/53/42 37/52/41 68/79/79 69/80/80
f 47/58/47 42/53/42 69/80/80 70/81/81
f 52/63/52 47/58/47 70/81/82 71/82/83
f 57/68/57 52/86/52 71/87/83 72/83/84
f 62/73/62 57/68/57 72/83/85 73/84/86
f 67/78/67 62/73/62 73/84/86 74/85/87
g default
v 3.750191 0.000000 0.178803
v 3.665653 0.000000 0.094266
v 3.665653 4.129758 0.094266
v 3.750191 3.866455 0.178803
v 4.031397 0.000000 0.094266
v 3.946859 0.000000 0.178803
v 3.946859 3.866455 0.178803
v 4.031397 4.129758 0.094266
v 4.031397 4.249153 0.190379
v 3.946859 4.333690 0.233436
v 3.946859 4.333690 -0.233436
v 4.031397 4.249153 -0.190379
v 3.946859 0.000000 -0.178803
v 4.031397 0.000000 -0.094266
v 4.031397 4.129758 -0.094266
v 3.946859 3.866455 -0.178803
v 3.665653 0.000000 -0.094266
v 3.750191 0.000000 -0.178803
v 3.750191 3.866455 -0.178803
v 3.665653 4.129758 -0.094266
v 3.665653 0.000000 3.050887
v 3.750191 0.000000 2.946918
v 3.946859 0.000000 2.946918
v 4.031397 0.000000 3.050887
v 4.031397 0.000000 3.279588
v 3.946859 0.000000 3.384106
v 3.946859 0.000000 -3.384106
v 4.031397 0.000000 -3.279588
v 4.031397 0.000000 -3.050887
v 3.946859 0.000000 -2.946918
v 3.750191 0.000000 -2.946918
v 3.665653 0.000000 -3.050887
v 3.848525 0.000000 3.384106
v 3.848525 4.333690 0.233436
v 3.848525 4.333690 -0.233436
v 3.848525 0.000000 -3.384106
v 3.848525 0.000000 -0.178803
v 3.848525 3.866455 -0.178803
v 3.848525 0.000000 -2.946918
v 3.848525 0.000000 0.178803
v 3.848525 3.866455 0.178803
v 3.848525 0.000000 2.946918
vt 0.028424 0.405643
vt 0.027918 0.397292
vt 0.276485 0.385022
vt 0.291889 0.393720
vt 0.126570 0.114145
vt 0.132003 0.106878
vt 0.429643 0.156738
vt 0.435779 0.160339
vt 0.316488 0.364857
vt 0.316281 0.348784
vt 0.167128 0.107197
vt 0.175132 0.106642
vt 0.309494 0.370510
vt 0.304408 0.376121
vt 0.145473 0.106697
vt 0.153516 0.106115
vt 0.324902 0.379511
vt 0.322542 0.386693
vt 0.631717 0.386194
vt 0.635132 0.393487
vt 0.445631 0.166051
vt 0.451858 0.169710
vt 0.340554 0.362814
vt 0.326531 0.370584
vt 0.620871 0.367695
vt 0.624123 0.374882
vt 0.199053 0.301196
vt 0.190263 0.305337
vt 0.050099 0.026783
vt 0.068032 0.037537
vt 0.437635 0.026750
vt 0.433029 0.036610
vt 0.027485 0.390433
vt 0.316659 0.343629
vt 0.456980 0.172697
vt 0.073785 0.041771
vt 0.180244 0.103638
vt 0.433052 0.044717
vt 0.299654 0.379679
vt 0.140390 0.109755
vt 0.321835 0.392555
vt 0.634967 0.399416
vt 0.270962 0.382520
vt 0.120559 0.117485
vt 0.424587 0.153791
vt 0.344826 0.359953
vt 0.620995 0.361767
vt 0.206359 0.297691
vn -0.707106 0.000000 0.707107
vn -0.425813 0.000000 0.904811
vn -0.869943 -0.493152 0.000000
vn -0.952129 -0.305696 -0.000000
vn -0.448175 -0.520387 -0.726868
vn -0.707106 -0.411624 -0.574949
vn 0.425813 0.000000 0.904811
vn 0.957112 0.000000 0.289719
vn 0.998356 -0.057315 -0.000000
vn 0.869943 -0.493152 0.000000
vn 0.974304 -0.131115 -0.183140
vn 0.448175 -0.520387 -0.726868
vn 0.926289 0.239932 0.290553
vn 0.408243 0.583374 0.702149
vn 0.390884 0.541252 0.744483
vn 0.895854 0.261293 0.359404
vn 0.926289 0.239932 -0.290553
vn 0.408243 0.583374 -0.702149
vn 0.895854 0.261293 -0.359404
vn 0.390884 0.541252 -0.744483
vn 0.957112 0.000000 -0.289719
vn 0.425813 0.000000 -0.904811
vn 0.869943 -0.493152 -0.000000
vn 0.998356 -0.057315 0.000000
vn 0.448175 -0.520387 0.726868
vn 0.974304 -0.131115 0.183140
vn -0.425813 0.000000 -0.904811
vn -0.707106 0.000000 -0.707107
vn -0.952129 -0.305696 0.000000
vn -0.869943 -0.493152 -0.000000
vn -0.707106 -0.411624 0.574949
vn -0.448175 -0.520387 0.726868
vn 0.000000 0.000000 1.000000
vn 0.000000 -1.000000 0.000000
vn 0.000000 0.000000 -1.000000
vn 0.000000 -1.000000 0.000000
vn 0.000000 -0.582124 -0.813100
vn 0.000000 -0.582124 0.813100
vn 0.000000 0.640825 0.767687
vn 0.000000 0.588037 0.808834
vn 0.000000 0.640825 -0.767687
vn 0.000000 0.588037 -0.808834
s 1
g Tent_Triangle Front_Foot
usemtl initialShadingGroup
f 76/99/88 75/100/89 78/101/90 77/102/91
f 77/102/91 78/101/90 96/103/92 95/104/93
f 80/105/94 79/106/95 82/107/96 81/108/97
f 81/108/97 82/107/96 98/109/98 97/110/99
f 83/111/100 84/112/101 100/113/102 99/114/103
f 84/112/101 83/111/100 86/115/104 85/116/105
f 85/116/105 86/115/104 102/117/106 101/118/107
f 88/119/108 87/120/109 90/121/110 89/122/111
f 89/122/111 90/121/110 104/123/112 103/124/113
f 92/125/114 91/126/115 94/127/116 93/128/117
f 93/128/117 94/127/116 106/129/118 105/130/119
f 82/107/96 89/122/111 86/115/104 83/111/100
f 78/101/90 75/100/89 114/131/120 115/141/121
f 82/107/96 79/106/95 88/119/108 89/122/111
f 111/133/122 112/144/123 90/121/110 87/120/109
f 78/101/90 115/141/121 116/142/124 96/103/92
f 82/107/96 83/111/100 99/114/103 98/109/98
f 86/115/104 89/122/111 103/124/113 102/117/106
f 90/121/110 112/144/123 113/145/125 104/123/112
f 84/112/101 108/137/126 107/138/127 100/113/102
f 109/139/128 108/137/126 84/112/101 85/116/105
f 110/140/129 109/139/128 85/116/105 101/118/107
f 93/128/117 112/134/123 111/146/122 92/125/114
f 113/136/125 112/134/123 93/128/117 105/130/119
f 115/132/121 114/143/120 80/105/94 81/108/97
f 116/135/124 115/132/121 81/108/97 97/110/99
