# Blender 4.0.2
# www.blender.org
mtllib Circle.mtl
o Circle
v 0.000000 0.000000 -1.000000
v -0.195090 0.000000 -0.980785
v -0.382683 0.000000 -0.923880
v -0.555570 0.000000 -0.831470
v -0.707107 0.000000 -0.707107
v -0.831470 0.000000 -0.555570
v -0.923880 0.000000 -0.382683
v -0.980785 0.000000 -0.195090
v -1.000000 0.000000 0.000000
v -0.980785 0.000000 0.195090
v -0.923880 0.000000 0.382683
v -0.831470 0.000000 0.555570
v -0.707107 0.000000 0.707107
v -0.555570 0.000000 0.831470
v -0.382683 0.000000 0.923880
v -0.195090 0.000000 0.980785
v 0.000000 0.000000 1.000000
v 0.195090 0.000000 0.980785
v 0.382683 0.000000 0.923880
v 0.555570 0.000000 0.831470
v 0.707107 0.000000 0.707107
v 0.831470 0.000000 0.555570
v 0.923880 0.000000 0.382683
v 0.980785 0.000000 0.195090
v 1.000000 0.000000 0.000000
v 0.980785 0.000000 -0.195090
v 0.923880 0.000000 -0.382683
v 0.831470 0.000000 -0.555570
v 0.707107 0.000000 -0.707107
v 0.555570 0.000000 -0.831470
v 0.382683 0.000000 -0.923880
v 0.195090 0.000000 -0.980785
vn -0.0000 1.0000 -0.0000
vt 0.960125 0.690590
vt 0.988466 0.402838
vt 0.998036 0.500000
vt 0.988466 0.597162
vt 0.914102 0.776694
vt 0.960125 0.309410
vt 0.852165 0.852165
vt 0.914102 0.223306
vt 0.776694 0.914102
vt 0.852165 0.147835
vt 0.690590 0.960125
vt 0.776694 0.085898
vt 0.597162 0.988466
vt 0.690590 0.039875
vt 0.500000 0.998036
vt 0.597162 0.011534
vt 0.402838 0.988466
vt 0.500000 0.001964
vt 0.309410 0.960125
vt 0.402838 0.011534
vt 0.223306 0.914102
vt 0.309410 0.039875
vt 0.147835 0.852165
vt 0.223306 0.085898
vt 0.085898 0.776694
vt 0.147835 0.147835
vt 0.039875 0.690590
vt 0.085898 0.223306
vt 0.011534 0.597162
vt 0.039875 0.309410
vt 0.001964 0.500000
vt 0.011534 0.402838
s 0
f 27/1/1 24/2/1 25/3/1 26/4/1
f 28/5/1 23/6/1 24/2/1 27/1/1
f 29/7/1 22/8/1 23/6/1 28/5/1
f 30/9/1 21/10/1 22/8/1 29/7/1
f 31/11/1 20/12/1 21/10/1 30/9/1
f 32/13/1 19/14/1 20/12/1 31/11/1
f 1/15/1 18/16/1 19/14/1 32/13/1
f 18/16/1 1/15/1 2/17/1 17/18/1
f 17/18/1 2/17/1 3/19/1 16/20/1
f 16/20/1 3/19/1 4/21/1 15/22/1
f 15/22/1 4/21/1 5/23/1 14/24/1
f 14/24/1 5/23/1 6/25/1 13/26/1
f 13/26/1 6/25/1 7/27/1 12/28/1
f 12/28/1 7/27/1 8/29/1 11/30/1
f 11/30/1 8/29/1 9/31/1 10/32/1
