# Blender 4.0.2
# www.blender.org
mtllib ConeCollider.mtl
o Cone
v 0.000000 0.000000 0.000000
v 0.000000 -0.000000 -1.000000
v -0.258819 -0.000000 -0.965926
v -0.500000 -0.000000 -0.866025
v -0.707107 -0.000000 -0.707107
v 0.707107 -0.000000 -0.707107
v 0.500000 -0.000000 -0.866025
v 0.258819 -0.000000 -0.965926
v -0.258819 0.512667 -0.965926
v -0.500000 0.512667 -0.866025
v 0.000000 0.512667 -0.000000
v -0.707107 0.512667 -0.707107
v 0.707107 0.512667 -0.707107
v 0.500000 0.512667 -0.866025
v 0.000000 0.512667 -1.000000
v 0.258819 0.512667 -0.965926
vn -0.0000 -1.0000 -0.0000
vn -0.0000 1.0000 -0.0000
vn 0.3827 -0.0000 -0.9239
vn -0.6088 -0.0000 -0.7934
vn 0.6088 -0.0000 -0.7934
vn -0.7071 -0.0000 0.7071
vn -0.3827 -0.0000 -0.9239
vn -0.1305 -0.0000 -0.9914
vn 0.1305 -0.0000 -0.9914
vn 0.7071 -0.0000 0.7071
vt 0.000000 0.000000
s 1
f 7/1/1 6/1/1 1/1/1 8/1/1
f 4/1/1 3/1/1 1/1/1 5/1/1
f 1/1/1 3/1/1 2/1/1 8/1/1
f 14/1/2 16/1/2 11/1/2 13/1/2
f 10/1/2 12/1/2 11/1/2 9/1/2
f 11/1/2 16/1/2 15/1/2 9/1/2
f 7/1/3 8/1/3 16/1/3 14/1/3
f 4/1/4 5/1/4 12/1/4 10/1/4
f 6/1/5 7/1/5 14/1/5 13/1/5
f 5/1/6 1/1/6 11/1/6 12/1/6
f 3/1/7 4/1/7 10/1/7 9/1/7
f 2/1/8 3/1/8 9/1/8 15/1/8
f 8/1/9 2/1/9 15/1/9 16/1/9
f 1/1/10 6/1/10 13/1/10 11/1/10
