# This file uses centimeters as units for non-parametric coordinates.

mtllib Var4_WallPlank.mtl
g default
v 0.500000 -4.135709 -0.068652
v -0.500000 -4.135709 -0.068646
v 0.500000 4.129106 -0.068652
v -0.500000 4.129106 -0.068646
v 0.500001 4.129106 0.068646
v -0.499999 4.129106 0.068653
v 0.500001 -4.135709 0.068646
v -0.499999 -4.135709 0.068653
vt 0.013182 0.004626
vt 0.070990 0.004626
vt 0.013182 0.482398
vt 0.070990 0.482398
vt 0.013182 0.490335
vt 0.070990 0.490335
vt 0.013182 0.968107
vt 0.070990 0.968107
vt 0.013182 0.976044
vt 0.070990 0.976044
vt 0.078927 0.004626
vt 0.078927 0.482398
vt 0.005245 0.004626
vt 0.005245 0.482398
vn -0.000006 0.000000 -1.000000
vn -0.000006 0.000000 -1.000000
vn -0.000006 0.000000 -1.000000
vn -0.000006 0.000000 -1.000000
vn -0.000000 1.000000 0.000000
vn -0.000000 1.000000 0.000000
vn -0.000000 1.000000 0.000000
vn -0.000000 1.000000 0.000000
vn 0.000006 0.000000 1.000000
vn 0.000006 0.000000 1.000000
vn 0.000006 0.000000 1.000000
vn 0.000006 0.000000 1.000000
vn 0.000000 -1.000000 0.000000
vn 0.000000 -1.000000 0.000000
vn 0.000000 -1.000000 0.000000
vn 0.000000 -1.000000 0.000000
vn -1.000000 0.000000 0.000006
vn -1.000000 0.000000 0.000006
vn -1.000000 0.000000 0.000006
vn -1.000000 0.000000 0.000006
vn 1.000000 0.000000 -0.000006
vn 1.000000 0.000000 -0.000006
vn 1.000000 0.000000 -0.000006
vn 1.000000 0.000000 -0.000006
s off
g initialShadingGroup Var4_WallPlank StandingPlankVariation4
f 1/1/1 2/2/2 4/4/3 3/3/4
f 3/3/5 4/4/6 6/6/7 5/5/8
f 5/5/9 6/6/10 8/8/11 7/7/12
f 7/7/13 8/8/14 2/10/15 1/9/16
f 2/2/17 8/11/18 6/12/19 4/4/20
f 7/13/21 1/1/22 3/3/23 5/14/24
