# This file uses centimeters as units for non-parametric coordinates.

mtllib Var1_WallPole.mtl
g default
v 0.109098 -3.385657 -0.264180
v -0.174237 -3.385657 -0.226571
v -0.283335 -3.385657 0.037607
v -0.109096 -3.385657 0.264181
v 0.174239 -3.385657 0.226568
v 0.283336 -3.385657 -0.037611
v 0.111483 2.964318 -0.269956
v -0.178046 2.964318 -0.231525
v -0.289529 2.964318 0.038429
v -0.111481 2.964318 0.269957
v 0.178048 2.964318 0.231522
v 0.289529 2.964318 -0.038433
v 0.028639 3.363895 -0.069359
v 0.014328 3.385657 -0.034703
v 0.074372 3.363895 -0.009875
v 0.037206 3.385657 -0.004945
v -0.022881 3.385657 -0.029757
v -0.045737 3.363896 -0.059475
v -0.037208 3.385657 0.004929
v -0.074370 3.363897 0.009855
v -0.028646 3.363894 0.069356
v -0.014331 3.385657 0.034698
v 0.022874 3.385657 0.029756
v 0.045730 3.363896 0.059472
vt 0.331548 0.003759
vt 0.348251 0.003759
vt 0.364955 0.003759
vt 0.381658 0.003759
vt 0.398361 0.003759
vt 0.415065 0.003759
vt 0.431768 0.003759
vt 0.331548 0.370837
vt 0.348251 0.370837
vt 0.364955 0.370837
vt 0.381658 0.370837
vt 0.398361 0.370837
vt 0.415065 0.370837
vt 0.431768 0.370837
vt 0.387462 0.675247
vt 0.386976 0.673516
vt 0.398595 0.696742
vt 0.389194 0.675580
vt 0.373355 0.696996
vt 0.387250 0.679202
vt 0.360542 0.675146
vt 0.383232 0.677898
vt 0.373187 0.652969
vt 0.382137 0.673890
vt 0.398854 0.652928
vt 0.384904 0.671028
vt 0.411655 0.675233
vt 0.388620 0.671919
vt 0.385254 0.673168
vt 0.384709 0.676399
vt 0.384122 0.674580
vt 0.386453 0.676841
vn 0.381697 -0.000984 -0.924287
vn -0.609604 -0.000984 -0.792706
vn -0.609517 0.016830 -0.792594
vn 0.381643 0.016831 -0.924157
vn -0.991305 -0.000984 0.131582
vn -0.991165 0.016831 0.131563
vn -0.381696 -0.000984 0.924287
vn -0.381643 0.016831 0.924156
vn 0.609611 -0.000984 0.792700
vn 0.609525 0.016831 0.792588
vn 0.991305 -0.000984 -0.131584
vn 0.991165 0.016831 -0.131564
vn 0.333700 0.485449 -0.808074
vn 0.136183 0.934185 -0.329776
vn 0.353691 0.934185 -0.046917
vn 0.866664 0.485454 -0.115014
vn -0.532965 0.485441 -0.693033
vn -0.217479 0.934192 -0.282822
vn 0.217516 0.934186 0.282814
vn 0.532971 0.485451 0.693022
vn -0.866672 0.485445 0.114991
vn -0.353682 0.934188 0.046923
vn -0.333743 0.485460 0.808050
vn -0.136238 0.934184 0.329755
s 1
g initialShadingGroup Var1_WallPole group7
f 1/1/1 2/2/2 8/9/3 7/8/4
f 2/2/2 3/3/5 9/10/6 8/9/3
f 3/3/5 4/4/7 10/11/8 9/10/6
f 4/4/7 5/5/9 11/12/10 10/11/8
f 5/5/9 6/6/11 12/13/12 11/12/10
f 6/6/11 1/7/1 7/14/4 12/13/12
f 13/20/13 14/32/14 16/15/15 15/18/16
f 14/32/14 13/20/13 18/22/17 17/30/18
f 15/18/16 16/15/15 23/16/19 24/28/20
f 17/30/18 18/22/17 20/24/21 19/31/22
f 19/31/22 20/24/21 21/26/23 22/29/24
f 22/29/24 21/26/23 24/28/20 23/16/19
f 7/17/4 13/20/13 15/18/16 12/27/12
f 7/17/4 8/19/3 18/22/17 13/20/13
f 8/19/3 9/21/6 20/24/21 18/22/17
f 9/21/6 10/23/8 21/26/23 20/24/21
f 10/23/8 11/25/10 24/28/20 21/26/23
f 11/25/10 12/27/12 15/18/16 24/28/20
f 22/29/24 14/32/14 17/30/18 19/31/22
f 16/15/15 14/32/14 22/29/24 23/16/19
