# This file uses centimeters as units for non-parametric coordinates.

mtllib Var1_WallFloorboard.mtl
g default
v 0.367148 -0.034197 1.782225
v 0.367173 -0.034197 -1.782220
v 0.367148 0.034198 1.782225
v 0.367173 0.034198 -1.782220
v -0.367172 0.034198 1.782220
v -0.367146 0.034198 -1.782225
v -0.367172 -0.034197 1.782220
v -0.367146 -0.034197 -1.782225
vt 0.748465 0.097703
vt 0.954519 0.097703
vt 0.748465 0.101657
vt 0.954519 0.101657
vt 0.748465 0.144107
vt 0.954519 0.144106
vt 0.748465 0.148060
vt 0.954519 0.148060
vt 0.748465 0.190510
vt 0.954519 0.190510
vt 0.996968 0.097703
vt 0.996968 0.101657
vt 0.706016 0.097703
vt 0.706016 0.101657
vn 1.000000 0.000000 0.000007
vn 1.000000 0.000000 0.000007
vn 1.000000 0.000000 0.000007
vn 1.000000 0.000000 0.000007
vn 0.000000 1.000000 -0.000000
vn 0.000000 1.000000 -0.000000
vn 0.000000 1.000000 -0.000000
vn 0.000000 1.000000 -0.000000
vn -1.000000 0.000000 -0.000007
vn -1.000000 0.000000 -0.000007
vn -1.000000 0.000000 -0.000007
vn -1.000000 0.000000 -0.000007
vn -0.000000 -1.000000 0.000000
vn -0.000000 -1.000000 0.000000
vn -0.000000 -1.000000 0.000000
vn -0.000000 -1.000000 0.000000
vn 0.000007 0.000000 -1.000000
vn 0.000007 0.000000 -1.000000
vn 0.000007 0.000000 -1.000000
vn 0.000007 0.000000 -1.000000
vn -0.000007 0.000000 1.000000
vn -0.000007 0.000000 1.000000
vn -0.000007 0.000000 1.000000
vn -0.000007 0.000000 1.000000
s off
g initialShadingGroup Var1_WallFloorboard group3
f 1/1/1 2/2/2 4/4/3 3/3/4
f 3/3/5 4/4/6 6/6/7 5/5/8
f 5/5/9 6/6/10 8/8/11 7/7/12
f 7/7/13 8/8/14 2/10/15 1/9/16
f 2/2/17 8/11/18 6/12/19 4/4/20
f 7/13/21 1/1/22 3/3/23 5/14/24
