# This file uses centimeters as units for non-parametric coordinates.

mtllib Var2_WallFloorboard.mtl
g default
v -0.354391 -0.034199 -1.735833
v -0.367157 -0.013003 -1.675326
v -0.354393 -0.016494 -1.739343
v -0.354393 -0.016606 1.739342
v -0.367156 -0.013111 1.675324
v -0.354389 -0.034311 1.735830
v -0.349546 0.029347 -1.628311
v -0.367161 0.018040 -1.613369
v -0.349547 0.034193 -1.603871
v -0.349548 0.034089 1.603873
v -0.367163 0.017936 1.613370
v -0.349547 0.029242 1.628312
v 0.349820 0.029537 -1.628122
v 0.349537 0.034305 -1.603871
v 0.367158 0.018159 -1.613368
v 0.367157 0.018055 1.613370
v 0.349819 0.034202 1.604075
v 0.349819 0.029432 1.628124
v 0.354400 -0.016380 -1.739342
v 0.367163 -0.012884 -1.675326
v 0.354403 -0.034085 -1.735832
v 0.354403 -0.034197 1.735830
v 0.367162 -0.012992 1.675324
v 0.354399 -0.016492 1.739342
vt 0.795742 0.372098
vt 0.794699 0.372098
vt 0.794712 0.331120
vt 0.988795 0.010066
vt 0.798545 0.283077
vt 0.997132 0.372115
vt 0.996089 0.372115
vt 0.997117 0.331139
vt 0.980014 0.013085
vt 0.801261 0.286296
vt 0.801952 0.326608
vt 0.802148 0.284867
vt 0.972510 0.011710
vt 0.990526 0.286025
vt 0.801705 0.326811
vt 0.795500 0.330061
vt 0.803377 0.326515
vt 0.988458 0.326543
vt 0.990123 0.326828
vt 0.996329 0.330080
vt 0.799276 0.329691
vt 0.992552 0.329709
vt 0.996073 0.331139
vt 0.976500 0.011713
vt 0.802702 0.286248
vt 0.989084 0.285976
vt 0.802803 0.327896
vt 0.989023 0.327913
vt 0.795756 0.331120
vt 0.979972 0.053988
vt 0.973083 0.053976
vt 0.988780 0.052253
vt 0.988806 0.011440
vt 0.995724 0.011702
vt 0.995708 0.052298
vt 0.996744 0.281358
vt 0.973081 0.013349
vt 0.989871 0.326620
vt 0.989634 0.284594
vt 0.971652 0.013355
vt 0.997150 0.011693
vt 0.996293 0.010069
vt 0.993230 0.282794
vt 0.992312 0.010069
vt 0.980032 0.011709
vt 0.795027 0.281652
vn -0.007274 -0.999960 -0.005146
vn -0.011806 0.858349 -0.512931
vn 0.011500 0.858458 -0.512754
vn 0.007596 -0.999958 -0.005146
vn -0.907984 -0.418966 -0.005700
vn -0.007274 -0.999961 0.005082
vn -0.907984 -0.418966 0.005674
vn -0.979479 0.201536 -0.002189
vn -0.022668 0.935943 -0.351420
vn -0.011807 0.858321 0.512977
vn 0.007596 -0.999958 0.005082
vn 0.011499 0.858425 0.512810
vn -0.022687 0.935840 0.351694
vn -0.979479 0.201536 0.002201
vn -0.027865 0.999611 -0.001422
vn 0.027545 0.999620 -0.001433
vn 0.022419 0.935900 -0.351553
vn -0.027861 0.999611 0.001486
vn 0.022385 0.935859 0.351663
vn 0.027497 0.999621 0.001486
vn 0.979729 0.200317 -0.002180
vn 0.908061 -0.418801 -0.005658
vn 0.979618 0.200857 0.002180
vn 0.908061 -0.418800 0.005631
s 1
g initialShadingGroup Var2_Wallfloorboard group4
f 1/1/1 3/2/2 19/3/3 21/29/4
f 2/5/5 1/46/1 6/36/6 5/43/7
f 3/33/2 2/44/5 8/42/8 7/34/9
f 4/6/10 6/7/6 22/23/11 24/8/12
f 5/24/7 4/9/10 12/37/13 11/13/14
f 7/10/9 9/25/15 14/17/16 13/11/17
f 9/25/15 8/12/8 11/39/14 10/26/18
f 10/26/18 12/14/13 18/38/19 17/18/20
f 13/15/17 15/27/21 20/21/22 19/16/3
f 15/27/21 14/17/16 17/18/20 16/28/23
f 16/28/23 18/19/19 24/20/12 23/22/24
f 21/29/4 20/21/22 23/22/24 22/23/11
f 2/5/5 5/43/7 11/39/14 8/12/8
f 9/25/15 10/26/18 17/18/20 14/17/16
f 15/27/21 16/28/23 23/22/24 20/21/22
f 21/29/4 22/23/11 6/7/6 1/1/1
f 4/9/10 24/30/12 18/31/19 12/37/13
f 19/32/3 3/33/2 7/34/9 13/35/17
f 1/4/1 2/44/5 3/33/2
f 4/9/10 5/24/7 6/45/6
f 7/34/9 8/42/8 9/41/15
f 10/40/18 11/13/14 12/37/13
f 13/11/17 14/17/16 15/27/21
f 16/28/23 17/18/20 18/38/19
f 19/16/3 20/21/22 21/29/4
f 22/23/11 23/22/24 24/20/12
