# This file uses centimeters as units for non-parametric coordinates.

mtllib Var3_WallFloorboard.mtl
g default
v 0.342639 -0.034241 1.770657
v 0.349469 -0.019937 1.771493
v 0.326559 -0.019879 1.782222
v 0.326559 -0.019807 -1.782223
v 0.348093 -0.018751 -1.770659
v 0.342639 -0.034169 -1.770659
v 0.278403 0.022345 1.782223
v 0.289920 0.028220 1.769639
v 0.273142 0.034156 1.769639
v 0.273142 0.034227 -1.769637
v 0.290029 0.028204 -1.769453
v 0.278403 0.022417 -1.782222
v -0.278404 0.022357 1.782223
v -0.273141 0.034168 1.769638
v -0.289920 0.028233 1.769638
v -0.289919 0.028304 -1.769638
v -0.273001 0.034239 -1.769454
v -0.278401 0.022429 -1.782223
v -0.326561 -0.019865 1.782222
v -0.348094 -0.018808 1.770657
v -0.342640 -0.034226 1.770657
v -0.342639 -0.034155 -1.770659
v -0.349471 -0.019850 -1.771494
v -0.326560 -0.019793 -1.782223
vt 0.763671 0.277046
vt 0.762607 0.276113
vt 0.762728 0.238287
vt 0.762768 0.193346
vt 0.762935 0.194238
vt 0.968561 0.276493
vt 0.967493 0.277422
vt 0.968592 0.238664
vt 0.969467 0.195010
vt 0.761380 0.199421
vt 0.762360 0.231538
vt 0.762482 0.198637
vt 0.968812 0.198634
vt 0.969922 0.199416
vt 0.762261 0.232191
vt 0.762841 0.235997
vt 0.763343 0.231143
vt 0.968101 0.231430
vt 0.969195 0.232529
vt 0.968498 0.236347
vt 0.763958 0.236425
vt 0.967388 0.236831
vt 0.967525 0.237731
vt 0.968425 0.194354
vt 0.762388 0.199663
vt 0.968914 0.199668
vt 0.763308 0.232172
vt 0.968149 0.232468
vt 0.763799 0.237358
vt 0.997780 0.220108
vt 0.994091 0.220108
vt 0.733140 0.219592
vt 0.761901 0.194974
vt 0.761377 0.198708
vt 0.736829 0.219657
vt 0.968607 0.193427
vt 0.969924 0.198746
vt 0.969093 0.231829
vn 0.022171 -0.999752 0.002157
vn 0.027732 -0.355748 0.934170
vn -0.027933 -0.356716 0.933795
vn -0.021504 -0.999766 0.002166
vn 0.762262 0.647265 0.002083
vn 0.021461 -0.999767 -0.002207
vn 0.765399 0.643552 -0.002244
vn 0.578484 0.815687 0.003485
vn 0.009997 0.135773 0.990690
vn 0.028084 -0.356435 -0.933898
vn -0.022213 -0.999751 -0.002198
vn -0.027749 -0.355701 -0.934188
vn 0.010261 0.136905 -0.990531
vn 0.578018 0.816017 -0.003434
vn 0.010608 0.999936 0.003916
vn -0.010488 0.999937 0.003916
vn -0.010231 0.135922 0.990667
vn 0.010543 0.999937 -0.003878
vn -0.010008 0.136275 -0.990621
vn -0.010551 0.999937 -0.003884
vn -0.577841 0.816142 0.003469
vn -0.765090 0.643919 0.002263
vn -0.578378 0.815762 -0.003458
vn -0.762136 0.647414 -0.002055
s 1
g initialShadingGroup Var3_WallFloorboard group5
f 1/1/1 3/2/2 19/3/3 21/29/4
f 2/5/5 1/4/1 6/36/6 5/24/7
f 3/33/2 2/5/5 8/12/8 7/34/9
f 4/6/10 6/7/6 22/23/11 24/8/12
f 5/24/7 4/9/10 12/37/13 11/13/14
f 7/10/9 9/25/15 14/17/16 13/11/17
f 9/25/15 8/12/8 11/13/14 10/26/18
f 10/26/18 12/14/13 18/38/19 17/18/20
f 13/15/17 15/27/21 20/21/22 19/16/3
f 15/27/21 14/17/16 17/18/20 16/28/23
f 16/28/23 18/19/19 24/20/12 23/22/24
f 21/29/4 20/21/22 23/22/24 22/23/11
f 2/5/5 5/24/7 11/13/14 8/12/8
f 9/25/15 10/26/18 17/18/20 14/17/16
f 15/27/21 16/28/23 23/22/24 20/21/22
f 21/29/4 22/23/11 6/7/6 1/1/1
f 4/9/10 24/30/12 18/31/19 12/37/13
f 19/32/3 3/33/2 7/34/9 13/35/17
f 1/4/1 2/5/5 3/33/2
f 4/9/10 5/24/7 6/36/6
f 7/34/9 8/12/8 9/25/15
f 10/26/18 11/13/14 12/37/13
f 13/11/17 14/17/16 15/27/21
f 16/28/23 17/18/20 18/38/19
f 19/16/3 20/21/22 21/29/4
f 22/23/11 23/22/24 24/20/12
