# This file uses centimeters as units for non-parametric coordinates.

mtllib Rock_VarOne_Thomas.mtl
g default
v 0.678509 -0.466807 2.431492
v 0.714097 -0.283216 2.467165
v 0.764551 -0.329931 1.407214
v 0.758951 -0.101187 1.435639
v -0.666858 0.140125 2.302275
v -0.876909 0.380403 1.689940
v -0.846419 -0.443899 2.187221
v -0.769366 -0.526305 1.434682
v -0.577794 0.322741 0.983527
v -0.472613 -0.407493 0.873878
v -0.148340 0.099430 0.209381
v -0.157582 -0.301817 0.255998
v -0.465956 0.150331 -0.567093
v -0.286725 -0.422789 -0.393892
v 1.182775 -0.393469 1.091938
v 1.231169 0.071213 1.095648
v 1.510765 0.171133 0.544479
v 1.803360 0.241037 0.171808
v 1.325266 -0.398498 0.483142
v 1.653620 -0.363488 0.099681
v 1.824531 -0.351800 -0.615633
v 1.946490 0.254637 -0.523444
v -0.590040 0.315200 -0.917019
v -0.513969 -0.508471 -0.952415
v 1.381202 -0.246582 -1.064491
v 1.484787 0.198107 -1.001501
v -0.451592 0.336034 -1.886943
v -0.520812 -0.497377 -1.968380
v 0.166687 -0.105409 2.484475
v 0.110757 -0.498525 2.347979
v 0.319937 -0.513495 1.316835
v 0.479806 -0.533249 0.876866
v 0.629790 -0.529044 0.387174
v 0.761977 -0.521990 -0.117485
v 0.836677 -0.499755 -0.611416
v 0.829560 -0.252263 -1.311145
v 0.941348 0.271230 -1.351576
v 1.012441 0.525341 -0.689541
v 0.911534 0.588482 -0.264979
v 0.736604 0.530620 0.440988
v 0.461764 0.472751 1.195808
v 0.260813 0.306796 1.544689
v -0.306153 -0.477628 2.308710
v -0.302582 0.053712 2.509363
v -0.119218 0.514640 1.596208
v 0.048328 0.545146 1.142075
v 0.329901 0.445433 0.343186
v 0.387421 0.540585 -0.395724
v 0.455108 0.563288 -0.807189
v 0.595775 0.369252 -1.672193
v 0.518878 -0.393912 -1.653576
v 0.412107 -0.521126 -0.717743
v 0.362751 -0.517165 -0.200776
v 0.278121 -0.532255 0.324843
v 0.137261 -0.535439 0.833957
v -0.014659 -0.533962 1.303388
v 0.713395 -0.418558 1.799296
v 0.695473 -0.150567 1.858018
v 0.191023 0.275350 1.920244
v -0.244158 0.432013 2.016087
v -0.776248 0.261067 2.017685
v -0.825676 -0.479802 1.831452
v -0.130913 -0.541684 1.698699
v 0.205199 -0.544999 1.715381
v 0.453802 -0.216563 2.501990
v 0.438554 -0.501937 2.429425
v 0.501196 -0.525192 1.750947
v 0.612332 -0.505665 1.367521
v 0.828701 -0.538956 0.959414
v 1.010592 -0.534825 0.452886
v 1.189016 -0.495454 -0.035637
v 1.280696 -0.485642 -0.550274
v 1.155145 -0.241470 -1.154207
v 1.208023 0.215493 -1.142491
v 1.547086 0.482153 -0.632409
v 1.433821 0.552915 -0.082718
v 1.175621 0.438231 0.529178
v 0.848486 0.290079 1.187006
v 0.592197 0.150623 1.512805
v 0.470445 0.091114 1.915350
v 0.697003 -0.475291 2.165633
v 0.712285 -0.207699 2.200123
v 0.403343 0.045071 2.185565
v 0.138301 0.148043 2.291478
v -0.273647 0.237755 2.314635
v -0.714657 0.193891 2.168254
v -0.850985 -0.460446 2.051149
v -0.220071 -0.523837 2.023177
v 0.134833 -0.520395 2.048442
v 0.448868 -0.521761 2.106388
v 0.713491 -0.379875 2.465869
v 0.442585 -0.370567 2.513292
v 0.187702 -0.320357 2.514008
v -0.397851 -0.250832 2.521255
v -0.885030 -0.152210 2.339718
v -0.921621 -0.117627 2.126848
v -0.957084 -0.114855 1.968534
v -0.963620 -0.086638 1.598602
v -0.618822 -0.100609 0.891364
v -0.210732 -0.178228 0.193481
v -0.500010 -0.183859 -0.484101
v -0.889048 -0.105856 -0.973678
v -0.556629 -0.077419 -2.004613
v 0.643291 -0.067209 -1.971416
v 0.859320 -0.019387 -1.439468
v 1.168812 -0.017029 -1.231694
v 1.457434 -0.024110 -1.067211
v 1.956766 -0.059063 -0.590247
v 1.811911 -0.084772 0.174383
v 1.492438 -0.134360 0.553610
v 1.253929 -0.169026 1.128262
v 0.754951 -0.203266 1.424647
v 0.737443 -0.270758 1.848540
v 0.751437 -0.340573 2.195817
v -0.681923 -0.453663 2.236076
v -0.724729 -0.192474 2.434184
v -0.546535 0.126642 2.398588
v -0.575583 0.270258 2.259344
v -0.617295 0.396781 2.051806
v -0.610837 0.536310 1.635976
v -0.349636 0.501574 1.056571
v 0.010746 0.280344 0.259088
v -0.101429 0.358433 -0.507699
v -0.086179 0.525784 -0.890478
v 0.002671 0.437314 -1.904570
v -0.045345 -0.016405 -2.176776
v 0.020713 -0.510936 -1.890511
v -0.020570 -0.522452 -0.846989
v 0.002571 -0.514508 -0.288723
v -0.040137 -0.521834 0.275967
v -0.191511 -0.524664 0.827792
v -0.376906 -0.539910 1.344623
v -0.484705 -0.542982 1.732287
v -0.573679 -0.533406 2.023009
v 1.604162 -0.306516 -0.856075
v 1.716767 -0.042159 -0.852771
v 1.719737 0.232765 -0.780996
v 1.389771 0.378897 -0.935949
v 1.075971 0.412467 -1.046976
v 0.528620 0.525769 -1.241146
v -0.147966 0.661055 -1.449833
v -0.659470 0.455194 -1.511050
v -0.913045 -0.088885 -1.595321
v -0.569382 -0.533248 -1.486396
v -0.045175 -0.534273 -1.392437
v 0.438643 -0.486062 -1.210886
v 0.856485 -0.483509 -1.039282
v 1.232736 -0.405173 -0.921114
v -0.266327 0.185691 0.608970
v -0.320884 -0.132293 0.566577
v -0.275500 -0.328249 0.559222
v -0.111413 -0.525122 0.532627
v 0.212615 -0.524392 0.562081
v 0.559952 -0.520158 0.615370
v 0.922199 -0.516694 0.687847
v 1.267953 -0.406598 0.769471
v 1.412396 -0.158117 0.833382
v 1.423983 0.145123 0.824911
v 1.063112 0.433695 0.867607
v 0.618532 0.573686 0.802889
v 0.195347 0.590585 0.709206
v -0.115682 0.365256 0.649005
v -0.252148 0.085985 -0.238004
v -0.305426 -0.169343 -0.258354
v -0.205972 -0.348586 -0.153721
v -0.009232 -0.503807 -0.072693
v 0.330215 -0.531584 0.000775
v 0.711328 -0.529323 0.076078
v 1.117621 -0.493759 0.151355
v 1.549686 -0.410640 0.260598
v 1.736861 -0.121370 0.357492
v 1.715447 0.228849 0.335698
v 1.298153 0.452819 0.231687
v 0.828849 0.577384 0.106372
v 0.371677 0.467191 -0.021915
v -0.017155 0.295648 -0.131916
vt 0.796878 0.416917
vt 0.127806 0.859136
vt 0.137756 0.847510
vt 0.179030 0.848463
vt 0.832563 0.391686
vt 0.788606 0.395841
vt 0.772422 0.336788
vt 0.837371 0.351134
vt 0.105530 0.591272
vt 0.804090 0.098437
vt 0.165465 0.612331
vt 0.146281 0.615776
vt 0.134885 0.811993
vt 0.186620 0.809217
vt 0.255078 0.611490
vt 0.713395 0.058227
vt 0.577052 0.072506
vt 0.350379 0.622673
vt 0.410839 0.595408
vt 0.409411 0.627756
vt 0.461480 0.628706
vt 0.468262 0.605880
vt 0.533762 0.579373
vt 0.527339 0.616989
vt 0.373319 0.933079
vt 0.665167 0.434175
vt 0.305145 0.863095
vt 0.381996 0.896839
vt 0.658206 0.419098
vt 0.564230 0.451197
vt 0.587081 0.383337
vt 0.656618 0.366902
vt 0.512609 0.463702
vt 0.522720 0.391924
vt 0.424496 0.486972
vt 0.421973 0.409306
vt 0.469033 0.399681
vt 0.468105 0.473254
vt 0.432264 0.898294
vt 0.532477 0.506902
vt 0.521563 0.920659
vt 0.438670 0.539517
vt 0.469873 0.951837
vt 0.477570 0.899395
vt 0.310249 0.822833
vt 0.384314 0.835055
vt 0.430872 0.838393
vt 0.470349 0.842987
vt 0.520253 0.849202
vt 0.671403 0.979268
vt 0.404230 0.544894
vt 0.549127 0.932791
vt 0.659269 0.931155
vt 0.284697 0.429315
vt 0.369144 0.415287
vt 0.398209 0.492806
vt 0.294766 0.496232
vt 0.568779 0.605979
vt 0.571469 0.549460
vt 0.232056 0.010254
vt 0.655394 0.566175
vt 0.693255 0.898820
vt 0.221024 0.500929
vt 0.758659 0.464617
vt 0.732849 0.551470
vt 0.252757 0.470978
vt 0.235455 0.412167
vt 0.861770 0.357597
vt 0.724939 0.864786
vt 0.738983 0.829627
vt 0.151518 0.412466
vt 0.183148 0.456783
vt 0.551651 0.853115
vt 0.633686 0.850726
vt 0.692619 0.838305
vt 0.140637 0.639843
vt 0.856284 0.149609
vt 0.176575 0.654024
vt 0.370413 0.668878
vt 0.284626 0.664820
vt 0.419300 0.668880
vt 0.519783 0.660946
vt 0.462489 0.669321
vt 0.645097 0.645717
vt 0.555479 0.657560
vt 0.728792 0.632963
vt 0.843639 0.514211
vt 0.892268 0.599305
vt 0.805313 0.627532
vt 0.801098 0.552109
vt 0.170906 0.178430
vt 0.154920 0.102258
vt 0.245537 0.094142
vt 0.256430 0.179403
vt 0.309237 0.095200
vt 0.321781 0.165060
vt 0.385794 0.174482
vt 0.371657 0.118917
vt 0.446961 0.141663
vt 0.451579 0.184506
vt 0.521389 0.185920
vt 0.517614 0.145622
vt 0.596175 0.134898
vt 0.597018 0.182319
vt 0.688549 0.170888
vt 0.708389 0.129724
vt 0.813241 0.186244
vt 0.784293 0.181716
vt 0.781754 0.153844
vt 0.802588 0.164494
vt 0.866856 0.313479
vt 0.875950 0.210015
vt 0.135868 0.697255
vt 0.139069 0.761703
vt 0.834087 0.303455
vt 0.784593 0.291987
vt 0.788118 0.227648
vt 0.827743 0.225799
vt 0.660093 0.306722
vt 0.593009 0.315814
vt 0.594667 0.247352
vt 0.668526 0.240298
vt 0.524442 0.318688
vt 0.524207 0.250131
vt 0.410313 0.327994
vt 0.397971 0.248106
vt 0.457802 0.249176
vt 0.464474 0.323028
vt 0.267735 0.262921
vt 0.335593 0.250477
vt 0.349842 0.334315
vt 0.279438 0.348406
vt 0.217758 0.364707
vt 0.196039 0.278042
vt 0.869504 0.721704
vt 0.111091 0.367793
vt 0.760149 0.776198
vt 0.792797 0.708696
vt 0.717569 0.711318
vt 0.700726 0.777676
vt 0.630837 0.782206
vt 0.635777 0.714938
vt 0.550386 0.783981
vt 0.551154 0.717994
vt 0.465304 0.722461
vt 0.518140 0.718856
vt 0.518364 0.782246
vt 0.467053 0.780636
vt 0.380754 0.721788
vt 0.425821 0.721751
vt 0.428911 0.778885
vt 0.384858 0.777898
vt 0.310836 0.772806
vt 0.303259 0.718822
vt 0.183927 0.706793
vt 0.188481 0.760674
vt 0.735906 0.421947
vt 0.239343 0.850471
vt 0.726397 0.349797
vt 0.730032 0.402234
vt 0.735493 0.229303
vt 0.721355 0.298545
vt 0.757485 0.143712
vt 0.750348 0.174632
vt 0.197446 0.609724
vt 0.779279 0.081012
vt 0.222231 0.661164
vt 0.244157 0.765289
vt 0.237793 0.713439
vt 0.244862 0.812378
vt 0.094943 0.195145
vt 0.094172 0.126435
vt 0.160986 0.350972
vt 0.120586 0.288213
vt 0.189114 0.397433
vt 0.214922 0.439575
vt 0.514356 0.976268
vt 0.486446 0.520599
vt 0.378529 0.075689
vt 0.336303 0.049469
vt 0.425306 0.945114
vt 0.583499 0.483874
vt 0.507365 0.094445
vt 0.448158 0.094654
vt 0.119247 0.020091
vt 0.044661 0.084831
vt 0.718883 0.937844
vt 0.272437 0.539322
vt 0.014350 0.179669
vt 0.034771 0.303747
vt 0.092492 0.622493
vt 0.837480 0.120233
vt 0.173179 0.871369
vt 0.843060 0.401367
vt 0.231285 0.874774
vt 0.296830 0.881620
vt 0.546135 0.984332
vt 0.751582 0.891720
vt 0.774835 0.842579
vt 0.802068 0.791197
vt 0.651593 0.476042
vt 0.348526 0.566029
vt 0.222146 0.538182
vt 0.161547 0.555534
vt 0.135661 0.566487
vt 0.085656 0.680612
vt 0.100183 0.775756
vt 0.110481 0.816519
vn 0.997989 -0.057597 0.026464
vn 0.704326 -0.208402 0.678597
vn 0.407528 -0.850277 0.333091
vn 0.549039 -0.835783 0.004838
vn 0.584556 0.591088 0.555797
vn 0.703447 0.664312 0.252689
vn 0.513387 0.767231 0.384434
vn 0.339002 0.596687 0.727353
vn -0.793114 0.076564 0.604242
vn -0.959459 0.154420 0.235784
vn -0.723185 -0.685247 0.086257
vn -0.698538 -0.596145 0.395799
vn 0.008790 -0.927379 0.374020
vn 0.109957 -0.993426 0.031851
vn -0.706636 -0.647033 -0.286381
vn -0.964422 -0.003159 -0.264347
vn -0.855795 -0.004781 -0.517294
vn -0.666362 -0.605458 -0.435180
vn -0.843908 0.034836 -0.535356
vn -0.763056 -0.481002 -0.431721
vn -0.860455 -0.498687 -0.104535
vn -0.999791 -0.009520 -0.018090
vn -0.903023 -0.014431 0.429350
vn -0.785891 -0.574739 0.228146
vn 0.723963 -0.133996 0.676700
vn 0.778454 -0.032742 0.626847
vn 0.627990 -0.629953 0.456933
vn 0.561689 -0.690759 0.455366
vn 0.688569 0.342831 0.639015
vn 0.626391 0.376075 0.682790
vn 0.445351 0.646658 0.619270
vn 0.567205 0.655008 0.499243
vn 0.769654 0.477636 0.423671
vn 0.425168 0.837899 0.342284
vn 0.614742 0.586995 0.526810
vn 0.271558 0.921130 0.278883
vn 0.376704 0.905182 0.196826
vn 0.706386 0.526854 0.472698
vn 0.587421 -0.790763 0.172137
vn 0.903088 -0.251672 0.347985
vn 0.467348 -0.836806 0.285206
vn 0.759104 -0.273077 0.590923
vn 0.800745 -0.315657 0.509086
vn 0.483931 -0.838534 0.250345
vn 0.230244 -0.964034 0.132768
vn 0.196155 -0.967644 0.158707
vn 0.173997 -0.983505 0.049420
vn 0.157968 -0.986336 0.046777
vn 0.155427 -0.987662 0.019154
vn 0.975823 -0.203659 -0.079325
vn 0.943451 -0.237247 0.231550
vn 0.573792 -0.810771 0.115816
vn 0.618586 -0.781065 -0.085378
vn 0.377896 0.914312 -0.145700
vn 0.327213 0.941048 0.085792
vn 0.799167 0.549646 0.243355
vn 0.853330 0.520948 -0.021001
vn -0.471617 -0.830964 0.295087
vn -0.811150 -0.222205 0.540982
vn -0.961030 -0.083432 0.263555
vn -0.482744 -0.859556 0.167693
vn 0.455250 -0.710068 -0.537170
vn 0.695613 -0.049647 -0.716700
vn -0.982889 -0.025183 -0.182471
vn -0.481101 -0.873560 -0.073724
vn 0.635227 0.440196 -0.634597
vn 0.329965 0.803682 -0.495195
vn -0.013302 -0.287338 0.957737
vn 0.437047 -0.498871 -0.748410
vn 0.386346 -0.567108 -0.727410
vn 0.520402 -0.076668 -0.850473
vn 0.565743 -0.016011 -0.824426
vn 0.171696 -0.985099 0.010008
vn 0.183854 -0.981233 -0.058135
vn 0.225156 -0.913982 -0.337554
vn -0.225757 -0.806601 0.546287
vn -0.373581 -0.213272 0.902747
vn -0.087927 -0.989181 0.117428
vn -0.188689 -0.971460 -0.143740
vn -0.102258 -0.991002 -0.086364
vn -0.370766 -0.912059 -0.175162
vn -0.372224 -0.927363 0.038035
vn -0.403073 -0.912896 -0.064442
vn -0.030154 -0.998930 0.035061
vn -0.124872 -0.989696 0.070064
vn 0.059688 -0.997663 -0.033239
vn -0.551753 -0.006566 -0.833982
vn 0.123326 0.043397 -0.991417
vn 0.147271 -0.817489 -0.556797
vn -0.359090 -0.722631 -0.590643
vn -0.098955 0.990145 -0.099101
vn -0.666912 0.737014 -0.109725
vn -0.660136 0.679787 0.319547
vn -0.223213 0.947733 0.227989
vn -0.658894 0.543698 0.519857
vn -0.409385 0.858492 0.308861
vn -0.532209 0.827194 0.180289
vn -0.801156 0.480362 0.356934
vn -0.884916 0.459633 -0.075239
vn -0.551684 0.819122 -0.157111
vn -0.442355 0.810401 -0.384152
vn -0.716990 0.439216 -0.541307
vn -0.760989 0.443866 -0.473159
vn -0.307863 0.920384 -0.241069
vn -0.285443 0.958390 -0.003430
vn -0.863848 0.476816 -0.162519
vn -0.274685 0.445494 0.852105
vn -0.181514 0.783388 0.594437
vn -0.747418 0.525020 0.407087
vn -0.631133 0.512164 0.582546
vn -0.044617 -0.312367 0.948913
vn -0.155813 -0.303899 0.939877
vn -0.103088 -0.855316 0.507748
vn -0.066871 -0.899629 0.431503
vn 0.191229 0.417901 0.888139
vn 0.329290 0.764079 0.554753
vn 0.163509 0.785691 0.596619
vn 0.010817 0.383642 0.923418
vn 0.397909 0.850956 0.342845
vn 0.258008 0.880235 0.398268
vn 0.017274 0.996668 0.079713
vn 0.165702 0.971381 0.170182
vn 0.156894 0.980173 0.121019
vn -0.157542 0.975726 -0.152119
vn -0.030893 0.991543 0.126049
vn -0.309499 0.946148 0.094950
vn -0.276602 0.948983 -0.151401
vn 0.051030 0.998686 -0.004722
vn 0.007999 0.999611 0.026722
vn -0.198235 0.974587 0.104324
vn 0.012747 0.999892 0.007337
vn 0.102660 0.984701 -0.140797
vn 0.274740 0.901557 -0.334235
vn 0.215034 0.960817 -0.174905
vn 0.543899 -0.044432 -0.837973
vn 0.801620 -0.130286 -0.583464
vn 0.553734 -0.670805 -0.493355
vn 0.424870 -0.780413 -0.458739
vn 0.175765 -0.977232 -0.118847
vn 0.205631 -0.945389 -0.252893
vn 0.061008 -0.996910 -0.049476
vn 0.030356 -0.999352 -0.019323
vn 0.038970 -0.999044 -0.019811
vn 0.003273 -0.999931 -0.011283
vn -0.014355 -0.999897 -0.000076
vn -0.019204 -0.999535 -0.023699
vn 0.032894 -0.999130 -0.025652
vn 0.013304 -0.999899 0.004971
vn 0.008113 -0.999957 -0.004452
vn -0.001995 -0.999970 -0.007557
vn 0.004643 -0.999971 -0.006032
vn 0.010761 -0.999918 0.006980
vn 0.026108 -0.999645 0.005411
vn 0.012527 -0.999859 -0.011163
vn -0.012948 -0.994519 0.103755
vn -0.008321 -0.997405 0.071509
vn 0.999195 0.017981 0.035877
vn 0.735935 -0.677052 0.000686
vn 0.615859 0.751503 0.236560
vn 0.822799 0.537474 0.184727
vn 0.181587 0.918553 0.351122
vn 0.426015 0.855112 0.295456
vn -0.809772 0.497940 0.310363
vn -0.203937 0.899296 0.386881
vn -0.699099 -0.714908 -0.012921
vn -0.992555 -0.006784 0.121604
vn -0.052371 -0.998283 0.026255
vn 0.025733 -0.999669 -0.000061
vn 0.011325 -0.999867 0.011704
vn 0.228973 -0.973391 -0.009031
vn 0.110481 0.738838 -0.664765
vn -0.435998 0.596790 -0.673608
vn 0.609175 0.568022 -0.553405
vn 0.444689 0.689686 -0.571475
vn 0.510087 0.384216 -0.769538
vn 0.549376 0.327158 -0.768865
s 1
g Rock_VarOne_low RockVariation1
usemtl initialShadingGroup
f 114/193/1 91/2/2 1/3/3 81/4/4
f 2/5/5 82/6/6 83/7/7 65/8/8
f 95/9/9 96/205/10 87/11/11 7/12/12
f 66/13/13 90/14/14 81/4/4 1/3/3
f 8/15/15 98/203/16 99/202/17 10/18/18
f 10/18/18 99/202/17 150/19/19 151/20/20
f 12/21/21 100/22/22 164/23/23 165/24/24
f 111/25/25 112/196/26 3/27/27 15/28/28
f 4/29/29 16/30/30 78/31/31 79/32/32
f 158/33/33 159/34/34 78/31/31 16/30/30
f 172/35/35 173/36/36 77/37/37 17/38/38
f 156/39/39 157/181/40 111/25/25 15/28/28
f 170/41/41 171/177/42 110/43/43 19/44/44
f 15/28/28 3/27/27 68/45/45 69/46/46
f 69/46/46 155/47/47 156/39/39 15/28/28
f 70/48/48 169/49/49 170/41/41 19/44/44
f 108/50/50 109/197/51 20/52/52 21/53/53
f 75/54/54 76/55/55 18/56/56 22/57/57
f 14/58/58 101/59/59 102/201/60 24/61/61
f 135/62/62 136/187/63 108/50/50 21/53/53
f 24/61/61 102/201/60 143/64/64 144/65/65
f 137/66/66 138/67/67 75/54/54 22/57/57
f 91/2/2 92/208/68 66/13/13 1/3/3
f 25/69/69 73/70/70 106/199/71 107/198/72
f 21/53/53 20/52/52 71/73/73 72/74/74
f 148/75/75 135/62/62 21/53/53 72/74/74
f 115/76/76 116/191/77 95/9/9 7/12/12
f 7/12/12 87/11/11 134/78/78 115/76/76
f 131/79/79 132/80/80 8/15/15 10/18/18
f 10/18/18 151/20/20 152/81/81 131/79/79
f 12/21/21 165/24/24 166/82/82 130/83/83
f 128/84/84 129/85/85 14/58/58 24/61/61
f 144/65/65 145/86/86 128/84/84 24/61/61
f 103/87/87 126/88/88 127/89/89 28/90/90
f 141/91/91 142/92/92 23/93/93 124/94/94
f 13/95/95 123/96/96 124/94/94 23/93/93
f 176/97/97 163/98/98 11/99/99 122/100/100
f 162/101/101 149/102/102 9/103/103 121/104/104
f 120/105/105 121/104/104 9/103/103 6/106/106
f 117/107/107 118/108/108 86/109/109 5/110/110
f 93/207/111 94/206/112 43/113/113 30/114/114
f 29/115/115 84/116/116 85/117/117 44/118/118
f 42/119/119 41/120/120 46/121/121 45/122/122
f 160/123/123 161/124/124 46/121/121 41/120/120
f 174/125/125 175/126/126 47/127/127 40/128/128
f 49/129/129 48/130/130 39/131/131 38/132/132
f 139/133/133 140/134/134 49/129/129 38/132/132
f 104/135/135 105/200/136 36/137/137 51/138/138
f 146/139/139 147/140/140 35/141/141 52/142/142
f 35/141/141 34/143/143 53/144/144 52/142/142
f 54/145/145 167/146/146 168/147/147 33/148/148
f 55/149/149 153/150/150 154/151/151 32/152/152
f 32/152/152 31/153/153 56/154/154 55/149/149
f 43/113/113 88/155/155 89/156/156 30/114/114
f 112/196/26 113/195/157 57/158/158 3/27/27
f 79/32/32 80/159/159 58/160/160 4/29/29
f 60/161/161 59/162/162 42/119/119 45/122/122
f 61/163/163 119/164/164 120/105/105 6/106/106
f 62/165/165 97/204/166 98/203/16 8/15/15
f 132/80/80 133/167/167 62/165/165 8/15/15
f 64/168/168 63/169/169 56/154/154 31/153/153
f 57/158/158 67/170/170 68/45/45 3/27/27
f 92/208/68 93/207/111 30/114/114 66/13/13
f 30/114/114 89/156/156 90/14/14 66/13/13
f 68/45/45 67/170/170 64/168/168 31/153/153
f 69/46/46 68/45/45 31/153/153 32/152/152
f 32/152/152 154/151/151 155/47/47 69/46/46
f 33/148/148 168/147/147 169/49/49 70/48/48
f 72/74/74 71/73/73 34/143/143 35/141/141
f 147/140/140 148/75/75 72/74/74 35/141/141
f 105/200/136 106/199/71 73/70/70 36/137/137
f 138/67/67 139/133/133 38/132/132 75/54/54
f 38/132/132 39/131/131 76/55/55 75/54/54
f 173/36/36 174/125/125 40/128/128 77/37/37
f 159/34/34 160/123/123 41/120/120 78/31/31
f 79/32/32 78/31/31 41/120/120 42/119/119
f 59/162/162 80/159/159 79/32/32 42/119/119
f 65/8/8 83/7/7 84/116/116 29/115/115
f 113/195/157 114/193/1 81/4/4 57/158/158
f 83/7/7 82/6/6 58/160/160 80/159/159
f 84/116/116 83/7/7 80/159/159 59/162/162
f 85/117/117 84/116/116 59/162/162 60/161/161
f 86/109/109 118/108/108 119/164/164 61/163/163
f 87/11/11 96/205/10 97/204/166 62/165/165
f 133/167/167 134/78/78 87/11/11 62/165/165
f 89/156/156 88/155/155 63/169/169 64/168/168
f 90/14/14 89/156/156 64/168/168 67/170/170
f 81/4/4 90/14/14 67/170/170 57/158/158
f 65/8/8 92/68/68 91/194/2 2/5/5
f 29/115/115 93/111/111 92/68/68 65/8/8
f 44/118/118 94/112/112 93/111/111 29/115/115
f 5/110/110 95/192/9 116/77/77 117/107/107
f 5/110/110 86/109/109 96/10/10 95/192/9
f 97/166/166 96/10/10 86/109/109 61/163/163
f 98/16/16 97/166/166 61/163/163 6/106/106
f 99/17/17 98/16/16 6/106/106 9/103/103
f 149/102/102 150/183/19 99/17/17 9/103/103
f 163/98/98 164/179/23 100/184/22 11/99/99
f 102/60/60 101/180/59 13/95/95 23/93/93
f 142/92/92 143/185/64 102/60/60 23/93/93
f 125/171/171 126/189/88 103/186/87 27/172/172
f 37/173/173 105/136/136 104/190/135 50/174/174
f 74/175/175 106/71/71 105/136/136 37/173/173
f 107/72/72 106/71/71 74/175/175 26/176/176
f 22/57/57 108/188/50 136/63/63 137/66/66
f 18/56/56 109/51/51 108/188/50 22/57/57
f 110/178/43 171/42/42 172/35/35 17/38/38
f 16/30/30 111/182/25 157/40/40 158/33/33
f 4/29/29 112/26/26 111/182/25 16/30/30
f 58/160/160 113/157/157 112/26/26 4/29/29
f 82/6/6 114/1/1 113/157/157 58/160/160
f 2/5/5 91/194/2 114/1/1 82/6/6
f 94/206/112 116/191/77 115/76/76 43/113/113
f 117/107/107 116/77/77 94/112/112 44/118/118
f 44/118/118 85/117/117 118/108/108 117/107/107
f 119/164/164 118/108/108 85/117/117 60/161/161
f 120/105/105 119/164/164 60/161/161 45/122/122
f 45/122/122 46/121/121 121/104/104 120/105/105
f 161/124/124 162/101/101 121/104/104 46/121/121
f 175/126/126 176/97/97 122/100/100 47/127/127
f 124/94/94 123/96/96 48/130/130 49/129/129
f 140/134/134 141/91/91 124/94/94 49/129/129
f 50/174/174 104/190/135 126/189/88 125/171/171
f 127/89/89 126/88/88 104/135/135 51/138/138
f 145/86/86 146/139/139 52/142/142 128/84/84
f 52/142/142 53/144/144 129/85/85 128/84/84
f 130/83/83 166/82/82 167/146/146 54/145/145
f 131/79/79 152/81/81 153/150/150 55/149/149
f 55/149/149 56/154/154 132/80/80 131/79/79
f 63/169/169 133/167/167 132/80/80 56/154/154
f 88/155/155 134/78/78 133/167/167 63/169/169
f 115/76/76 134/78/78 88/155/155 43/113/113
f 107/198/72 136/187/63 135/62/62 25/69/69
f 137/66/66 136/63/63 107/72/72 26/176/176
f 74/175/175 138/67/67 137/66/66 26/176/176
f 37/173/173 139/133/133 138/67/67 74/175/175
f 50/174/174 140/134/134 139/133/133 37/173/173
f 125/171/171 141/91/91 140/134/134 50/174/174
f 27/172/172 142/92/92 141/91/91 125/171/171
f 103/186/87 143/185/64 142/92/92 27/172/172
f 144/65/65 143/64/64 103/87/87 28/90/90
f 127/89/89 145/86/86 144/65/65 28/90/90
f 51/138/138 146/139/139 145/86/86 127/89/89
f 36/137/137 147/140/140 146/139/139 51/138/138
f 73/70/70 148/75/75 147/140/140 36/137/137
f 25/69/69 135/62/62 148/75/75 73/70/70
f 100/184/22 150/183/19 149/102/102 11/99/99
f 151/20/20 150/19/19 100/22/22 12/21/21
f 152/81/81 151/20/20 12/21/21 130/83/83
f 153/150/150 152/81/81 130/83/83 54/145/145
f 154/151/151 153/150/150 54/145/145 33/148/148
f 155/47/47 154/151/151 33/148/148 70/48/48
f 156/39/39 155/47/47 70/48/48 19/44/44
f 110/43/43 157/181/40 156/39/39 19/44/44
f 158/33/33 157/40/40 110/178/43 17/38/38
f 77/37/37 159/34/34 158/33/33 17/38/38
f 40/128/128 160/123/123 159/34/34 77/37/37
f 47/127/127 161/124/124 160/123/123 40/128/128
f 122/100/100 162/101/101 161/124/124 47/127/127
f 11/99/99 149/102/102 162/101/101 122/100/100
f 101/180/59 164/179/23 163/98/98 13/95/95
f 165/24/24 164/23/23 101/59/59 14/58/58
f 166/82/82 165/24/24 14/58/58 129/85/85
f 167/146/146 166/82/82 129/85/85 53/144/144
f 168/147/147 167/146/146 53/144/144 34/143/143
f 169/49/49 168/147/147 34/143/143 71/73/73
f 170/41/41 169/49/49 71/73/73 20/52/52
f 20/52/52 109/197/51 171/177/42 170/41/41
f 172/35/35 171/42/42 109/51/51 18/56/56
f 76/55/55 173/36/36 172/35/35 18/56/56
f 39/131/131 174/125/125 173/36/36 76/55/55
f 48/130/130 175/126/126 174/125/125 39/131/131
f 123/96/96 176/97/97 175/126/126 48/130/130
f 13/95/95 163/98/98 176/97/97 123/96/96
