# This file uses centimeters as units for non-parametric coordinates.

mtllib Bush_V1.mtl
g default
v 1.085179 -0.000000 -0.483152
v 0.794844 -0.000000 -0.882764
v 0.367074 -0.000000 -1.129737
v -0.124167 -0.000000 -1.181369
v -0.593938 -0.000000 -1.028731
v -0.961012 -0.000000 -0.698216
v -1.161918 -0.000000 -0.246973
v -1.161918 -0.000000 0.246973
v -0.961012 -0.000000 0.698216
v -0.593938 -0.000000 1.028731
v -0.124167 -0.000000 1.181369
v 0.367074 -0.000000 1.129737
v 0.794844 -0.000000 0.882764
v 1.085179 -0.000000 0.483153
v 1.187876 -0.000000 0.000000
v 1.134774 0.255408 -0.505233
v 0.831170 0.255408 -0.923108
v 0.383850 0.255408 -1.181368
v -0.129841 0.255408 -1.235360
v -0.621082 0.255408 -1.075746
v -1.004932 0.255408 -0.730126
v -1.215020 0.255408 -0.258261
v -1.215020 0.255408 0.258260
v -1.004932 0.255408 0.730126
v -0.621082 0.255408 1.075746
v -0.129842 0.255408 1.235360
v 0.383850 0.255408 1.181369
v 0.831170 0.255408 0.923108
v 1.134774 0.255408 0.505234
v 1.242165 0.255408 0.000000
v 1.134774 0.516521 -0.505233
v 0.831170 0.516521 -0.923108
v 0.383850 0.516521 -1.181368
v -0.129841 0.516521 -1.235360
v -0.621082 0.516521 -1.075746
v -1.004932 0.516521 -0.730126
v -1.215020 0.516521 -0.258261
v -1.215020 0.516521 0.258260
v -1.004932 0.516521 0.730126
v -0.621082 0.516521 1.075746
v -0.129842 0.516521 1.235360
v 0.383850 0.516521 1.181369
v 0.831170 0.516521 0.923108
v 1.134774 0.516521 0.505234
v 1.242165 0.516521 0.000000
v 1.085179 0.771929 -0.483152
v 0.794844 0.771929 -0.882764
v 0.367074 0.771929 -1.129737
v -0.124167 0.771929 -1.181369
v -0.593938 0.771929 -1.028731
v -0.961012 0.771929 -0.698216
v -1.161918 0.771929 -0.246973
v -1.161918 0.771929 0.246973
v -0.961012 0.771929 0.698216
v -0.593938 0.771929 1.028731
v -0.124167 0.771929 1.181369
v 0.367074 0.771929 1.129737
v 0.794844 0.771929 0.882764
v 1.085179 0.771929 0.483153
v 1.187876 0.771929 0.000000
v 0.988156 1.010468 -0.439955
v 0.723780 1.010468 -0.803838
v 0.334255 1.010468 -1.028731
v -0.113065 1.010468 -1.075746
v -0.540836 1.010468 -0.936755
v -0.875091 1.010468 -0.635791
v -1.058034 1.010468 -0.224892
v -1.058035 1.010468 0.224892
v -0.875091 1.010468 0.635791
v -0.540836 1.010468 0.936755
v -0.113066 1.010468 1.075746
v 0.334255 1.010468 1.028731
v 0.723780 1.010468 0.803839
v 0.988156 1.010468 0.439956
v 1.081672 1.010468 0.000000
v 0.847946 1.221713 -0.377530
v 0.621082 1.221713 -0.689782
v 0.286828 1.221713 -0.882764
v -0.097022 1.221713 -0.923108
v -0.464096 1.221713 -0.803839
v -0.750924 1.221713 -0.545578
v -0.907910 1.221713 -0.192982
v -0.907910 1.221713 0.192982
v -0.750924 1.221713 0.545578
v -0.464097 1.221713 0.803839
v -0.097023 1.221713 0.923108
v 0.286827 1.221713 0.882764
v 0.621082 1.221713 0.689782
v 0.847947 1.221713 0.377530
v 0.928193 1.221713 0.000000
v 0.670677 1.396432 -0.298605
v 0.491241 1.396432 -0.545578
v 0.226864 1.396432 -0.698216
v -0.076739 1.396432 -0.730126
v -0.367074 1.396432 -0.635791
v -0.593938 1.396432 -0.431521
v -0.718105 1.396432 -0.152638
v -0.718105 1.396432 0.152638
v -0.593938 1.396432 0.431521
v -0.367074 1.396432 0.635791
v -0.076739 1.396432 0.730126
v 0.226864 1.396432 0.698216
v 0.491241 1.396432 0.545578
v 0.670677 1.396432 0.298605
v 0.734148 1.396432 0.000000
v 0.464096 1.526989 -0.206629
v 0.339930 1.526989 -0.377530
v 0.156986 1.526989 -0.483153
v -0.053102 1.526989 -0.505234
v -0.254008 1.526989 -0.439955
v -0.410994 1.526989 -0.298605
v -0.496915 1.526989 -0.105623
v -0.496915 1.526989 0.105623
v -0.410994 1.526989 0.298605
v -0.254008 1.526989 0.439955
v -0.053102 1.526989 0.505234
v 0.156986 1.526989 0.483153
v 0.339930 1.526989 0.377530
v 0.464096 1.526989 0.206629
v 0.508017 1.526989 0.000000
v 0.237232 1.607678 -0.105623
v 0.173762 1.607678 -0.192982
v 0.080247 1.607678 -0.246973
v -0.027144 1.607678 -0.258261
v -0.129842 1.607678 -0.224892
v -0.210088 1.607678 -0.152638
v -0.254008 1.607678 -0.053991
v -0.254008 1.607678 0.053991
v -0.210088 1.607678 0.152638
v -0.129842 1.607678 0.224892
v -0.027144 1.607678 0.258261
v 0.080246 1.607678 0.246973
v 0.173762 1.607678 0.192982
v 0.237232 1.607678 0.105623
v 0.259683 1.607678 0.000000
v 0.000000 1.634971 0.000000
vt 0.825545 0.130872
vt 0.947037 0.297352
vt 0.890355 0.322763
vt 0.784101 0.177142
vt 0.990308 0.498851
vt 0.928190 0.499009
vt 0.947880 0.700526
vt 0.891069 0.675405
vt 0.827095 0.867506
vt 0.785412 0.821450
vt 0.648837 0.970923
vt 0.629490 0.911895
vt 0.443929 0.992896
vt 0.450262 0.931102
vt 0.247799 0.929628
vt 0.278717 0.875751
vt 0.094358 0.792059
vt 0.144516 0.755414
vt 0.010134 0.603973
vt 0.070861 0.590896
vt 0.009692 0.397890
vt 0.070488 0.410642
vt 0.093109 0.209442
vt 0.143462 0.245818
vt 0.245963 0.071213
vt 0.277168 0.124924
vt 0.441829 0.007104
vt 0.448489 0.068863
vt 0.646840 0.028204
vt 0.627803 0.087332
vt 0.837565 0.346799
vt 0.745654 0.220574
vt 0.870188 0.499495
vt 0.837884 0.652257
vt 0.746240 0.778671
vt 0.611103 0.856881
vt 0.455840 0.873366
vt 0.307295 0.825275
vt 0.191153 0.720924
vt 0.127494 0.578355
vt 0.127325 0.422219
vt 0.190677 0.279512
vt 0.306597 0.174908
vt 0.455043 0.126496
vt 0.610347 0.142648
vt 0.786843 0.370061
vt 0.708779 0.262456
vt 0.814389 0.500114
vt 0.786657 0.630127
vt 0.708443 0.737619
vt 0.593271 0.804005
vt 0.461055 0.817807
vt 0.334656 0.776640
vt 0.235929 0.687622
vt 0.181944 0.566144
vt 0.182035 0.433210
vt 0.236187 0.311804
vt 0.335038 0.222919
vt 0.461496 0.181923
vt 0.593697 0.195908
vt 0.737260 0.392789
vt 0.672729 0.303388
vt 0.759849 0.500710
vt 0.736590 0.608487
vt 0.671506 0.697485
vt 0.575850 0.752317
vt 0.466163 0.763503
vt 0.361410 0.729108
vt 0.279702 0.655080
vt 0.235168 0.554218
vt 0.235508 0.443963
vt 0.280663 0.343377
vt 0.362827 0.269852
vt 0.467793 0.236102
vt 0.577412 0.247964
vt 0.688330 0.415060
vt 0.637088 0.343636
vt 0.706091 0.501153
vt 0.687299 0.587026
vt 0.635205 0.657831
vt 0.558816 0.701327
vt 0.471341 0.709992
vt 0.387904 0.682329
vt 0.322933 0.623121
vt 0.287660 0.542605
vt 0.288185 0.454703
vt 0.324417 0.374614
vt 0.390093 0.316185
vt 0.473856 0.289519
vt 0.561224 0.299229
vt 0.639778 0.436886
vt 0.601610 0.383323
vt 0.652859 0.501343
vt 0.638592 0.565548
vt 0.599445 0.618399
vt 0.542186 0.650759
vt 0.476716 0.657031
vt 0.414355 0.636133
vt 0.365886 0.591676
vt 0.339689 0.531349
vt 0.340294 0.465582
vt 0.367596 0.405747
vt 0.416876 0.362189
vt 0.479612 0.342440
vt 0.544956 0.349915
vt 0.591423 0.458268
vt 0.566133 0.422524
vt 0.599989 0.501208
vt 0.590348 0.543920
vt 0.564168 0.579018
vt 0.525977 0.600434
vt 0.482377 0.604464
vt 0.440907 0.590412
vt 0.408738 0.560708
vt 0.391432 0.520487
vt 0.391982 0.476705
vt 0.410291 0.436931
vt 0.443195 0.408042
vt 0.485005 0.395035
vt 0.528491 0.400157
vt 0.543119 0.479230
vt 0.530531 0.461321
vt 0.547335 0.500710
vt 0.542449 0.522049
vt 0.529307 0.539555
vt 0.510180 0.550203
vt 0.488376 0.552150
vt 0.467665 0.545061
vt 0.451629 0.530161
vt 0.443039 0.510026
vt 0.443381 0.488138
vt 0.452597 0.468282
vt 0.469092 0.453890
vt 0.490014 0.447452
vt 0.511747 0.450080
vt 0.494697 0.499887
vn 0.893582 -0.207912 -0.397849
vn 0.654509 -0.207912 -0.726905
vn 0.665647 -0.101915 -0.739275
vn 0.908789 -0.101915 -0.404619
vn 0.302264 -0.207912 -0.930274
vn 0.307408 -0.101915 -0.946104
vn -0.102244 -0.207912 -0.972789
vn -0.103984 -0.101915 -0.989344
vn -0.489074 -0.207911 -0.847101
vn -0.497396 -0.101915 -0.861516
vn -0.791338 -0.207911 -0.574941
vn -0.804804 -0.101915 -0.584725
vn -0.956773 -0.207911 -0.203369
vn -0.973055 -0.101915 -0.206829
vn -0.956773 -0.207911 0.203368
vn -0.973055 -0.101915 0.206829
vn -0.791338 -0.207912 0.574941
vn -0.804805 -0.101915 0.584725
vn -0.489074 -0.207912 0.847101
vn -0.497397 -0.101915 0.861516
vn -0.102244 -0.207912 0.972789
vn -0.103984 -0.101915 0.989343
vn 0.302264 -0.207912 0.930274
vn 0.307408 -0.101915 0.946105
vn 0.654509 -0.207912 0.726905
vn 0.665647 -0.101915 0.739275
vn 0.893582 -0.207911 0.397849
vn 0.908789 -0.101915 0.404619
vn 0.978148 -0.207912 -0.000000
vn 0.994793 -0.101915 -0.000000
vn 0.665647 0.101915 -0.739275
vn 0.908789 0.101915 -0.404619
vn 0.307408 0.101915 -0.946104
vn -0.103984 0.101915 -0.989344
vn -0.497396 0.101915 -0.861516
vn -0.804804 0.101915 -0.584725
vn -0.973055 0.101915 -0.206829
vn -0.973055 0.101915 0.206829
vn -0.804805 0.101915 0.584725
vn -0.497397 0.101915 0.861516
vn -0.103984 0.101915 0.989343
vn 0.307408 0.101915 0.946105
vn 0.665647 0.101915 0.739275
vn 0.908789 0.101915 0.404619
vn 0.994793 0.101915 -0.000000
vn 0.637998 0.301480 -0.708568
vn 0.871040 0.301480 -0.387812
vn 0.294639 0.301480 -0.906806
vn -0.099665 0.301480 -0.948249
vn -0.476736 0.301480 -0.825731
vn -0.771375 0.301480 -0.560437
vn -0.932637 0.301480 -0.198238
vn -0.932637 0.301480 0.198238
vn -0.771375 0.301480 0.560437
vn -0.476736 0.301480 0.825731
vn -0.099665 0.301480 0.948249
vn 0.294639 0.301480 0.906806
vn 0.637998 0.301480 0.708568
vn 0.871040 0.301480 0.387812
vn 0.953472 0.301480 -0.000000
vn 0.583895 0.488404 -0.648481
vn 0.797176 0.488404 -0.354926
vn 0.269654 0.488404 -0.829909
vn -0.091213 0.488404 -0.867838
vn -0.436309 0.488404 -0.755709
vn -0.705963 0.488404 -0.512912
vn -0.853549 0.488404 -0.181428
vn -0.853549 0.488404 0.181427
vn -0.705963 0.488404 0.512912
vn -0.436309 0.488404 0.755709
vn -0.091214 0.488404 0.867837
vn 0.269654 0.488404 0.829909
vn 0.583895 0.488404 0.648481
vn 0.797176 0.488404 0.354926
vn 0.872618 0.488404 -0.000000
vn 0.505752 0.654764 -0.561694
vn 0.690489 0.654763 -0.307425
vn 0.233566 0.654763 -0.718841
vn -0.079006 0.654764 -0.751693
vn -0.377917 0.654764 -0.654571
vn -0.611482 0.654763 -0.444268
vn -0.739317 0.654764 -0.157147
vn -0.739317 0.654764 0.157147
vn -0.611482 0.654764 0.444268
vn -0.377917 0.654764 0.654571
vn -0.079006 0.654764 0.751693
vn 0.233565 0.654764 0.718841
vn 0.505751 0.654764 0.561694
vn 0.690488 0.654764 0.307425
vn 0.755834 0.654764 -0.000000
vn 0.407315 0.793383 -0.452369
vn 0.556096 0.793383 -0.247590
vn 0.188106 0.793383 -0.578930
vn -0.063629 0.793383 -0.605388
vn -0.304361 0.793383 -0.527169
vn -0.492467 0.793383 -0.357798
vn -0.595420 0.793383 -0.126561
vn -0.595421 0.793383 0.126561
vn -0.492467 0.793383 0.357798
vn -0.304361 0.793383 0.527169
vn -0.063629 0.793383 0.605388
vn 0.188106 0.793383 0.578930
vn 0.407315 0.793383 0.452369
vn 0.556096 0.793383 0.247590
vn 0.608723 0.793383 -0.000000
vn 0.294307 0.898079 -0.326860
vn 0.401809 0.898079 -0.178897
vn 0.135916 0.898079 -0.418307
vn -0.045975 0.898079 -0.437425
vn -0.219917 0.898079 -0.380908
vn -0.355833 0.898079 -0.258528
vn -0.430223 0.898079 -0.091447
vn -0.430223 0.898079 0.091447
vn -0.355833 0.898079 0.258528
vn -0.219917 0.898079 0.380907
vn -0.045975 0.898079 0.437425
vn 0.135916 0.898079 0.418307
vn 0.294306 0.898079 0.326860
vn 0.401809 0.898079 0.178897
vn 0.439834 0.898079 -0.000000
vn 0.179146 0.963494 -0.198962
vn 0.244583 0.963494 -0.108895
vn 0.082733 0.963494 -0.254626
vn -0.027985 0.963494 -0.266263
vn -0.133865 0.963494 -0.231861
vn -0.216598 0.963494 -0.157367
vn -0.261879 0.963494 -0.055664
vn -0.261879 0.963494 0.055664
vn -0.216598 0.963494 0.157367
vn -0.133865 0.963494 0.231860
vn -0.027985 0.963494 0.266263
vn 0.082733 0.963494 0.254626
vn 0.179146 0.963494 0.198962
vn 0.244583 0.963494 0.108895
vn 0.267729 0.963494 0.000000
vn -0.000000 1.000000 0.000000
s 1
g Bush
usemtl initialShadingGroup
f 1/1/1 2/2/2 17/3/3 16/4/4
f 2/2/2 3/5/5 18/6/6 17/3/3
f 3/5/5 4/7/7 19/8/8 18/6/6
f 4/7/7 5/9/9 20/10/10 19/8/8
f 5/9/9 6/11/11 21/12/12 20/10/10
f 6/11/11 7/13/13 22/14/14 21/12/12
f 7/13/13 8/15/15 23/16/16 22/14/14
f 8/15/15 9/17/17 24/18/18 23/16/16
f 9/17/17 10/19/19 25/20/20 24/18/18
f 10/19/19 11/21/21 26/22/22 25/20/20
f 11/21/21 12/23/23 27/24/24 26/22/22
f 12/23/23 13/25/25 28/26/26 27/24/24
f 13/25/25 14/27/27 29/28/28 28/26/26
f 14/27/27 15/29/29 30/30/30 29/28/28
f 15/29/29 1/1/1 16/4/4 30/30/30
f 16/4/4 17/3/3 32/31/31 31/32/32
f 17/3/3 18/6/6 33/33/33 32/31/31
f 18/6/6 19/8/8 34/34/34 33/33/33
f 19/8/8 20/10/10 35/35/35 34/34/34
f 20/10/10 21/12/12 36/36/36 35/35/35
f 21/12/12 22/14/14 37/37/37 36/36/36
f 22/14/14 23/16/16 38/38/38 37/37/37
f 23/16/16 24/18/18 39/39/39 38/38/38
f 24/18/18 25/20/20 40/40/40 39/39/39
f 25/20/20 26/22/22 41/41/41 40/40/40
f 26/22/22 27/24/24 42/42/42 41/41/41
f 27/24/24 28/26/26 43/43/43 42/42/42
f 28/26/26 29/28/28 44/44/44 43/43/43
f 29/28/28 30/30/30 45/45/45 44/44/44
f 30/30/30 16/4/4 31/32/32 45/45/45
f 31/32/32 32/31/31 47/46/46 46/47/47
f 32/31/31 33/33/33 48/48/48 47/46/46
f 33/33/33 34/34/34 49/49/49 48/48/48
f 34/34/34 35/35/35 50/50/50 49/49/49
f 35/35/35 36/36/36 51/51/51 50/50/50
f 36/36/36 37/37/37 52/52/52 51/51/51
f 37/37/37 38/38/38 53/53/53 52/52/52
f 38/38/38 39/39/39 54/54/54 53/53/53
f 39/39/39 40/40/40 55/55/55 54/54/54
f 40/40/40 41/41/41 56/56/56 55/55/55
f 41/41/41 42/42/42 57/57/57 56/56/56
f 42/42/42 43/43/43 58/58/58 57/57/57
f 43/43/43 44/44/44 59/59/59 58/58/58
f 44/44/44 45/45/45 60/60/60 59/59/59
f 45/45/45 31/32/32 46/47/47 60/60/60
f 46/47/47 47/46/46 62/61/61 61/62/62
f 47/46/46 48/48/48 63/63/63 62/61/61
f 48/48/48 49/49/49 64/64/64 63/63/63
f 49/49/49 50/50/50 65/65/65 64/64/64
f 50/50/50 51/51/51 66/66/66 65/65/65
f 51/51/51 52/52/52 67/67/67 66/66/66
f 52/52/52 53/53/53 68/68/68 67/67/67
f 53/53/53 54/54/54 69/69/69 68/68/68
f 54/54/54 55/55/55 70/70/70 69/69/69
f 55/55/55 56/56/56 71/71/71 70/70/70
f 56/56/56 57/57/57 72/72/72 71/71/71
f 57/57/57 58/58/58 73/73/73 72/72/72
f 58/58/58 59/59/59 74/74/74 73/73/73
f 59/59/59 60/60/60 75/75/75 74/74/74
f 60/60/60 46/47/47 61/62/62 75/75/75
f 61/62/62 62/61/61 77/76/76 76/77/77
f 62/61/61 63/63/63 78/78/78 77/76/76
f 63/63/63 64/64/64 79/79/79 78/78/78
f 64/64/64 65/65/65 80/80/80 79/79/79
f 65/65/65 66/66/66 81/81/81 80/80/80
f 66/66/66 67/67/67 82/82/82 81/81/81
f 67/67/67 68/68/68 83/83/83 82/82/82
f 68/68/68 69/69/69 84/84/84 83/83/83
f 69/69/69 70/70/70 85/85/85 84/84/84
f 70/70/70 71/71/71 86/86/86 85/85/85
f 71/71/71 72/72/72 87/87/87 86/86/86
f 72/72/72 73/73/73 88/88/88 87/87/87
f 73/73/73 74/74/74 89/89/89 88/88/88
f 74/74/74 75/75/75 90/90/90 89/89/89
f 75/75/75 61/62/62 76/77/77 90/90/90
f 76/77/77 77/76/76 92/91/91 91/92/92
f 77/76/76 78/78/78 93/93/93 92/91/91
f 78/78/78 79/79/79 94/94/94 93/93/93
f 79/79/79 80/80/80 95/95/95 94/94/94
f 80/80/80 81/81/81 96/96/96 95/95/95
f 81/81/81 82/82/82 97/97/97 96/96/96
f 82/82/82 83/83/83 98/98/98 97/97/97
f 83/83/83 84/84/84 99/99/99 98/98/98
f 84/84/84 85/85/85 100/100/100 99/99/99
f 85/85/85 86/86/86 101/101/101 100/100/100
f 86/86/86 87/87/87 102/102/102 101/101/101
f 87/87/87 88/88/88 103/103/103 102/102/102
f 88/88/88 89/89/89 104/104/104 103/103/103
f 89/89/89 90/90/90 105/105/105 104/104/104
f 90/90/90 76/77/77 91/92/92 105/105/105
f 91/92/92 92/91/91 107/106/106 106/107/107
f 92/91/91 93/93/93 108/108/108 107/106/106
f 93/93/93 94/94/94 109/109/109 108/108/108
f 94/94/94 95/95/95 110/110/110 109/109/109
f 95/95/95 96/96/96 111/111/111 110/110/110
f 96/96/96 97/97/97 112/112/112 111/111/111
f 97/97/97 98/98/98 113/113/113 112/112/112
f 98/98/98 99/99/99 114/114/114 113/113/113
f 99/99/99 100/100/100 115/115/115 114/114/114
f 100/100/100 101/101/101 116/116/116 115/115/115
f 101/101/101 102/102/102 117/117/117 116/116/116
f 102/102/102 103/103/103 118/118/118 117/117/117
f 103/103/103 104/104/104 119/119/119 118/118/118
f 104/104/104 105/105/105 120/120/120 119/119/119
f 105/105/105 91/92/92 106/107/107 120/120/120
f 106/107/107 107/106/106 122/121/121 121/122/122
f 107/106/106 108/108/108 123/123/123 122/121/121
f 108/108/108 109/109/109 124/124/124 123/123/123
f 109/109/109 110/110/110 125/125/125 124/124/124
f 110/110/110 111/111/111 126/126/126 125/125/125
f 111/111/111 112/112/112 127/127/127 126/126/126
f 112/112/112 113/113/113 128/128/128 127/127/127
f 113/113/113 114/114/114 129/129/129 128/128/128
f 114/114/114 115/115/115 130/130/130 129/129/129
f 115/115/115 116/116/116 131/131/131 130/130/130
f 116/116/116 117/117/117 132/132/132 131/131/131
f 117/117/117 118/118/118 133/133/133 132/132/132
f 118/118/118 119/119/119 134/134/134 133/133/133
f 119/119/119 120/120/120 135/135/135 134/134/134
f 120/120/120 106/107/107 121/122/122 135/135/135
f 121/122/122 122/121/121 136/136/136
f 122/121/121 123/123/123 136/136/136
f 123/123/123 124/124/124 136/136/136
f 124/124/124 125/125/125 136/136/136
f 125/125/125 126/126/126 136/136/136
f 126/126/126 127/127/127 136/136/136
f 127/127/127 128/128/128 136/136/136
f 128/128/128 129/129/129 136/136/136
f 129/129/129 130/130/130 136/136/136
f 130/130/130 131/131/131 136/136/136
f 131/131/131 132/132/132 136/136/136
f 132/132/132 133/133/133 136/136/136
f 133/133/133 134/134/134 136/136/136
f 134/134/134 135/135/135 136/136/136
f 135/135/135 121/122/122 136/136/136
