# This file uses centimeters as units for non-parametric coordinates.

mtllib Fern_OneModel.mtl
g default
v 0.523331 0.146234 -1.106399
v 0.032269 0.267310 -0.963070
v -0.471552 0.247122 -1.111732
v 0.512575 0.057131 -0.785375
v 0.021513 0.178207 -0.642047
v -0.482309 0.158019 -0.790708
v 0.501818 -0.031973 -0.464352
v 0.010756 0.089103 -0.321023
v -0.493065 0.068916 -0.469685
v 0.491062 -0.121076 -0.143329
v 0.000000 0.000000 0.000000
v -0.503822 -0.020188 -0.148661
v -1.192790 0.262428 -0.166618
v -0.882389 0.409783 0.231229
v -0.857472 0.465346 0.753374
v -0.898660 0.125834 -0.243694
v -0.588260 0.273189 0.154153
v -0.563342 0.328752 0.676298
v -0.604530 -0.010760 -0.320771
v -0.294130 0.136594 0.077076
v -0.269212 0.192157 0.599222
v -0.310401 -0.147355 -0.397847
v 0.000000 0.000000 0.000000
v 0.024918 0.055563 0.522145
v -0.024404 0.202461 1.215645
v 0.356174 0.327364 0.875199
v 0.876605 0.330358 0.801128
v -0.143129 0.093340 0.923912
v 0.237449 0.218243 0.583466
v 0.757881 0.221236 0.509395
v -0.261854 -0.015782 0.632179
v 0.118725 0.109121 0.291733
v 0.639156 0.112115 0.217662
v -0.380578 -0.124903 0.340446
v 0.000000 0.000000 0.000000
v 0.520431 0.002993 -0.074071
v 0.822044 0.633477 0.246848
v 0.594906 0.611181 -0.146709
v 0.641941 0.605700 -0.599184
v 0.623742 0.429750 0.295751
v 0.396604 0.407454 -0.097806
v 0.443639 0.401973 -0.550281
v 0.425440 0.226023 0.344654
v 0.198302 0.203727 -0.048903
v 0.245337 0.198246 -0.501378
v 0.227138 0.022295 0.393557
v 0.000000 0.000000 0.000000
v 0.047035 -0.005481 -0.452475
v -0.074644 0.771479 -0.732960
v -0.342361 0.702610 -0.371628
v -0.774406 0.696949 -0.229216
v 0.039476 0.537276 -0.609084
v -0.228241 0.468406 -0.247752
v -0.660286 0.462746 -0.105340
v 0.153597 0.303073 -0.485208
v -0.114120 0.234203 -0.123876
v -0.546165 0.228543 0.018536
v 0.267717 0.068870 -0.361332
v 0.000000 0.000000 0.000000
v -0.432045 -0.005661 0.142412
v -0.432718 0.768583 0.600015
v 0.000000 0.729917 0.464973
v 0.432718 0.768583 0.600015
v -0.432718 0.525278 0.445023
v 0.000000 0.486611 0.309982
v 0.432718 0.525278 0.445023
v -0.432718 0.281972 0.290032
v 0.000000 0.243306 0.154991
v 0.432718 0.281972 0.290032
v -0.432718 0.038666 0.135041
v 0.000000 0.000000 0.000000
v 0.432718 0.038666 0.135041
vt 0.948001 0.985936
vt 0.502030 0.882485
vt 0.500482 0.592194
vt 0.946453 0.695644
vt 0.057189 0.990687
vt 0.055641 0.700395
vt 0.498934 0.301902
vt 0.944905 0.405353
vt 0.054092 0.410103
vt 0.497386 0.011611
vt 0.943357 0.115061
vt 0.052544 0.119812
vt 0.947932 0.986043
vt 0.501978 0.882521
vt 0.500476 0.592229
vt 0.946430 0.695752
vt 0.057119 0.990651
vt 0.055617 0.700359
vt 0.498975 0.301938
vt 0.944928 0.405460
vt 0.054116 0.410067
vt 0.497473 0.011646
vt 0.943427 0.115168
vt 0.052614 0.119776
vt 0.947932 0.986044
vt 0.501978 0.882521
vt 0.500476 0.592229
vt 0.946430 0.695752
vt 0.057119 0.990651
vt 0.055617 0.700359
vt 0.498975 0.301937
vt 0.944929 0.405460
vt 0.054116 0.410067
vt 0.497473 0.011646
vt 0.943427 0.115168
vt 0.052614 0.119776
vt 0.947992 0.985949
vt 0.502024 0.882489
vt 0.500482 0.592198
vt 0.946450 0.695658
vt 0.057180 0.990682
vt 0.055638 0.700391
vt 0.498939 0.301906
vt 0.944908 0.405366
vt 0.054095 0.410099
vt 0.497397 0.011615
vt 0.943365 0.115074
vt 0.052553 0.119807
vt 0.947932 0.986044
vt 0.501978 0.882521
vt 0.500476 0.592229
vt 0.946430 0.695752
vt 0.057119 0.990651
vt 0.055617 0.700359
vt 0.498975 0.301938
vt 0.944928 0.405460
vt 0.054116 0.410068
vt 0.497473 0.011646
vt 0.943427 0.115168
vt 0.052614 0.119776
vt 0.947932 0.986044
vt 0.501978 0.882521
vt 0.500476 0.592229
vt 0.946430 0.695752
vt 0.057119 0.990651
vt 0.055617 0.700359
vt 0.498975 0.301938
vt 0.944929 0.405460
vt 0.054116 0.410068
vt 0.497473 0.011646
vt 0.943427 0.115168
vt 0.052614 0.119776
vn 0.302901 0.915642 0.264294
vn 0.302901 0.915642 0.264294
vn 0.302901 0.915642 0.264294
vn 0.302901 0.915642 0.264294
vn 0.095737 0.958315 0.269198
vn -0.115713 0.958092 0.262051
vn -0.115713 0.958092 0.262051
vn 0.095737 0.958315 0.269198
vn 0.302901 0.915641 0.264295
vn 0.095737 0.958315 0.269198
vn 0.095737 0.958315 0.269198
vn 0.302901 0.915641 0.264295
vn 0.095737 0.958315 0.269198
vn -0.115713 0.958092 0.262051
vn -0.115713 0.958092 0.262051
vn 0.095737 0.958315 0.269198
vn 0.302901 0.915641 0.264295
vn 0.095737 0.958315 0.269198
vn 0.095737 0.958315 0.269198
vn 0.302901 0.915641 0.264295
vn 0.095737 0.958315 0.269198
vn -0.115713 0.958092 0.262051
vn -0.115713 0.958092 0.262051
vn 0.095737 0.958315 0.269198
vn 0.252144 0.826732 -0.502929
vn 0.252144 0.826732 -0.502929
vn 0.252144 0.826732 -0.502929
vn 0.252144 0.826732 -0.502929
vn 0.330077 0.889327 -0.316460
vn 0.393235 0.912113 -0.115826
vn 0.393235 0.912113 -0.115826
vn 0.330077 0.889327 -0.316460
vn 0.252144 0.826732 -0.502929
vn 0.330077 0.889327 -0.316460
vn 0.330077 0.889327 -0.316460
vn 0.252144 0.826732 -0.502928
vn 0.330077 0.889327 -0.316460
vn 0.393235 0.912113 -0.115826
vn 0.393235 0.912113 -0.115826
vn 0.330077 0.889327 -0.316460
vn 0.252144 0.826732 -0.502928
vn 0.330077 0.889327 -0.316460
vn 0.330077 0.889327 -0.316460
vn 0.252144 0.826732 -0.502928
vn 0.330077 0.889327 -0.316460
vn 0.393235 0.912113 -0.115826
vn 0.393235 0.912113 -0.115826
vn 0.330077 0.889327 -0.316460
vn -0.431647 0.888343 -0.156614
vn -0.431647 0.888343 -0.156614
vn -0.431647 0.888343 -0.156614
vn -0.431647 0.888343 -0.156614
vn -0.247633 0.936203 -0.249405
vn -0.052533 0.942157 -0.331031
vn -0.052533 0.942157 -0.331031
vn -0.247633 0.936203 -0.249405
vn -0.431648 0.888342 -0.156616
vn -0.247633 0.936203 -0.249405
vn -0.247633 0.936203 -0.249405
vn -0.431648 0.888342 -0.156616
vn -0.247633 0.936203 -0.249405
vn -0.052533 0.942157 -0.331031
vn -0.052533 0.942157 -0.331031
vn -0.247633 0.936203 -0.249405
vn -0.431648 0.888342 -0.156616
vn -0.247633 0.936203 -0.249405
vn -0.247633 0.936203 -0.249405
vn -0.431648 0.888342 -0.156616
vn -0.247633 0.936203 -0.249405
vn -0.052533 0.942157 -0.331031
vn -0.052533 0.942157 -0.331031
vn -0.247633 0.936203 -0.249405
vn -0.636464 0.698196 0.327775
vn -0.636464 0.698196 0.327775
vn -0.636464 0.698196 0.327775
vn -0.636464 0.698196 0.327775
vn -0.695819 0.707272 0.124905
vn -0.724028 0.684691 -0.083557
vn -0.724029 0.684690 -0.083557
vn -0.695819 0.707272 0.124905
vn -0.636464 0.698195 0.327776
vn -0.695819 0.707272 0.124905
vn -0.695819 0.707272 0.124905
vn -0.636464 0.698195 0.327776
vn -0.695819 0.707272 0.124905
vn -0.724029 0.684690 -0.083557
vn -0.724029 0.684690 -0.083557
vn -0.695819 0.707272 0.124905
vn -0.636464 0.698195 0.327776
vn -0.695819 0.707272 0.124905
vn -0.695819 0.707272 0.124905
vn -0.636464 0.698195 0.327776
vn -0.695819 0.707272 0.124905
vn -0.724029 0.684690 -0.083557
vn -0.724028 0.684691 -0.083557
vn -0.695819 0.707272 0.124905
vn 0.595938 0.582663 0.552595
vn 0.595938 0.582663 0.552595
vn 0.595938 0.582663 0.552595
vn 0.595938 0.582663 0.552595
vn 0.435576 0.577471 0.690508
vn 0.255719 0.546428 0.797511
vn 0.255719 0.546428 0.797511
vn 0.435576 0.577471 0.690508
vn 0.595936 0.582664 0.552596
vn 0.435576 0.577471 0.690508
vn 0.435576 0.577471 0.690508
vn 0.595937 0.582664 0.552596
vn 0.435576 0.577471 0.690508
vn 0.255719 0.546428 0.797511
vn 0.255719 0.546429 0.797511
vn 0.435576 0.577471 0.690508
vn 0.595937 0.582664 0.552596
vn 0.435576 0.577471 0.690508
vn 0.435576 0.577471 0.690508
vn 0.595937 0.582664 0.552596
vn 0.435576 0.577471 0.690508
vn 0.255719 0.546429 0.797511
vn 0.255719 0.546429 0.797511
vn 0.435576 0.577471 0.690508
vn -0.210383 0.525246 -0.824533
vn 0.000000 0.537271 -0.843410
vn 0.000000 0.537271 -0.843410
vn -0.210383 0.525246 -0.824533
vn 0.000000 0.537271 -0.843410
vn 0.210383 0.525246 -0.824533
vn 0.210383 0.525246 -0.824533
vn 0.000000 0.537271 -0.843410
vn -0.210383 0.525246 -0.824533
vn 0.000000 0.537271 -0.843410
vn 0.000000 0.537271 -0.843410
vn -0.210383 0.525246 -0.824533
vn 0.000000 0.537271 -0.843410
vn 0.210383 0.525246 -0.824533
vn 0.210383 0.525246 -0.824533
vn 0.000000 0.537271 -0.843410
vn -0.210383 0.525246 -0.824533
vn 0.000000 0.537271 -0.843410
vn 0.000000 0.537271 -0.843410
vn -0.210383 0.525246 -0.824533
vn 0.000000 0.537271 -0.843410
vn 0.210383 0.525246 -0.824533
vn 0.210383 0.525246 -0.824533
vn 0.000000 0.537271 -0.843410
s off
g Fern_V1:FernFernLeaf_7
usemtl initialShadingGroup
f 1/1/1 2/2/2 5/3/3 4/4/4
f 2/2/5 3/5/6 6/6/7 5/3/8
f 4/4/9 5/3/10 8/7/11 7/8/12
f 5/3/13 6/6/14 9/9/15 8/7/16
f 7/8/17 8/7/18 11/10/19 10/11/20
f 8/7/21 9/9/22 12/12/23 11/10/24
f 13/13/25 14/14/26 17/15/27 16/16/28
f 14/14/29 15/17/30 18/18/31 17/15/32
f 16/16/33 17/15/34 20/19/35 19/20/36
f 17/15/37 18/18/38 21/21/39 20/19/40
f 19/20/41 20/19/42 23/22/43 22/23/44
f 20/19/45 21/21/46 24/24/47 23/22/48
f 25/25/49 26/26/50 29/27/51 28/28/52
f 26/26/53 27/29/54 30/30/55 29/27/56
f 28/28/57 29/27/58 32/31/59 31/32/60
f 29/27/61 30/30/62 33/33/63 32/31/64
f 31/32/65 32/31/66 35/34/67 34/35/68
f 32/31/69 33/33/70 36/36/71 35/34/72
f 37/37/73 38/38/74 41/39/75 40/40/76
f 38/38/77 39/41/78 42/42/79 41/39/80
f 40/40/81 41/39/82 44/43/83 43/44/84
f 41/39/85 42/42/86 45/45/87 44/43/88
f 43/44/89 44/43/90 47/46/91 46/47/92
f 44/43/93 45/45/94 48/48/95 47/46/96
f 49/49/97 50/50/98 53/51/99 52/52/100
f 50/50/101 51/53/102 54/54/103 53/51/104
f 52/52/105 53/51/106 56/55/107 55/56/108
f 53/51/109 54/54/110 57/57/111 56/55/112
f 55/56/113 56/55/114 59/58/115 58/59/116
f 56/55/117 57/57/118 60/60/119 59/58/120
f 61/61/121 62/62/122 65/63/123 64/64/124
f 62/62/125 63/65/126 66/66/127 65/63/128
f 64/64/129 65/63/130 68/67/131 67/68/132
f 65/63/133 66/66/134 69/69/135 68/67/136
f 67/68/137 68/67/138 71/70/139 70/71/140
f 68/67/141 69/69/142 72/72/143 71/70/144
