# This file uses centimeters as units for non-parametric coordinates.

mtllib Treetrunk_V2.mtl
g default
v -0.503766 1.451928 -0.660995
v -0.702310 1.455611 -0.462440
v -0.774983 1.443252 -0.191256
v -0.232549 1.441303 -0.733697
v -0.891104 0.505643 -0.204215
v -0.807543 0.506500 -0.516068
v -0.579249 0.507127 -0.744362
v -0.267394 0.507357 -0.827922
v 0.702310 1.419569 -0.462539
v 0.503766 1.414786 -0.661097
v 0.232549 1.419485 -0.733757
v 0.774983 1.420898 -0.191317
v 0.891104 0.505643 -0.204215
v 0.267394 0.507357 -0.827922
v 0.579249 0.507127 -0.744362
v 0.807543 0.506500 -0.516068
v -0.702310 1.403526 0.544952
v -0.503766 1.410809 0.743518
v -0.232549 1.425381 0.816230
v -0.774983 1.413741 0.273763
v -0.579249 0.502687 0.870717
v -0.807543 0.503315 0.642424
v -0.891104 0.504172 0.330570
v -0.267394 0.502457 0.954278
v 0.503766 1.441171 0.743601
v 0.702310 1.431098 0.545028
v 0.774983 1.422838 0.273788
v 0.232549 1.446313 0.816288
v 0.807543 0.503315 0.642424
v 0.579249 0.502687 0.870717
v 0.267394 0.502457 0.954278
v 0.891104 0.504172 0.330570
v 0.539690 1.427885 0.458443
v 0.387119 1.435380 0.622887
v 0.595535 1.420727 0.233816
v 0.595535 1.415434 -0.151367
v 0.539690 1.411510 -0.375984
v 0.387119 1.410917 -0.540410
v 0.178702 1.416568 -0.600578
v -0.178702 1.433994 -0.600530
v -0.387119 1.443825 -0.540320
v -0.539690 1.448802 -0.375882
v -0.595535 1.437854 -0.151305
v -0.595535 1.410068 0.233787
v -0.539690 1.400466 0.458367
v -0.387119 1.407749 0.622811
v -0.178702 1.421455 0.683032
v 0.178702 1.439605 0.683082
v 0.468915 1.341648 0.373841
v 0.336352 1.348202 0.505918
v 0.517437 1.335864 0.193428
v 0.517437 1.331040 -0.115939
v 0.468915 1.327306 -0.296345
v 0.336352 1.327544 -0.428404
v 0.155267 1.333104 -0.476726
v -0.155267 1.348276 -0.476685
v -0.336352 1.356873 -0.428324
v -0.468915 1.361187 -0.296252
v -0.517437 1.350323 -0.115886
v -0.517437 1.327536 0.193406
v -0.468915 1.317848 0.373775
v -0.336352 1.324456 0.505853
v -0.155267 1.336925 0.554224
v 0.155267 1.352280 0.554266
v -1.107485 -0.005890 -0.260260
v -1.112941 -0.007654 0.381166
v -0.318573 -0.003761 -1.034885
v 0.318922 -0.003758 -1.035868
v 1.108907 -0.005890 -0.260555
v 1.112411 -0.007653 0.380938
v -0.997552 -0.004827 -0.647069
v -0.705383 -0.004041 -0.932764
v 0.706704 -0.004036 -0.934719
v 0.999711 -0.004823 -0.648336
v -0.718535 -0.009566 1.076626
v -0.322697 -0.009863 1.184769
v -1.012036 -0.008742 0.777002
v 1.010250 -0.008739 0.775754
v 0.717273 -0.009560 1.074387
v 0.322456 -0.009860 1.183550
vt 0.527410 0.153089
vt 0.674083 0.853710
vt 0.671319 0.752111
vt 0.452139 0.208646
vt 0.448050 0.636765
vt 0.274550 0.404596
vt 0.330733 0.328921
vt 0.550213 0.633923
vt 0.150149 0.816673
vt 0.457281 0.979195
vt 0.559625 0.976789
vt 0.156445 0.909101
vt 0.618169 0.958071
vt 0.624177 0.097691
vt 0.659534 0.913059
vt 0.574605 0.122399
vt 0.653533 0.693514
vt 0.407435 0.244212
vt 0.609841 0.650263
vt 0.367054 0.284741
vt 0.335389 0.860994
vt 0.353467 0.919664
vt 0.156987 0.703042
vt 0.170477 0.647532
vt 0.397532 0.962728
vt 0.149870 0.759705
vt 0.389435 0.655570
vt 0.242963 0.452473
vt 0.347655 0.700320
vt 0.217418 0.503725
vt 0.332472 0.759489
vt 0.197177 0.557263
vt 0.403725 0.737700
vt 0.600506 0.733157
vt 0.611772 0.770979
vt 0.393917 0.776289
vt 0.409056 0.689619
vt 0.373878 0.724752
vt 0.458055 0.674503
vt 0.542032 0.672220
vt 0.591717 0.685140
vt 0.628367 0.719036
vt 0.643382 0.764636
vt 0.645488 0.842675
vt 0.633084 0.888830
vt 0.598393 0.924128
vt 0.549662 0.938997
vt 0.465548 0.940942
vt 0.415560 0.927795
vt 0.378449 0.894008
vt 0.363357 0.848401
vt 0.361034 0.770605
vt 0.431198 0.709233
vt 0.468817 0.698147
vt 0.534083 0.696677
vt 0.572049 0.706019
vt 0.613729 0.836680
vt 0.604389 0.875268
vt 0.577156 0.904036
vt 0.539302 0.915135
vt 0.473891 0.916539
vt 0.436068 0.907200
vt 0.407527 0.880152
vt 0.395787 0.842257
vt 0.062752 0.925163
vt 0.055904 0.819607
vt 0.394108 0.134462
vt 0.478273 0.074196
vt 0.196935 0.352629
vt 0.257053 0.268879
vt 0.594546 0.008393
vt 0.531978 0.036885
vt 0.342972 0.172567
vt 0.295775 0.217900
vt 0.059357 0.687495
vt 0.077069 0.624475
vt 0.052692 0.754345
vt 0.158895 0.404617
vt 0.127953 0.463413
vt 0.108381 0.525261
vt 0.163177 0.963810
vt 0.073165 0.992179
vt 0.364666 0.568897
vt 0.349575 0.612737
vt 0.384117 0.526974
vt 0.408004 0.487333
vt 0.304570 0.775417
vt 0.306247 0.821916
vt 0.310603 0.729599
vt 0.323449 0.685019
vt 0.483062 0.389774
vt 0.453885 0.425761
vt 0.515471 0.356943
vt 0.551868 0.328174
vt 0.656682 0.261294
vt 0.616743 0.285819
vt 0.322231 0.946795
vt 0.697976 0.238609
vt 0.315798 0.899548
vn -0.095488 0.224672 -0.969745
vn -0.097502 0.104016 -0.989785
vn 0.094312 0.105088 -0.989981
vn 0.095755 0.226724 -0.969241
vn 0.986951 0.130470 0.094365
vn 0.963312 0.250717 0.095765
vn 0.964509 0.246321 -0.095121
vn 0.987179 0.126526 -0.097310
vn -0.963041 0.251522 0.096373
vn -0.987100 0.130697 0.092478
vn -0.987233 0.124543 -0.099299
vn -0.965293 0.243410 -0.094666
vn -0.857830 0.123843 -0.498790
vn -0.838111 0.252734 -0.483420
vn -0.495573 0.115732 -0.860822
vn -0.484718 0.245525 -0.839503
vn 0.492382 0.119692 -0.862110
vn 0.483718 0.252045 -0.838147
vn 0.859007 0.128175 -0.495659
vn 0.836568 0.259411 -0.482555
vn -0.094608 0.150077 0.984137
vn -0.489670 0.160389 0.857029
vn -0.479338 0.288842 0.828737
vn -0.096085 0.267727 0.958692
vn -0.859164 0.152532 0.488438
vn -0.830267 0.282685 0.480360
vn 0.857579 0.148835 0.492348
vn 0.831704 0.277233 0.481052
vn 0.490999 0.155813 0.857113
vn 0.480266 0.282623 0.830343
vn 0.095493 0.148709 0.984260
vn 0.095112 0.265655 0.959365
vn -0.038782 0.991649 -0.122996
vn -0.038489 0.995683 0.084460
vn 0.003706 0.996714 0.080920
vn -0.005460 0.995054 -0.099182
vn 0.003164 0.998817 -0.048526
vn -0.000951 0.999249 -0.038742
vn -0.167866 0.975047 -0.145271
vn -0.093253 0.971160 -0.219435
vn -0.014004 0.999738 -0.018105
vn -0.240475 0.969619 -0.044839
vn -0.028654 0.999576 -0.005165
vn -0.253383 0.967186 0.018649
vn -0.035681 0.999338 0.007085
vn -0.199264 0.973554 0.111746
vn -0.015599 0.999627 0.022424
vn -0.103717 0.974855 0.197235
vn 0.030357 0.998869 0.036594
vn 0.010996 0.963911 0.265998
vn 0.048809 0.998268 0.032829
vn 0.072724 0.962179 0.262532
vn 0.044506 0.998807 0.020087
vn 0.146510 0.969982 0.194087
vn 0.028292 0.998995 0.034754
vn 0.197460 0.970592 0.137699
vn 0.021728 0.997918 0.060718
vn 0.246574 0.965223 0.086865
vn 0.027744 0.998219 0.052806
vn 0.254402 0.966711 0.027360
vn 0.014491 0.999895 0.000045
vn 0.177642 0.978107 -0.108396
vn -0.018598 0.998892 -0.043219
vn 0.067929 0.974519 -0.213773
vn -0.045362 0.997823 -0.047877
vn -0.022913 0.962437 -0.270536
vn -0.022038 0.998699 -0.045987
vn -0.052327 0.961666 -0.269184
vn -0.139587 0.984720 -0.104128
vn -0.474224 0.878756 -0.053852
vn -0.476486 0.878866 0.023591
vn -0.143155 0.987686 0.063108
vn 0.011993 0.995581 0.093140
vn 0.061488 0.990270 0.124840
vn 0.160042 0.979124 0.125309
vn 0.479736 0.872184 0.095648
vn 0.480418 0.876829 0.019250
vn 0.151571 0.987639 -0.039932
vn 0.045788 0.995687 -0.080684
vn -0.001632 0.996277 -0.086197
vn -0.912201 0.397521 -0.099327
vn -0.910765 0.402679 0.091417
vn 0.094113 0.383620 -0.918683
vn -0.095501 0.382635 -0.918951
vn 0.910771 0.402331 0.092880
vn 0.911664 0.399076 -0.098014
vn -0.783696 0.411056 -0.465676
vn -0.460329 0.405916 -0.789512
vn 0.459149 0.409054 -0.788580
vn 0.782608 0.414389 -0.464550
vn -0.458467 0.435164 0.774881
vn -0.094840 0.415919 0.904443
vn -0.780091 0.430650 0.453871
vn 0.780828 0.427903 0.455200
vn 0.459605 0.432014 0.775969
vn 0.096443 0.414842 0.904768
s 1
g Trunk_2
usemtl initialShadingGroup
f 8/1/1 4/96/2 11/94/3 14/4/4
f 27/86/5 32/6/6 13/7/7 12/92/8
f 23/9/9 20/88/10 3/99/11 5/12/12
f 3/99/11 2/97/13 6/81/14 5/12/12
f 2/98/13 1/95/15 7/16/16 6/14/14
f 1/95/15 4/96/2 8/1/1 7/16/16
f 11/94/3 10/93/17 15/18/18 14/4/4
f 10/93/17 9/91/19 16/20/20 15/18/18
f 9/91/19 12/92/8 13/7/7 16/20/20
f 19/90/21 18/89/22 21/23/23 24/24/24
f 18/89/22 17/87/25 22/26/26 21/23/23
f 17/87/25 20/88/10 23/9/9 22/26/26
f 27/86/5 26/85/27 29/28/28 32/6/6
f 26/85/27 25/83/29 30/30/30 29/28/28
f 25/83/29 28/84/31 31/32/32 30/30/30
s 5
f 50/33/33 54/34/34 55/35/35 64/36/36
f 25/29/37 26/27/38 33/37/39 34/38/40
f 26/27/38 27/5/41 35/39/42 33/37/39
f 27/5/41 12/8/43 36/40/44 35/39/42
f 12/8/43 9/19/45 37/41/46 36/40/44
f 9/19/45 10/17/47 38/42/48 37/41/46
f 10/17/47 11/3/49 39/43/50 38/42/48
f 11/3/49 4/2/51 40/44/52 39/43/50
f 4/2/51 1/15/53 41/45/54 40/44/52
f 1/15/53 2/13/55 42/46/56 41/45/54
f 2/13/55 3/11/57 43/47/58 42/46/56
f 3/11/57 20/10/59 44/48/60 43/47/58
f 20/10/59 17/25/61 45/49/62 44/48/60
f 17/25/61 18/22/63 46/50/64 45/49/62
f 18/22/63 19/21/65 47/51/66 46/50/64
f 19/21/65 28/31/67 48/52/68 47/51/66
f 28/31/67 25/29/37 34/38/40 48/52/68
f 34/38/40 33/37/39 49/53/69 50/33/33
f 33/37/39 35/39/42 51/54/70 49/53/69
f 35/39/42 36/40/44 52/55/71 51/54/70
f 36/40/44 37/41/46 53/56/72 52/55/71
f 37/41/46 38/42/48 54/34/34 53/56/72
f 38/42/48 39/43/50 55/35/35 54/34/34
f 39/43/50 40/44/52 56/57/73 55/35/35
f 40/44/52 41/45/54 57/58/74 56/57/73
f 41/45/54 42/46/56 58/59/75 57/58/74
f 42/46/56 43/47/58 59/60/76 58/59/75
f 43/47/58 44/48/60 60/61/77 59/60/76
f 44/48/60 45/49/62 61/62/78 60/61/77
f 45/49/62 46/50/64 62/63/79 61/62/78
f 46/50/64 47/51/66 63/64/80 62/63/79
f 47/51/66 48/52/68 64/36/36 63/64/80
f 48/52/68 34/38/40 50/33/33 64/36/36
f 63/64/80 56/57/73 57/58/74 62/63/79
f 64/36/36 55/35/35 56/57/73 63/64/80
f 53/56/72 49/53/69 51/54/70 52/55/71
f 50/33/33 49/53/69 53/56/72 54/34/34
f 62/63/79 57/58/74 58/59/75 61/62/78
f 61/62/78 58/59/75 59/60/76 60/61/77
s 1
f 19/90/21 24/24/24 31/32/32 28/84/31
f 23/9/9 5/12/12 65/65/81 66/66/82
f 8/1/1 14/4/4 68/67/83 67/68/84
f 13/7/7 32/6/6 70/69/85 69/70/86
f 5/12/12 6/81/14 71/82/87 65/65/81
f 6/14/14 7/16/16 72/72/88 71/71/87
f 7/16/16 8/1/1 67/68/84 72/72/88
f 14/4/4 15/18/18 73/73/89 68/67/83
f 15/18/18 16/20/20 74/74/90 73/73/89
f 16/20/20 13/7/7 69/70/86 74/74/90
f 24/24/24 21/23/23 75/75/91 76/76/92
f 21/23/23 22/26/26 77/77/93 75/75/91
f 22/26/26 23/9/9 66/66/82 77/77/93
f 32/6/6 29/28/28 78/78/94 70/69/85
f 29/28/28 30/30/30 79/79/95 78/78/94
f 30/30/30 31/32/32 80/80/96 79/79/95
f 31/32/32 24/24/24 76/76/92 80/80/96
