# File produced by Open Asset Import Library (http://www.assimp.sf.net)
# (assimp v3.1.95221606)

mtllib Untitled.mtl

# vertex positions
v 2.861889 4.923891 -18.383747
v 2.869173 4.923891 -18.209229
v 2.864173 5.659796 -18.209229
v 2.864173 5.659796 -18.383289
v 3.058722 4.923891 -16.752638
v 3.611748 4.923891 -16.752640
v 3.611748 5.659796 -16.752640
v 3.058722 5.659796 -16.752638
v 3.611748 4.923891 -18.535877
v 3.058722 4.923891 -18.535877
v 3.058722 5.659796 -18.535877
v 3.611748 5.659796 -18.535877
v 2.869173 4.923891 -17.079285
v 2.869173 4.923891 -16.906221
v 2.866657 5.659797 -16.905720
v 2.864172 5.659796 -17.079285
v 2.899173 5.659796 -17.578365
v 2.899173 4.923891 -17.578365
v 2.899173 4.923891 -17.079285
v 2.899173 5.659796 -17.079285
v 4.095091 4.923891 -18.535877
v 4.095091 5.659796 -18.535877
v 4.095091 4.923891 -16.752640
v 4.095091 5.659796 -16.752640
v 3.050564 4.923911 -18.566158
v 2.916630 4.923903 -18.518503
v 2.920529 5.659796 -18.514523
v 3.054072 5.659797 -18.566158
v 2.881678 4.923895 -18.432465
v 2.884728 5.659796 -18.431154
v 2.922942 4.923891 -16.776409
v 2.921029 5.659796 -16.774494
v 3.049500 4.923891 -16.721277
v 3.049500 5.659796 -16.717642
v 2.849173 4.893890 -18.386274
v 2.849173 4.893890 -18.209229
v 2.849173 4.923891 -18.209229
v 2.849173 4.923891 -18.386274
v 3.048776 4.893890 -16.702637
v 3.611748 4.893890 -16.702637
v 3.611748 4.923891 -16.702637
v 3.048776 4.923891 -16.702637
v 3.611748 4.893890 -18.585876
v 3.048776 4.893890 -18.585876
v 3.048776 4.923891 -18.585876
v 3.611748 4.923891 -18.585876
v 2.849173 4.893890 -17.079285
v 2.849173 4.893890 -16.902243
v 2.849173 4.923891 -16.902243
v 2.849173 4.923891 -17.079285
v 2.849173 4.893890 -17.578367
v 2.849173 4.923891 -17.578367
v 4.125093 4.893890 -18.585876
v 4.095091 4.923891 -18.585876
v 4.125091 4.893890 -16.702637
v 4.095091 4.923891 -16.702637
v 2.907635 4.893890 -18.527416
v 2.907635 4.923891 -18.527416
v 2.870231 4.893890 -18.437115
v 2.870231 4.923891 -18.437115
v 2.907635 4.893890 -16.761101
v 2.907635 4.923891 -16.761101
v 2.849173 5.659796 -18.209229
v 2.849173 5.659796 -18.386274
v 3.611748 4.923891 -16.717634
v 3.611748 5.659796 -16.702637
v 3.048776 5.659796 -16.702637
v 3.611749 5.659797 -16.717642
v 3.611748 4.923891 -18.566158
v 3.048776 5.659796 -18.585876
v 3.611748 5.659796 -18.585876
v 3.611748 5.659796 -18.566158
v 2.849173 5.659796 -16.902243
v 2.849173 5.659796 -17.079285
v 2.849173 5.659796 -17.578367
v 2.864172 5.659796 -17.578367
v 2.869173 4.923891 -17.578367
v 4.095091 5.659796 -18.585876
v 4.095091 5.659796 -18.566158
v 4.095091 4.923891 -18.566158
v 4.095091 4.923890 -16.717636
v 4.095091 5.659796 -16.717636
v 4.095091 5.659796 -16.702637
v 2.907635 5.659796 -18.527416
v 2.870247 5.659796 -18.437153
v 2.907635 5.659796 -16.761101
v 2.899173 4.923891 -18.209229
v 2.899173 5.659796 -18.209229
v 2.861471 5.689796 -17.079285
v 2.849173 5.677497 -17.079285
v 2.849173 5.677497 -16.902243
v 2.861472 5.689796 -16.904688
v 2.861472 5.689796 -17.578367
v 2.849173 5.677497 -17.578367
v 2.907635 5.677497 -16.761101
v 2.917048 5.689796 -16.770514
v 2.849173 5.677497 -18.209229
v 2.861472 5.689796 -18.209229
v 2.861472 5.689796 -18.383827
v 2.849173 5.677497 -18.386274
v 3.611748 5.677497 -17.079285
v 3.599450 5.689796 -17.066988
v 4.112792 5.689796 -17.066988
v 4.125091 5.677497 -17.079285
v 3.611748 5.677497 -17.578365
v 3.599450 5.689796 -17.576929
v 3.599449 5.689796 -18.221529
v 3.611748 5.677497 -18.209229
v 4.125091 5.677497 -18.209229
v 4.112792 5.689796 -18.221529
v 3.611748 5.689796 -18.573576
v 3.611748 5.677497 -18.585876
v 3.048776 5.677497 -18.585876
v 3.051223 5.689796 -18.573580
v 4.112792 5.689796 -18.573580
v 4.125093 5.677497 -18.585876
v 4.112792 5.689796 -18.527416
v 4.125091 5.677497 -18.527416
v 4.125093 5.677497 -18.386276
v 4.112792 5.689796 -18.386274
v 4.112792 5.689796 -18.432447
v 4.125093 5.677497 -18.428617
v 4.112792 5.689796 -16.902243
v 4.125093 5.677497 -16.902243
v 3.611748 5.689796 -16.714939
v 3.611748 5.677497 -16.702637
v 4.125091 5.677497 -16.702637
v 4.112792 5.689796 -16.714937
v 3.051223 5.689796 -16.714937
v 3.048776 5.677497 -16.702637
v 4.125091 5.677497 -16.761101
v 4.112792 5.689796 -16.761101
v 2.907635 5.677497 -18.527416
v 2.917048 5.689796 -18.518003
v 2.870247 5.677497 -18.437153
v 2.881609 5.689796 -18.432446
v 4.125091 4.893890 -18.527416
v 4.125093 4.893890 -16.902243
v 4.125091 4.893890 -17.079285
v 3.611748 4.893890 -17.079285
v 3.611748 4.893890 -17.578365
v 3.611748 5.689796 -18.527416
v 3.611748 4.893890 -18.209229
v 4.125091 4.893890 -18.209229
v 3.611748 5.689796 -16.902239
v 3.611748 5.689796 -18.386276
v 4.125093 4.893890 -18.386276
v 4.125093 4.893890 -18.428617
v 3.611748 5.689796 -18.432447
v 3.611748 5.689796 -16.761101
v 4.125091 4.893890 -16.761101
v 2.899173 4.923891 -17.710150
v 2.899173 5.659796 -17.710150
v 2.869172 4.923891 -17.710150
v 2.849173 4.893890 -17.710150
v 2.849173 4.923891 -17.710150
v 3.611748 4.893890 -17.710152
v 3.611748 5.677497 -17.710152
v 3.599450 5.689796 -17.711584
v 2.861471 5.689796 -17.710150
v 2.849173 5.677497 -17.710150
v 2.849173 5.659796 -17.710150
v 2.864174 5.659796 -17.710150

# UV coordinates
vt 0.693280 0.772969
vt 0.744327 0.772969
vt 0.744327 0.986709
vt 0.693280 0.986709
vt 0.004851 0.581192
vt 0.165986 0.581193
vt 0.165985 0.795614
vt 0.004850 0.795613
vt 0.759583 0.551645
vt 0.921497 0.551645
vt 0.921497 0.765805
vt 0.759583 0.765805
vt 0.225293 0.115590
vt 0.275854 0.115590
vt 0.275854 0.329675
vt 0.225293 0.329675
vt 0.658417 0.525779
vt 0.658417 0.311359
vt 0.803834 0.311359
vt 0.803834 0.525779
vt 0.618943 0.551645
vt 0.618943 0.765805
vt 0.306817 0.581194
vt 0.306816 0.795614
vt 0.609646 0.772969
vt 0.651364 0.772969
vt 0.651364 0.986709
vt 0.609646 0.986709
vt 0.678134 0.772969
vt 0.678134 0.986709
vt 0.317662 0.115590
vt 0.317662 0.329675
vt 0.357809 0.115590
vt 0.357809 0.329675
vt 0.523380 0.998047
vt 0.471794 0.998047
vt 0.471794 0.989306
vt 0.523380 0.989306
vt 0.001953 0.557883
vt 0.165986 0.557883
vt 0.165986 0.566624
vt 0.001953 0.566624
vt 0.759583 0.528376
vt 0.921497 0.528376
vt 0.921497 0.537087
vt 0.759583 0.537087
vt 0.142564 0.998047
vt 0.090978 0.998047
vt 0.090978 0.989306
vt 0.142564 0.989305
vt 0.287980 0.998047
vt 0.287980 0.989306
vt 0.609646 0.528376
vt 0.618943 0.537087
vt 0.315558 0.557884
vt 0.306817 0.566625
vt 0.612405 0.998047
vt 0.567892 0.998047
vt 0.567892 0.989306
vt 0.612405 0.989306
vt 0.539413 0.998047
vt 0.539413 0.989306
vt 0.046466 0.998047
vt 0.046466 0.989305
vt 0.001953 0.998047
vt 0.001953 0.989305
vt 0.993739 0.218971
vt 0.993739 0.267505
vt 0.988804 0.267505
vt 0.988804 0.218971
vt 0.165986 0.570994
vt 0.002164 0.572055
vt 0.740164 0.019132
vt 0.902835 0.019132
vt 0.902835 0.023505
vt 0.740164 0.023505
vt 0.921497 0.542827
vt 0.759583 0.542827
vt 0.684428 0.050869
vt 0.521897 0.050869
vt 0.521897 0.045126
vt 0.684428 0.045126
vt 0.225293 0.109898
vt 0.275854 0.109898
vt 0.910727 0.054142
vt 0.910727 0.107299
vt 0.906422 0.107299
vt 0.906422 0.054142
vt 0.710343 0.016522
vt 0.564927 0.016539
vt 0.564926 0.012169
vt 0.710343 0.012151
vt 0.658417 0.296010
vt 0.803834 0.296010
vt 0.803834 0.301837
vt 0.658417 0.301837
vt 0.381112 0.050869
vt 0.381112 0.045126
vt 0.992985 0.216374
vt 0.987239 0.216374
vt 0.987241 0.001953
vt 0.992986 0.001953
vt 0.618943 0.542827
vt 0.306817 0.570995
vt 0.162142 0.007842
vt 0.162142 0.222264
vt 0.157772 0.222263
vt 0.157772 0.007842
vt 0.599258 0.019132
vt 0.599258 0.023505
vt 0.609646 0.768402
vt 0.651364 0.768402
vt 0.993739 0.306028
vt 0.993739 0.351933
vt 0.988804 0.351933
vt 0.988804 0.306028
vt 0.678134 0.768402
vt 0.988804 0.281154
vt 0.993739 0.281154
vt 0.317662 0.109898
vt 0.910727 0.001953
vt 0.906422 0.006258
vt 0.361176 0.109898
vt 0.858956 0.001953
vt 0.858956 0.006258
vt 0.208793 0.007842
vt 0.208793 0.222261
vt 0.199324 0.222261
vt 0.199323 0.007842
vt 0.978417 0.218971
vt 0.987343 0.218971
vt 0.987343 0.435914
vt 0.978417 0.435914
vt 0.198405 0.222260
vt 0.188935 0.222260
vt 0.188936 0.007842
vt 0.198406 0.007842
vt 0.178548 0.007842
vt 0.188397 0.007842
vt 0.188397 0.226297
vt 0.178548 0.226297
vt 0.005245 0.107301
vt 0.001953 0.107301
vt 0.001953 0.053987
vt 0.005245 0.053987
vt 0.005245 0.258639
vt 0.001953 0.258639
vt 0.001953 0.001953
vt 0.005245 0.005245
vt 0.001953 0.449938
vt 0.005245 0.449938
vt 0.005245 0.503252
vt 0.001953 0.503252
vt 0.224327 0.107301
vt 0.220598 0.103573
vt 0.376260 0.103573
vt 0.379990 0.107301
vt 0.224327 0.258421
vt 0.220598 0.258421
vt 0.220598 0.453667
vt 0.224327 0.449937
vt 0.379990 0.449937
vt 0.376260 0.453667
vt 0.224328 0.551994
vt 0.224328 0.555286
vt 0.053987 0.555286
vt 0.053987 0.551994
vt 0.376260 0.551994
vt 0.379990 0.555286
vt 0.376260 0.546422
vt 0.379990 0.546422
vt 0.379990 0.503623
vt 0.376260 0.503623
vt 0.376260 0.517044
vt 0.379990 0.517044
vt 0.376260 0.053616
vt 0.379990 0.053616
vt 0.224328 0.005245
vt 0.224328 0.001953
vt 0.379990 0.001953
vt 0.376260 0.005245
vt 0.053987 0.005245
vt 0.053987 0.001953
vt 0.379990 0.010817
vt 0.376260 0.010817
vt 0.001953 0.555286
vt 0.005245 0.551994
vt 0.001953 0.518338
vt 0.005245 0.518338
vt 0.837399 0.768402
vt 0.854432 0.768402
vt 0.854432 0.996721
vt 0.837399 0.996721
vt 0.917114 0.768402
vt 0.968699 0.768402
vt 0.968699 0.996721
vt 0.917114 0.996721
vt 0.810254 0.293425
vt 0.661674 0.292869
vt 0.662059 0.077845
vt 0.807475 0.078389
vt 0.609431 0.856045
vt 0.381112 0.856045
vt 0.381112 0.710628
vt 0.609431 0.710628
vt 0.371271 0.295367
vt 0.384720 0.295417
vt 0.384174 0.441405
vt 0.370724 0.441355
vt 0.007147 0.007842
vt 0.156719 0.007842
vt 0.156719 0.236161
vt 0.007147 0.236161
vt 0.007147 0.238758
vt 0.156719 0.238758
vt 0.156719 0.467077
vt 0.007147 0.467077
vt 0.858243 0.297188
vt 0.857697 0.443175
vt 0.809695 0.442996
vt 0.388220 0.093015
vt 0.371880 0.132049
vt 0.858347 0.078579
vt 0.478247 0.077158
vt 0.473859 0.292167
vt 0.425844 0.295571
vt 0.427375 0.076968
vt 0.425299 0.441559
vt 0.473300 0.441738
vt 0.744689 0.768402
vt 0.796275 0.768402
vt 0.796275 0.996721
vt 0.744689 0.996721
vt 0.808612 0.996721
vt 0.808612 0.768402
vt 0.412391 0.295521
vt 0.411845 0.441509
vt 0.413187 0.082783
vt 0.912817 0.297392
vt 0.899366 0.297342
vt 0.897381 0.094918
vt 0.913428 0.134073
vt 0.898821 0.443329
vt 0.912271 0.443379
vt 0.858956 0.768402
vt 0.875990 0.768402
vt 0.875990 0.996721
vt 0.858956 0.996721
vt 0.173354 0.101159
vt 0.173354 0.049236
vt 0.178545 0.049236
vt 0.178545 0.101159
vt 0.697616 0.053466
vt 0.862445 0.053466
vt 0.862445 0.058649
vt 0.697616 0.058649
vt 0.422060 0.061246
vt 0.585392 0.061246
vt 0.585392 0.066476
vt 0.422060 0.066476
vt 0.173354 0.484468
vt 0.173354 0.432545
vt 0.178545 0.432545
vt 0.178545 0.484468
vt 0.173354 0.286176
vt 0.178545 0.286176
vt 0.734269 0.061246
vt 0.725677 0.066476
vt 0.218453 0.236152
vt 0.209711 0.227411
vt 0.209711 0.012990
vt 0.218453 0.007832
vt 0.360336 0.119080
vt 0.369077 0.110339
vt 0.369077 0.338660
vt 0.360336 0.333502
vt 0.547318 0.053466
vt 0.556102 0.058649
vt 0.381112 0.061246
vt 0.381112 0.066476
vt 0.178545 0.034314
vt 0.173354 0.034314
vt 0.173354 0.007842
vt 0.178545 0.007842
vt 0.173354 0.525861
vt 0.178545 0.525861
vt 0.903769 0.053466
vt 0.903769 0.058649
vt 0.474603 0.524218
vt 0.474603 0.309797
vt 0.620019 0.309797
vt 0.620019 0.524217
vt 0.474603 0.301837
vt 0.620019 0.301837
vt 0.326378 0.998047
vt 0.326378 0.989306
vt 0.381112 0.672230
vt 0.381112 0.526814
vt 0.609431 0.526814
vt 0.609431 0.672230
vt 0.220598 0.298818
vt 0.224327 0.298818
vt 0.623662 0.077702
vt 0.622441 0.292723
vt 0.001953 0.298600
vt 0.005245 0.298600
vt 0.178545 0.247527
vt 0.173354 0.247527
vt 0.381113 0.012191
vt 0.526529 0.012172
vt 0.526529 0.016544
vt 0.381113 0.016561
vt 0.925558 0.216376
vt 0.925558 0.001953
vt 0.963956 0.001953
vt 0.963956 0.216376
vt 0.916089 0.216376
vt 0.916089 0.001953
vt 0.973426 0.001953
vt 0.973426 0.216376
vt 0.474603 0.296010
vt 0.620019 0.296010
vt 0.978417 0.216374
vt 0.978418 0.001953
vt 0.381112 0.036306
vt 0.521897 0.036306
vt 0.684428 0.036306
vt 0.526527 0.001975
vt 0.381112 0.001993
vt 0.564925 0.001971
vt 0.710342 0.001953
vt 0.902835 0.033709
vt 0.740164 0.033709
vt 0.599258 0.033709
vt 0.172341 0.222264
vt 0.172340 0.007842
vt 0.693280 0.768402
vt 0.744327 0.768402

# vertex normals
vn -0.996962 0.024181 -0.074045
vn -0.958100 0.205548 0.199484
vn -0.957944 -0.207820 0.197873
vn -0.996960 -0.024240 -0.074043
vn 0.058830 0.052683 0.996877
vn 0.000003 0.046407 0.998923
vn 0.000002 -0.047716 0.998861
vn 0.058823 -0.054765 0.996765
vn 0.000000 0.041275 -0.999148
vn 0.053968 0.047590 -0.997408
vn 0.053996 -0.044828 -0.997534
vn 0.000000 -0.041205 -0.999151
vn -0.962097 0.209738 -0.174299
vn -0.983460 0.027398 0.179040
vn -0.983352 -0.031178 0.179018
vn -0.961312 -0.214679 -0.172607
vn -0.996764 -0.047410 0.064910
vn -0.997062 0.040648 0.064929
vn -0.997062 0.040645 -0.064930
vn -0.996764 -0.047409 -0.064911
vn -0.062475 0.041033 -0.997203
vn -0.062475 -0.041033 -0.997203
vn -0.072150 0.047389 0.996267
vn -0.072149 -0.047384 0.996268
vn -0.132626 0.265729 -0.954881
vn -0.621737 0.032572 -0.782549
vn -0.621774 -0.028448 -0.782680
vn -0.130596 -0.282808 -0.950244
vn -0.922521 0.022205 -0.385307
vn -0.922612 -0.017218 -0.385346
vn -0.716129 0.032742 0.697200
vn -0.716042 -0.035767 0.697141
vn -0.158378 0.262812 0.951760
vn -0.158986 -0.267679 0.950301
vn -0.995757 0.000000 -0.092016
vn -1.000000 0.000000 0.000000
vn -0.844713 0.535219 0.000000
vn -0.907407 0.411802 -0.083853
vn -0.082747 0.000000 0.996571
vn 0.000000 0.000001 1.000000
vn 0.000000 0.464742 0.885446
vn -0.072959 0.471785 0.878690
vn 0.000002 -0.000015 -1.000000
vn -0.082741 0.000000 -0.996571
vn -0.071618 0.500770 -0.862613
vn 0.000007 0.543413 -0.839466
vn -0.983537 0.000000 0.180709
vn -0.850771 0.501751 0.156316
vn -0.832805 0.553567 0.000000
vn -0.832052 0.554698 0.000000
vn 0.924618 -0.000005 -0.380896
vn -0.245041 0.160939 -0.956062
vn 0.924621 0.000000 0.380889
vn -0.189854 0.124694 0.973862
vn -0.640116 0.000000 -0.768278
vn -0.601231 0.343141 -0.721648
vn -0.923880 0.000000 -0.382683
vn -0.858733 0.368872 -0.355683
vn -0.707110 0.000000 0.707103
vn -0.632139 0.448118 0.632132
vn -0.763615 -0.645672 -0.000001
vn -0.798122 -0.597959 -0.073796
vn 0.000000 1.000000 -0.000004
vn 0.000000 -0.641075 0.767478
vn -0.064643 -0.624285 0.778518
vn 0.000000 -1.000000 -0.000002
vn 0.000010 1.000000 0.000000
vn -0.060383 -0.683693 -0.727267
vn 0.000002 -0.738559 -0.674189
vn 0.000000 -1.000000 -0.000001
vn -0.757045 -0.638386 0.139093
vn -0.756844 -0.653596 0.000000
vn -0.762936 -0.646474 0.000000
vn -0.936084 -0.266298 0.229851
vn -0.937221 0.260254 0.232130
vn -0.299823 -0.196915 -0.933451
vn -0.835845 -0.548966 0.000000
vn -0.835845 0.548966 0.000000
vn -0.835828 0.548991 -0.000013
vn -0.835836 -0.548980 -0.000012
vn -0.234486 -0.154053 0.959835
vn -0.504843 -0.614739 -0.605995
vn -0.696689 -0.656772 -0.288575
vn -0.569651 -0.592449 0.569651
vn -0.997062 0.040646 0.064928
vn -0.996765 -0.047405 0.064909
vn -0.016291 0.999867 0.000000
vn -0.925406 0.378978 0.000000
vn -0.915970 0.364547 0.167642
vn -0.020467 0.999784 0.003723
vn -0.016228 0.999868 0.000000
vn -0.925264 0.379325 0.000000
vn -0.659626 0.360259 0.659626
vn -0.020649 0.999573 0.020649
vn -0.019390 0.999810 -0.001770
vn -0.927572 0.363762 -0.085369
vn 0.696839 0.030371 -0.716585
vn 0.006406 0.999958 -0.006517
vn 0.030561 0.995308 -0.091806
vn 0.325916 0.011912 -0.945324
vn 0.999885 0.015147 0.000000
vn 0.016870 0.999858 0.000000
vn 0.006405 0.999958 0.006518
vn 0.696836 0.030377 0.716587
vn 0.325926 0.011915 0.945320
vn 0.030563 0.995308 0.091804
vn 0.000000 0.981758 -0.190133
vn 0.000002 0.380688 -0.924704
vn -0.076527 0.364125 -0.928201
vn -0.011656 0.989656 -0.142986
vn 0.026452 0.966185 -0.256490
vn 0.901026 0.081608 -0.426020
vn 0.025285 0.999680 0.000000
vn 0.999892 0.014671 0.000000
vn 0.999885 0.015157 0.000002
vn 0.024196 0.999707 0.000000
vn 0.025152 0.999684 0.000000
vn 0.999892 0.014669 -0.000003
vn 0.024265 0.999706 0.000000
vn 0.999885 0.015158 0.000000
vn 0.000000 0.981761 0.190121
vn 0.000000 0.380736 0.924684
vn 0.901027 0.081623 0.426014
vn 0.026452 0.966190 0.256470
vn -0.011656 0.989658 0.142976
vn -0.076530 0.364162 0.928186
vn 0.999888 0.014983 0.000002
vn 0.024718 0.999694 0.000000
vn -0.597360 0.358855 -0.717206
vn -0.022873 0.999361 -0.027474
vn -0.856636 0.374535 -0.354821
vn -0.018039 0.999809 -0.007470
vn 1.000000 0.000000 0.000000
vn 0.326035 0.000000 -0.945358
vn 0.697077 0.000000 -0.716996
vn 0.000000 1.000000 -0.000002
vn 0.697074 0.000000 0.716999
vn 0.326045 0.000000 0.945354
vn 0.000000 1.000000 0.000000
vn 0.000000 1.000000 0.000001
vn 1.000000 0.000000 0.000002
vn 1.000000 0.000000 -0.000003
vn -0.997062 0.040647 -0.064928
vn -0.996765 -0.047406 -0.064909
vn -0.937217 0.260262 -0.232139
vn 0.999885 0.015148 0.000000
vn 0.016869 0.999858 0.000000
vn -0.762900 -0.646517 -0.000001
vn -0.936079 -0.266307 -0.229861

# Mesh
g BarCounter BarCounter Furniture1 ShipDecorationSeparatedLow
usemtl lambert93SG
f 2/2/2 3/3/3 4/4/4 1/1/1
f 6/6/6 7/7/7 8/8/8 5/5/5
f 12/12/12 9/9/9 10/10/10 11/11/11
f 13/13/13 14/14/14 15/15/15 16/16/16
f 20/20/20 17/17/17 18/18/18 19/19/19
f 22/22/22 21/21/21 9/9/9 12/12/12
f 23/23/23 24/24/24 7/7/7 6/6/6
f 28/28/28 25/25/25 26/26/26 27/27/27
f 27/27/27 26/26/26 29/29/29 30/30/30
f 31/31/31 32/32/32 15/15/15 14/14/14
f 33/33/33 34/34/34 32/32/32 31/31/31
f 37/37/37 38/38/38 35/35/35 36/36/36
f 40/40/40 41/41/41 42/42/42 39/39/39
f 46/46/46 43/43/43 44/44/44 45/45/45
f 49/49/48 50/50/49 47/47/36 48/48/47
f 50/50/49 52/52/50 51/51/36 47/47/36
f 54/54/52 53/53/51 43/43/43 46/46/46
f 55/55/53 56/56/54 41/41/41 40/40/40
f 45/60/45 44/57/44 57/58/55 58/59/56
f 58/59/56 57/58/55 59/61/57 60/62/58
f 61/63/59 62/64/60 49/49/48 48/48/47
f 39/65/39 42/66/42 62/64/60 61/63/59
f 4/69/4 3/70/3 63/67/61 64/68/62
f 41/41/41 65/71/63 33/72/33 42/42/42
f 68/76/66 66/73/64 67/74/65 34/75/34
f 69/78/67 46/46/46 45/45/45 25/77/25
f 71/80/69 72/81/70 28/82/28 70/79/68
f 14/14/14 13/13/13 50/83/49 49/84/48
f 16/87/16 15/88/15 73/85/71 74/86/72
f 76/91/74 16/92/16 74/89/72 75/90/73
f 13/95/13 77/96/75 52/93/50 50/94/49
f 78/97/76 79/98/77 72/81/70 71/80/69
f 79/101/77 78/102/76 54/99/52 80/100/78
f 80/103/78 54/54/52 46/46/46 69/78/67
f 56/56/54 81/104/79 65/71/63 41/41/41
f 83/108/81 82/105/80 81/106/79 56/107/54
f 82/110/80 83/109/81 66/73/64 68/76/66
f 25/25/25 45/111/45 58/112/56 26/26/26
f 70/114/68 28/115/28 27/116/27 84/113/82
f 26/26/26 58/112/56 60/117/58 29/29/29
f 84/113/82 27/116/27 30/118/30 85/119/83
f 62/120/60 31/31/31 14/14/14 49/84/48
f 32/122/32 86/121/84 73/85/71 15/88/15
f 42/123/42 33/33/33 31/31/31 62/120/60
f 34/125/34 67/124/65 86/121/84 32/122/32
f 87/128/85 88/129/86 3/126/3 2/127/2
f 11/133/11 10/130/10 25/131/25 28/132/28
f 20/137/20 19/134/19 13/135/13 16/136/16
f 5/139/5 8/140/8 34/141/34 33/138/33
f 92/145/90 89/142/87 90/143/88 91/144/89
f 89/142/87 93/146/91 94/147/92 90/143/88
f 95/148/93 96/149/94 92/145/90 91/144/89
f 98/151/87 99/152/95 100/153/96 97/150/88
f 103/156/99 104/157/100 101/154/97 102/155/98
f 101/154/97 105/158/101 106/159/102 102/155/98
f 109/162/105 110/163/106 107/160/103 108/161/104
f 111/164/107 112/165/108 113/166/109 114/167/110
f 115/168/111 116/169/112 112/165/108 111/164/107
f 118/171/114 116/169/112 115/168/111 117/170/113
f 109/162/105 119/172/115 120/173/116 110/163/106
f 122/175/118 118/171/114 117/170/113 121/174/117
f 124/177/120 104/157/100 103/156/99 123/176/119
f 127/180/123 128/181/124 125/178/121 126/179/122
f 126/179/122 125/178/121 129/182/125 130/183/126
f 127/180/123 131/184/127 132/185/128 128/181/124
f 131/184/127 124/177/120 123/176/119 132/185/128
f 114/167/110 113/166/109 133/186/129 134/187/130
f 134/187/130 133/186/129 135/188/131 136/189/132
f 130/183/126 129/182/125 96/149/94 95/148/93
f 53/191/51 116/192/112 118/193/114 137/190/133
f 124/197/120 138/194/133 139/195/134 104/196/100
f 102/198/98 106/199/102 93/200/91 89/201/87
f 105/205/101 101/202/97 140/203/135 141/204/133
f 117/208/113 115/209/111 111/206/107 142/207/136
f 144/211/138 109/212/105 108/213/104 143/210/137
f 104/217/100 139/214/134 140/215/135 101/216/97
f 123/219/119 103/220/99 102/198/98 145/218/139
f 142/207/136 111/206/107 114/222/110 134/221/130
f 145/218/139 102/198/98 89/201/87 92/223/90
f 107/225/103 146/226/140 99/227/95 98/224/87
f 110/229/106 120/228/116 146/226/140 107/225/103
f 147/231/141 119/232/115 109/233/105 144/230/138
f 122/234/118 148/235/142 137/190/133 118/193/114
f 121/237/117 117/208/113 142/207/136 149/236/140
f 149/236/140 142/207/136 134/221/130 136/238/132
f 125/239/121 150/240/139 96/241/94 129/242/125
f 128/244/124 132/243/128 150/240/139 125/239/121
f 131/247/127 127/248/123 55/245/53 151/246/141
f 150/240/139 145/218/139 92/223/90 96/241/94
f 132/243/128 123/219/119 145/218/139 150/240/139
f 138/194/133 124/197/120 131/247/127 151/246/141
f 97/249/88 100/250/96 64/251/62 63/252/61
f 66/256/64 126/253/122 130/254/126 67/255/65
f 112/258/108 71/259/69 70/260/68 113/257/109
f 91/261/89 90/262/88 74/263/72 73/264/71
f 90/262/88 94/265/92 75/266/73 74/263/72
f 116/267/112 78/268/76 71/259/69 112/258/108
f 116/272/112 53/269/51 54/270/52 78/271/76
f 55/274/53 127/275/123 83/276/81 56/273/54
f 83/278/81 127/277/123 126/253/122 66/256/64
f 113/257/109 70/260/68 84/280/82 133/279/129
f 133/283/129 84/284/82 85/281/83 135/282/131
f 86/286/84 95/285/93 91/261/89 73/264/71
f 67/255/65 130/254/126 95/287/93 86/288/84
f 153/292/144 88/289/86 87/290/85 152/291/143
f 152/291/143 87/290/85 2/293/2 154/294/145
f 156/296/50 37/37/37 36/36/36 155/295/36
f 108/299/104 158/300/146 157/297/133 143/298/137
f 158/302/146 108/161/104 107/160/103 159/301/147
f 159/304/147 107/225/103 98/224/87 160/303/91
f 160/306/91 98/151/87 97/150/88 161/305/92
f 161/308/92 97/249/88 63/252/61 162/307/148
f 3/309/3 163/310/149 162/311/148 63/312/61
f 154/314/145 77/315/75 76/316/74 163/313/149
f 52/52/50 156/296/50 155/295/36 51/51/36
f 158/300/146 105/205/101 141/204/133 157/297/133
f 105/158/101 158/302/146 159/301/147 106/159/102
f 106/199/102 159/304/147 160/303/91 93/200/91
f 93/146/91 160/306/91 161/305/92 94/147/92
f 94/265/92 161/308/92 162/307/148 75/266/73
f 163/310/149 76/91/74 75/90/73 162/311/148
f 153/317/144 152/318/143 154/314/145 163/313/149
f 18/319/18 17/320/17 76/316/74 77/315/75
f 154/294/145 2/293/2 37/321/37 156/322/50
f 9/9/9 69/78/67 25/77/25 10/10/10
f 21/21/21 80/103/78 69/78/67 9/9/9
f 22/324/22 79/101/77 80/100/78 21/323/21
f 79/98/77 22/325/22 12/326/12 72/81/70
f 72/81/70 12/326/12 11/327/11 28/82/28
f 88/329/86 153/328/144 163/310/149 3/309/3
f 17/330/17 20/331/20 16/92/16 76/91/74
f 7/333/7 68/76/66 34/75/34 8/332/8
f 24/334/24 82/110/80 68/76/66 7/333/7
f 82/105/80 24/336/24 23/335/23 81/106/79
f 81/104/79 23/23/23 6/6/6 65/71/63
f 65/71/63 6/6/6 5/5/5 33/72/33
f 19/19/19 18/18/18 77/96/75 13/95/13
f 60/62/58 59/61/57 35/35/35 38/38/38
f 29/29/29 60/117/58 38/337/38 1/1/1
f 30/30/30 29/29/29 1/1/1 4/4/4
f 85/119/83 30/118/30 4/69/4 64/68/62
f 135/282/131 85/281/83 64/251/62 100/250/96
f 136/189/132 135/188/131 100/153/96 99/152/95
f 146/226/140 149/236/140 136/238/132 99/227/95
f 120/228/116 121/237/117 149/236/140 146/226/140
f 119/172/115 122/175/118 121/174/117 120/173/116
f 122/234/118 119/232/115 147/231/141 148/235/142
f 77/96/75 154/294/145 156/322/50 52/93/50
f 2/2/2 1/1/1 38/337/38 37/338/37
