# This file uses centimeters as units for non-parametric coordinates.

mtllib SinglePalisadeBeam.mtl
g default
v 83.652679 -11.849451 274.725952
v 83.334824 -11.849451 274.635834
v 82.899124 -11.849451 274.722961
v 82.740494 -11.849451 275.142456
v 82.828186 -11.849451 275.552338
v 83.050674 -11.849451 275.913879
v 83.487465 -11.849451 276.078613
v 84.011681 -11.849451 275.671967
v 84.052658 -11.849451 275.308502
v 84.008614 -11.849451 274.959564
v 83.754990 -8.036314 274.595856
v 84.009033 -8.036314 274.943573
v 84.151970 -8.036314 275.349915
v 83.988068 -8.036314 275.760437
v 83.491356 -8.036314 276.032135
v 82.955353 -8.036314 276.055603
v 82.752975 -8.036314 275.538757
v 82.740494 -8.036314 275.142456
v 82.966171 -8.036314 274.801819
v 83.286743 -8.036314 274.496796
v 83.751320 -1.808190 274.614288
v 84.041138 -1.808190 274.971741
v 84.093224 -1.808190 275.365112
v 83.908173 -1.808190 275.746033
v 83.572258 -1.808190 275.966614
v 83.141487 -1.808190 275.898773
v 82.874146 -1.808190 275.561371
v 82.795517 -1.808190 275.136902
v 82.934608 -1.808190 274.774200
v 83.336388 -1.808190 274.635132
v 83.708961 0.901049 274.678925
v 83.718887 0.816636 274.660339
v 83.310989 0.901227 274.610321
v 83.308578 0.816439 274.591095
v 82.948662 0.901135 274.788635
v 82.934608 0.816532 274.774200
v 82.760406 0.901232 275.145905
v 82.741409 0.816435 275.142365
v 82.818054 0.901224 275.545593
v 82.801163 0.816451 275.554626
v 83.099594 0.901115 275.835114
v 83.091057 0.816570 275.853699
v 83.497566 0.901057 275.903809
v 83.501625 0.816639 275.924408
v 83.859894 0.901080 275.725433
v 83.874504 0.816597 275.739960
v 84.048195 0.901092 275.368195
v 84.068459 0.816583 275.371490
v 83.990540 0.901112 274.968475
v 84.009155 0.816562 274.959778
v 83.349693 1.462482 274.878632
v 83.582527 1.462378 274.918793
v 83.137711 1.462428 274.982971
v 83.027565 1.462485 275.192017
v 83.061295 1.462480 275.425842
v 83.226013 1.462416 275.595245
v 83.458847 1.462383 275.635437
v 83.670830 1.462396 275.531036
v 83.780998 1.462403 275.322083
v 83.747269 1.462415 275.088196
v 83.584564 1.847633 275.168304
v 83.497993 1.847614 275.079285
v 83.375641 1.847669 275.058197
v 83.264252 1.847641 275.113007
v 83.206367 1.847670 275.222870
v 83.224091 1.847668 275.345734
v 83.310654 1.847634 275.434753
v 83.432999 1.847617 275.455872
v 83.544395 1.847623 275.401031
v 83.602287 1.847627 275.291229
v 83.465195 2.125145 275.227081
v 83.435974 2.125139 275.197052
v 83.394676 2.125157 275.189911
v 83.357079 2.125147 275.208405
v 83.337540 2.125157 275.245514
v 83.343521 2.125157 275.286987
v 83.372742 2.125145 275.317017
v 83.414032 2.125139 275.324158
v 83.451637 2.125142 275.305634
v 83.471176 2.125143 275.268585
v 83.417847 2.248057 275.250397
v 83.411377 2.248056 275.243744
v 83.402229 2.248060 275.242157
v 83.393898 2.248058 275.246246
v 83.389572 2.248060 275.254486
v 83.390900 2.248060 275.263672
v 83.397369 2.248057 275.270325
v 83.406517 2.248056 275.271912
v 83.414848 2.248057 275.267792
v 83.419174 2.248057 275.259583
vt 0.332981 0.328109
vt 0.307479 0.328109
vt 0.307481 0.066827
vt 0.332983 0.066827
vt 0.071728 0.066826
vt 0.071726 0.328108
vt 0.101290 0.066826
vt 0.101289 0.328108
vt 0.129870 0.066826
vt 0.129869 0.328108
vt 0.158595 0.066826
vt 0.158594 0.328108
vt 0.188732 0.066826
vt 0.188731 0.328108
vt 0.225694 0.066827
vt 0.225693 0.328109
vt 0.252436 0.066827
vt 0.252434 0.328109
vt 0.278690 0.066827
vt 0.278688 0.328109
vt 0.042345 0.754243
vt 0.042347 0.328108
vt 0.042348 0.066826
vt 0.596336 0.244466
vt 0.620993 0.257848
vt 0.569133 0.237388
vt 0.613115 0.320618
vt 0.640245 0.313473
vt 0.668376 0.313409
vt 0.695597 0.320380
vt 0.720346 0.333607
vt 0.513909 0.244263
vt 0.541109 0.237305
vt 0.591574 0.338887
vt 0.615185 0.326053
vt 0.640995 0.319298
vt 0.667618 0.319195
vt 0.693466 0.325803
vt 0.492255 0.262453
vt 0.515938 0.249743
vt 0.541789 0.243108
vt 0.568425 0.243160
vt 0.594251 0.249928
vt 0.307477 0.754245
vt 0.278685 0.933164
vt 0.278685 0.754245
vt 0.252431 0.933164
vt 0.252432 0.754245
vt 0.225690 0.933165
vt 0.225691 0.754244
vt 0.188728 0.933174
vt 0.188729 0.754244
vt 0.158591 0.933169
vt 0.158592 0.754244
vt 0.129866 0.933158
vt 0.129867 0.754244
vt 0.101287 0.933160
vt 0.101287 0.754244
vt 0.071723 0.933166
vt 0.071724 0.754244
vt 0.042345 0.933160
vt 0.307476 0.933174
vt 0.332979 0.754245
vt 0.332978 0.933161
vt 0.617229 0.372815
vt 0.578422 0.288621
vt 0.631055 0.364883
vt 0.646466 0.360747
vt 0.662417 0.360651
vt 0.677873 0.364590
vt 0.517731 0.296497
vt 0.531605 0.288646
vt 0.547032 0.284597
vt 0.562989 0.284590
vt 0.559221 0.312865
vt 0.567304 0.315020
vt 0.635182 0.395496
vt 0.642369 0.391237
vt 0.650443 0.389009
vt 0.658822 0.388947
vt 0.666922 0.391052
vt 0.535543 0.319271
vt 0.542757 0.315058
vt 0.550839 0.312877
vt 0.560014 0.089332
vt 0.561554 0.089332
vt 0.648839 0.141453
vt 0.652569 0.141453
vt 0.654191 0.141453
vt 0.655871 0.141453
vt 0.659347 0.141453
vt 0.552948 0.089332
vt 0.556842 0.089332
vt 0.558389 0.089332
vt 0.560014 0.095671
vt 0.561554 0.095671
vt 0.648839 0.147717
vt 0.652569 0.147717
vt 0.654191 0.147717
vt 0.655871 0.147717
vt 0.659347 0.147717
vt 0.552948 0.095671
vt 0.556842 0.095671
vt 0.558389 0.095671
vt 0.565256 0.095671
vt 0.661292 0.147717
vt 0.661382 0.411552
vt 0.561637 0.335488
vt 0.674161 0.395189
vt 0.574513 0.319209
vt 0.691737 0.372313
vt 0.592220 0.296450
vt 0.717233 0.338559
vt 0.617931 0.262863
vt 0.489238 0.257408
vt 0.588485 0.333888
vt 0.658944 0.410143
vt 0.661292 0.141453
vt 0.656212 0.409426
vt 0.653383 0.409450
vt 0.650660 0.410214
vt 0.648244 0.411666
vt 0.553651 0.333335
vt 0.556481 0.333328
vt 0.550927 0.334082
vt 0.548501 0.335518
vt 0.559208 0.334062
vt 0.565255 0.089332
vn -0.189252 -0.001105 -0.981928
vn 0.481976 -0.007017 -0.876156
vn 0.481461 -0.030508 -0.875936
vn -0.127282 -0.022040 -0.991622
vn -0.710706 0.003493 -0.703480
vn -0.720341 0.004241 -0.693607
vn -0.983939 0.001811 -0.178494
vn -0.984187 0.005398 -0.177048
vn -0.954196 -0.019639 0.298536
vn -0.951005 0.005781 0.309122
vn -0.590337 -0.023495 0.806815
vn -0.555119 0.007123 0.831740
vn 0.259546 -0.008587 0.965693
vn 0.247845 0.004093 0.968791
vn 0.767326 -0.007993 0.641208
vn 0.746615 0.001701 0.665255
vn 0.999862 -0.013348 0.009920
vn 0.997858 -0.000514 0.065417
vn 0.859074 -0.018472 -0.511517
vn 0.883907 -0.005639 -0.467629
vn 0.472205 0.007251 -0.881459
vn 0.899942 0.004840 -0.435983
vn 0.992957 0.008095 0.118202
vn 0.733134 0.009818 0.680014
vn 0.225859 0.013552 0.974066
vn -0.513563 0.019041 0.857841
vn -0.936617 0.010294 0.350202
vn -0.986959 0.000119 -0.160972
vn -0.715433 0.000411 -0.698681
vn -0.205699 0.006362 -0.978595
vn 0.426810 0.402356 -0.809903
vn 0.448466 0.014966 -0.893675
vn -0.168828 0.002396 -0.985643
vn -0.130953 0.401477 -0.906459
vn 0.821219 0.402691 -0.404276
vn 0.902917 0.019298 -0.429381
vn -0.689143 -0.002670 -0.724621
vn -0.638744 0.401017 -0.656651
vn -0.992332 -0.010056 -0.123193
vn -0.902974 0.400530 -0.155609
vn -0.905019 -0.011144 0.425225
vn -0.822235 0.400496 0.404391
vn -0.488648 0.007575 0.872448
vn -0.427391 0.401881 0.809832
vn 0.163688 0.022842 0.986248
vn 0.130411 0.402920 0.905897
vn 0.725867 0.021201 0.687508
vn 0.638154 0.402839 0.656110
vn 0.985225 0.017575 0.170362
vn 0.902032 0.402586 0.155768
vn -0.000153 1.000000 0.000000
vn 0.000156 1.000000 0.000028
vn 0.000156 1.000000 0.000028
vn -0.000153 1.000000 0.000000
vn 0.420381 0.432767 -0.797491
vn 0.808871 0.432733 -0.398083
vn -0.128689 0.432781 -0.892267
vn -0.628629 0.432774 -0.646168
vn -0.888368 0.432778 -0.153314
vn -0.808824 0.432797 0.398108
vn -0.420358 0.432807 0.797482
vn 0.128756 0.432794 0.892251
vn 0.628553 0.432769 0.646245
vn 0.888375 0.432750 0.153354
vn 0.421556 0.427416 -0.799753
vn 0.811173 0.427363 -0.399198
vn -0.129035 0.427482 -0.894768
vn -0.630395 0.427510 -0.647948
vn -0.890835 0.427521 -0.153750
vn -0.811070 0.427518 0.399242
vn -0.421562 0.427496 0.799708
vn 0.129141 0.427436 0.894774
vn 0.630359 0.427329 0.648103
vn 0.890930 0.427309 0.153791
vn 0.421340 0.428544 -0.799264
vn 0.810604 0.428631 -0.398995
vn -0.128759 0.428605 -0.894270
vn -0.629988 0.428707 -0.647554
vn -0.890246 0.428776 -0.153667
vn -0.810560 0.428660 0.399052
vn -0.421431 0.428576 0.799199
vn 0.129106 0.428564 0.894239
vn 0.630044 0.428452 0.647668
vn 0.890357 0.428538 0.153687
vn 0.428717 0.394467 -0.812771
vn 0.824372 0.394660 -0.405778
vn -0.130545 0.394658 -0.909507
vn -0.640720 0.394866 -0.658451
vn -0.905369 0.394860 -0.156183
vn -0.824099 0.394919 0.406079
vn -0.428310 0.394670 0.812888
vn 0.131221 0.394593 0.909438
vn 0.640836 0.394529 0.658541
vn 0.905393 0.394784 0.156231
vn 0.000084 1.000000 0.000054
vn 0.000084 1.000000 0.000054
vn 0.000024 1.000000 0.000062
vn 0.000024 1.000000 0.000062
vn 0.000435 1.000000 -0.000061
vn 0.000435 1.000000 -0.000061
s 1
g Pole9
usemtl initialShadingGroup
f 20/1/1 11/2/2 1/3/3 2/4/4
f 2/23/4 3/5/5 19/6/6 20/22/1
f 3/5/5 4/7/7 18/8/8 19/6/6
f 4/7/7 5/9/9 17/10/10 18/8/8
f 5/9/9 6/11/11 16/12/12 17/10/10
f 6/11/11 7/13/13 15/14/14 16/12/12
f 7/13/13 8/15/15 14/16/16 15/14/14
f 8/15/15 9/17/17 13/18/18 14/16/16
f 9/17/17 10/19/19 12/20/20 13/18/18
f 10/19/19 1/3/3 11/2/2 12/20/20
f 12/20/20 11/2/2 21/44/21 22/46/22
f 13/18/18 12/20/20 22/46/22 23/48/23
f 14/16/16 13/18/18 23/48/23 24/50/24
f 15/14/14 14/16/16 24/50/24 25/52/25
f 16/12/12 15/14/14 25/52/25 26/54/26
f 17/10/10 16/12/12 26/54/26 27/56/27
f 18/8/8 17/10/10 27/56/27 28/58/28
f 19/6/6 18/8/8 28/58/28 29/60/29
f 20/22/1 19/6/6 29/60/29 30/21/30
f 30/63/30 21/44/21 11/2/2 20/1/1
f 31/43/31 32/24/32 34/25/33 33/114/34
f 32/24/32 31/43/31 49/42/35 50/26/36
f 33/34/34 34/116/33 36/27/37 35/35/38
f 35/35/38 36/27/37 38/28/39 37/36/40
f 37/36/40 38/28/39 40/29/41 39/37/42
f 39/37/42 40/29/41 42/30/43 41/38/44
f 41/38/44 42/30/43 44/31/45 43/113/46
f 43/39/46 44/115/45 46/32/47 45/40/48
f 45/40/48 46/32/47 48/33/49 47/41/50
f 47/41/50 48/33/49 50/26/36 49/42/35
s 3
f 81/95/51 82/96/52 89/103/53 90/104/54
s 1
f 22/46/22 21/44/21 32/62/32 50/45/36
f 23/48/23 22/46/22 50/45/36 48/47/49
f 24/50/24 23/48/23 48/47/49 46/49/47
f 25/52/25 24/50/24 46/49/47 44/51/45
f 26/54/26 25/52/25 44/51/45 42/53/43
f 27/56/27 26/54/26 42/53/43 40/55/41
f 28/58/28 27/56/27 40/55/41 38/57/39
f 29/60/29 28/58/28 38/57/39 36/59/37
f 30/21/30 29/60/29 36/59/37 34/61/33
f 32/62/32 21/44/21 30/63/30 34/64/33
f 49/42/35 31/43/31 52/66/55 60/74/56
f 31/43/31 33/114/34 51/112/57 52/66/55
f 33/34/34 35/35/38 53/67/58 51/65/57
f 35/35/38 37/36/40 54/68/59 53/67/58
f 37/36/40 39/37/42 55/69/60 54/68/59
f 39/37/42 41/38/44 56/70/61 55/69/60
f 41/38/44 43/113/46 57/111/62 56/70/61
f 43/39/46 45/40/48 58/72/63 57/71/62
f 45/40/48 47/41/50 59/73/64 58/72/63
f 47/41/50 49/42/35 60/74/56 59/73/64
f 60/74/56 52/66/55 62/76/65 61/75/66
f 52/66/55 51/112/57 63/110/67 62/76/65
f 51/65/57 53/67/58 64/78/68 63/77/67
f 53/67/58 54/68/59 65/79/69 64/78/68
f 54/68/59 55/69/60 66/80/70 65/79/69
f 55/69/60 56/70/61 67/81/71 66/80/70
f 56/70/61 57/111/62 68/109/72 67/81/71
f 57/71/62 58/72/63 69/83/73 68/82/72
f 58/72/63 59/73/64 70/84/74 69/83/73
f 59/73/64 60/74/56 61/75/66 70/84/74
f 61/75/66 62/76/65 72/127/75 71/124/76
f 62/76/65 63/110/67 73/108/77 72/127/75
f 63/77/67 64/78/68 74/121/78 73/122/77
f 64/78/68 65/79/69 75/120/79 74/121/78
f 65/79/69 66/80/70 76/119/80 75/120/79
f 66/80/70 67/81/71 77/117/81 76/119/80
f 67/81/71 68/109/72 78/107/82 77/117/81
f 68/82/72 69/83/73 79/125/83 78/126/82
f 69/83/73 70/84/74 80/123/84 79/125/83
f 70/84/74 61/75/66 71/124/76 80/123/84
f 71/85/76 72/86/75 82/96/85 81/95/86
f 72/86/75 73/128/77 83/105/87 82/96/85
f 73/87/77 74/88/78 84/98/88 83/97/87
f 74/88/78 75/89/79 85/99/89 84/98/88
f 75/89/79 76/90/80 86/100/90 85/99/89
f 76/90/80 77/91/81 87/101/91 86/100/90
f 77/91/81 78/118/82 88/106/92 87/101/91
f 78/92/82 79/93/83 89/103/93 88/102/92
f 79/93/83 80/94/84 90/104/94 89/103/93
f 80/94/84 71/85/76 81/95/86 90/104/94
s 3
f 89/103/53 82/96/52 83/105/95 88/102/96
f 87/101/97 84/98/98 85/99/99 86/100/100
f 88/106/96 83/97/95 84/98/98 87/101/97
