# File produced by Open Asset Import Library (http://www.assimp.sf.net)
# (assimp v3.1.95221606)

mtllib SmallSign.mtl

# vertex positions
v -5.358547 0.000000 -4.329790
v -5.284861 0.000000 -4.329790
v -5.321703 0.000000 -4.265975
v -5.395391 0.000000 -4.265975
v -5.358547 0.000000 -4.202159
v -5.284861 0.000000 -4.202159
v -5.248016 0.000000 -4.265975
v -5.284861 3.002140 -4.329788
v -5.301438 3.030853 -4.301075
v -5.281172 3.030853 -4.265973
v -5.248016 3.002140 -4.265974
v -5.358547 3.002140 -4.329788
v -5.341969 3.030853 -4.301075
v -5.395391 3.002140 -4.265973
v -5.362235 3.030853 -4.265973
v -5.358547 3.002140 -4.202158
v -5.341969 3.030853 -4.230872
v -5.284861 3.002140 -4.202158
v -5.301437 3.030853 -4.230872
v -5.407456 0.900641 -4.326655
v -5.333768 0.900641 -4.326654
v -5.444300 0.900641 -4.262839
v -5.407456 0.900641 -4.199024
v -5.333768 0.900641 -4.199024
v -5.296925 0.900641 -4.262840
v -5.321703 3.030853 -4.265973
v -5.336032 2.581839 -4.329789
v -5.409720 2.581839 -4.329789
v -5.299189 2.581839 -4.265973
v -5.336032 2.581839 -4.202158
v -5.409720 2.581839 -4.202158
v -5.446564 2.581839 -4.265973
v -5.300663 1.951389 -4.331367
v -5.226976 1.951389 -4.331367
v -5.337507 1.951389 -4.267551
v -5.300663 1.951389 -4.203736
v -5.226976 1.951389 -4.203736
v -5.190133 1.951389 -4.267551
v -7.782390 1.558170 -4.139434
v -5.767190 1.718088 -4.139434
v -5.818927 1.898980 -4.139434
v -7.728980 1.739062 -4.139434
v -7.730023 2.788729 -4.139434
v -5.767190 2.948647 -4.139434
v -5.767190 2.948647 -4.250157
v -7.730023 2.788729 -4.250157
v -7.728980 1.739062 -4.250157
v -5.818927 1.898980 -4.250157
v -5.767190 1.718088 -4.250157
v -7.782390 1.558170 -4.250157
v -7.782390 2.419561 -4.250157
v -7.782390 2.419561 -4.139434
v -5.793734 2.579479 -4.250157
v -5.793734 2.579479 -4.139434
v -7.703008 2.161144 -4.250157
v -7.703008 2.161144 -4.139434
v -5.745473 2.321062 -4.250157
v -5.745473 2.321062 -4.139434
v -7.782390 1.919954 -4.250157
v -7.782390 1.919954 -4.139434
v -5.745473 2.079872 -4.250157
v -5.745473 2.079872 -4.139434

# UV coordinates
vt 0.902668 0.001954
vt 0.927206 0.001954
vt 0.914937 0.023204
vt 0.890400 0.023204
vt 0.902668 0.044454
vt 0.927206 0.044454
vt 0.939475 0.023204
vt 0.149403 0.357173
vt 0.144665 0.371040
vt 0.131191 0.371796
vt 0.124973 0.358573
vt 0.008836 0.369580
vt 0.001953 0.356640
vt 0.026445 0.354164
vt 0.022307 0.368214
vt 0.032674 0.367473
vt 0.051305 0.353081
vt 0.046283 0.366875
vt 0.056068 0.366899
vt 0.076135 0.354435
vt 0.069662 0.367692
vt 0.079998 0.368489
vt 0.100557 0.357168
vt 0.093434 0.370047
vt 0.105180 0.371005
vt 0.118646 0.371812
vt 0.851131 0.411935
vt 0.875576 0.411935
vt 0.875576 0.712694
vt 0.851131 0.712694
vt 0.900054 0.411935
vt 0.900054 0.712694
vt 0.924542 0.411935
vt 0.924542 0.712694
vt 0.948992 0.411935
vt 0.948992 0.712694
vt 0.973518 0.411935
vt 0.973518 0.712694
vt 0.998047 0.411935
vt 0.998047 0.712694
vt 0.959730 0.025331
vt 0.946234 0.025331
vt 0.952982 0.013642
vt 0.939485 0.013642
vt 0.946234 0.001954
vt 0.959730 0.001954
vt 0.966479 0.013642
vt 0.004450 0.213591
vt 0.028593 0.214674
vt 0.125581 0.214417
vt 0.150231 0.215120
vt 0.100929 0.214568
vt 0.076783 0.215186
vt 0.052683 0.215352
vt 0.001953 0.374266
vt 0.026391 0.374266
vt 0.026391 0.725216
vt 0.001953 0.725216
vt 0.051009 0.374266
vt 0.051009 0.725216
vt 0.075635 0.374266
vt 0.075635 0.725216
vt 0.100072 0.374266
vt 0.100072 0.725216
vt 0.124589 0.374266
vt 0.124589 0.725216
vt 0.149112 0.374266
vt 0.149112 0.725216
vt 0.004571 0.001953
vt 0.029064 0.002529
vt 0.053954 0.002850
vt 0.078863 0.002784
vt 0.103372 0.002514
vt 0.127865 0.002518
vt 0.152357 0.002986
vt 0.189216 0.001954
vt 0.849787 0.001954
vt 0.849787 0.059702
vt 0.189216 0.059702
vt 0.189216 0.409481
vt 0.849787 0.409481
vt 0.849787 0.445754
vt 0.189216 0.445754
vt 0.189216 0.795028
vt 0.849787 0.795028
vt 0.849787 0.855317
vt 0.189216 0.855317
vt 0.849787 0.892359
vt 0.189216 0.892359
vt 0.889616 0.001954
vt 0.889616 0.059702
vt 0.154118 0.001954
vt 0.154118 0.059702
vt 0.154118 0.286651
vt 0.189216 0.286651
vt 0.154118 0.409481
vt 0.849787 0.567750
vt 0.189216 0.567750
vt 0.849787 0.286651
vt 0.889616 0.286651
vt 0.889616 0.409481
vt 0.154118 0.199629
vt 0.189216 0.199629
vt 0.849787 0.655668
vt 0.189216 0.655668
vt 0.849787 0.199629
vt 0.889616 0.199629
vt 0.154118 0.118859
vt 0.189216 0.118859
vt 0.849787 0.734991
vt 0.189216 0.734991
vt 0.849787 0.118859
vt 0.889616 0.118859

# vertex normals
vn -0.485997 -0.050381 -0.872507
vn 0.512533 0.003289 -0.858661
vn 0.000000 -1.000000 0.000000
vn -0.996726 -0.080845 -0.001084
vn -0.486820 -0.056438 0.871677
vn 0.513470 -0.002583 0.858104
vn 0.999647 0.026548 -0.001126
vn 0.527967 -0.016810 -0.849099
vn 0.287541 0.818098 -0.498032
vn 0.575079 0.818098 0.000002
vn 0.997495 -0.070736 0.000000
vn -0.470190 0.098214 -0.877084
vn -0.287543 0.818097 -0.498033
vn -0.987448 0.157947 0.000000
vn -0.575077 0.818099 0.000000
vn -0.470189 0.098213 0.877084
vn -0.287539 0.818099 0.498032
vn 0.527966 -0.016810 0.849099
vn 0.287540 0.818096 0.498036
vn -0.519579 0.015051 -0.854290
vn 0.481653 -0.014746 -0.876238
vn -0.999577 0.029058 0.001309
vn -0.518506 0.016327 0.854918
vn 0.480520 -0.013223 0.876884
vn 0.999543 -0.030212 0.001244
vn 0.000000 1.000000 0.000000
vn 0.464459 0.026425 -0.885200
vn -0.536438 -0.028915 -0.843444
vn 0.998427 0.056067 0.000451
vn 0.464051 0.023633 0.885493
vn -0.536017 -0.031310 0.843626
vn -0.998550 -0.053835 0.000496
vn -0.469365 -0.001583 -0.883003
vn 0.530235 -0.000135 -0.847851
vn -0.999996 -0.002718 -0.001138
vn -0.470445 0.001712 0.882428
vn 0.531191 0.003017 0.847247
vn 0.999999 -0.000141 -0.001234
vn 0.000000 0.000000 1.000000
vn -0.253941 0.967220 0.000000
vn -0.081204 0.996698 0.000000
vn 0.000000 0.000000 -1.000000
vn 0.079107 -0.996866 0.000000
vn 0.961448 0.274988 0.000000
vn 0.998203 -0.059919 0.000000
vn -0.959068 0.283175 0.000000
vn -1.000000 0.000000 0.000000
vn -0.999075 -0.043008 0.000000
vn 0.999402 0.034583 0.000000
vn 0.997425 -0.071719 0.000000
vn 0.995367 0.096151 0.000000
vn -0.998112 0.061415 0.000000
vn 0.985192 -0.171453 0.000000

# Mesh
g SignPost SmallSign_low
usemtl initialShadingGroup
f 1/1/1 2/2/2 3/3/3
f 4/4/4 1/1/1 3/3/3
f 5/5/5 4/4/4 3/3/3
f 6/6/6 5/5/5 3/3/3
f 7/7/7 6/6/6 3/3/3
f 2/2/2 7/7/7 3/3/3
f 10/10/10 11/11/11 8/8/8 9/9/9
f 9/12/9 8/13/8 12/14/12 13/15/13
f 13/16/13 12/14/12 14/17/14 15/18/15
f 16/20/16 17/21/17 15/19/15 14/17/14
f 18/23/18 19/24/19 17/22/17 16/20/16
f 11/11/11 10/26/10 19/25/19 18/23/18
f 21/30/21 2/27/2 1/28/1 20/29/20
f 1/28/1 4/31/4 22/32/22 20/29/20
f 4/31/4 5/33/5 23/34/23 22/32/22
f 6/35/6 24/36/24 23/34/23 5/33/5
f 6/35/6 7/37/7 25/38/25 24/36/24
f 7/37/7 2/39/2 21/40/21 25/38/25
f 9/41/9 13/42/13 26/43/26
f 13/42/13 15/44/15 26/43/26
f 15/44/15 17/45/17 26/43/26
f 17/45/17 19/46/19 26/43/26
f 19/46/19 10/47/10 26/43/26
f 10/47/10 9/41/9 26/43/26
f 8/13/8 27/48/27 28/49/28 12/14/12
f 8/8/8 11/11/11 29/50/29 27/51/27
f 11/11/11 18/23/18 30/52/30 29/50/29
f 30/52/30 18/23/18 16/20/16 31/53/31
f 16/20/16 14/17/14 32/54/32 31/53/31
f 14/17/14 12/14/12 28/49/28 32/54/32
f 33/57/33 34/58/34 21/55/21 20/56/20
f 35/60/35 33/57/33 20/56/20 22/59/22
f 36/62/36 35/60/35 22/59/22 23/61/23
f 37/64/37 36/62/36 23/61/23 24/63/24
f 38/66/38 37/64/37 24/63/24 25/65/25
f 34/68/34 38/66/38 25/65/25 21/67/21
f 34/69/34 33/70/33 28/49/28 27/48/27
f 33/70/33 35/71/35 32/54/32 28/49/28
f 35/71/35 36/72/36 31/53/31 32/54/32
f 36/72/36 37/73/37 30/52/30 31/53/31
f 37/73/37 38/74/38 29/50/29 30/52/30
f 38/74/38 34/75/34 27/51/27 29/50/29

# Mesh
g SmallSign_low SignFace
usemtl initialShadingGroup
f 40/77/39 41/78/39 42/79/39 39/76/39
f 44/81/41 45/82/41 46/83/40 43/80/40
f 48/85/42 49/86/42 50/87/42 47/84/42
f 49/86/43 40/88/43 39/89/43 50/87/43
f 40/77/44 49/90/44 48/91/45 41/78/45
f 42/79/47 47/93/47 50/92/46 39/76/46
f 43/80/40 46/96/40 51/94/48 52/95/48
f 45/82/42 53/97/42 51/98/42 46/83/42
f 45/101/50 44/81/50 54/99/49 53/100/49
f 54/99/39 44/81/39 43/80/39 52/95/39
f 55/102/47 56/103/47 52/95/48 51/94/48
f 53/97/42 57/104/42 55/105/42 51/98/42
f 58/106/51 57/107/51 53/100/49 54/99/49
f 58/106/39 54/99/39 52/95/39 56/103/39
f 56/103/47 55/102/47 59/108/52 60/109/52
f 57/104/42 61/110/42 59/111/42 55/105/42
f 57/107/51 58/106/51 62/112/53 61/113/53
f 62/112/39 58/106/39 56/103/39 60/109/39
f 47/93/47 42/79/47 60/109/52 59/108/52
f 61/110/42 48/85/42 47/84/42 59/111/42
f 61/113/53 62/112/53 41/78/45 48/91/45
f 41/78/39 62/112/39 60/109/39 42/79/39
