# This file uses centimeters as units for non-parametric coordinates.

mtllib GrassTest4.mtl
g default
v 0.000000 0.000267 -0.500000
v 0.000000 0.000267 0.500000
v 0.000000 1.000267 -0.500000
v 0.000000 1.000267 0.500000
v -0.500000 0.000267 -0.000000
v 0.500000 0.000267 0.000000
v -0.500000 1.000267 -0.000000
v 0.500000 1.000267 0.000000
vt 0.000000 0.000000
vt 1.000000 0.000000
vt 1.000000 1.000000
vt 0.000000 1.000000
vt 0.000000 0.000000
vt 1.000000 0.000000
vt 1.000000 1.000000
vt 0.000000 1.000000
vn -1.000000 0.000000 0.000000
vn -1.000000 0.000000 0.000000
vn -1.000000 0.000000 0.000000
vn -1.000000 0.000000 0.000000
vn -0.000000 0.000000 1.000000
vn -0.000000 0.000000 1.000000
vn -0.000000 0.000000 1.000000
vn -0.000000 0.000000 1.000000
s off
g GrassTest3Obj:GrassPlate1
usemtl GrassTest3Obj:initialShadingGroup
f 1/1/1 2/2/2 4/3/3 3/4/4
f 5/5/5 6/6/6 8/7/7 7/8/8
